<mxfile host="app.diagrams.net" modified="2023-12-11T02:56:33.988Z" agent="Mozilla/5.0 (Windows NT 10.0; Win64; x64) AppleWebKit/537.36 (KHTML, like Gecko) Chrome/113.0.0.0 Safari/537.36" etag="8SjURhFIzW9OHWrzb4dO" version="22.1.7" type="github">
  <diagram name="第 1 页" id="Sg53HiPQYIN-ikuHkJrp">
    <mxGraphModel dx="2074" dy="1124" grid="1" gridSize="10" guides="1" tooltips="1" connect="1" arrows="1" fold="1" page="1" pageScale="1" pageWidth="2339" pageHeight="3300" math="0" shadow="0">
      <root>
        <mxCell id="0" />
        <mxCell id="1" parent="0" />
        <mxCell id="FID3xfvM7FnyY_k4tjsk-12" value="" style="group" vertex="1" connectable="0" parent="1">
          <mxGeometry x="540" y="160" width="360" height="452" as="geometry" />
        </mxCell>
        <mxCell id="FID3xfvM7FnyY_k4tjsk-10" value="" style="group;fillColor=none;strokeColor=default;dashed=1;container=0;" vertex="1" connectable="0" parent="FID3xfvM7FnyY_k4tjsk-12">
          <mxGeometry y="30" width="360" height="422" as="geometry" />
        </mxCell>
        <mxCell id="FID3xfvM7FnyY_k4tjsk-11" value="Compute Pass: LUT" style="text;html=1;align=center;verticalAlign=middle;resizable=0;points=[];autosize=1;strokeColor=none;fillColor=none;" vertex="1" parent="FID3xfvM7FnyY_k4tjsk-12">
          <mxGeometry x="115" width="130" height="30" as="geometry" />
        </mxCell>
        <mxCell id="FID3xfvM7FnyY_k4tjsk-1" value="" style="shape=image;verticalLabelPosition=bottom;labelBackgroundColor=default;verticalAlign=top;aspect=fixed;imageAspect=0;image=data:image/png,iVBORw0KGgoAAAANSUhEUgAAAPIAAAA/CAYAAADaHpXOAAAgAElEQVR4nO2dMbYjubGm/wB5e57xZg3ahUxtQAuUIVOmbC3hOfLGHWeOzhjawuvLTMQYiAj8EUCSrK7q7mmp0IcNIBAA8ybzwx9AJlnyj3/8QwHgr3/9K/7whz/g3yX9/ve/x9///vdf+zD+JdL3c/nt0k89l40H+J6+p+/pt5nuXvjLX/7yax7HL5r++c9/AgD+/Oc//8pH8ttP38/lt0tfcy7FQ+vf/e53+L//+7+g/UTvZ8n7yPWE9h72KKvb+rAplzv5dqj2Uj7RVYf/0tZt7A4ln6iHj1Ifs5v/HFupz/TpyZ/Ku7rZerWF78Xrsg2A6jhGVYDs1W/Xb22zMtgHxQ8A2H/2B7D4D1v2TX5juOkDel/riyhbm/cvvrjqE/7+dxV/5HGzvY5jx1/Gfmab77/zn+OBfTb1d3xe2sv7/6//8w8ApMhvJf5LMU4s/I/xC4TO3CjzRaFxoc0y6KLUxS/Vlwv+S19fAvEs9wRjBf1LwL3yq6CuNqT6RTmdyxXgeS6xjOGfY/gRODxG8oMf1w60DF3uXyaEuKzm+822K6j9GivwbqHcw7uAsesLGjvKK7w7yJYxr3xonMV+5U858KUge9ILsxaXODjN7QTsUnZ4A1j/oGbbFv508RXoi20LzoVPT7YXEL8D8NbnNcgLeBf2lAdoG6ATqAw6130c5HHeBZhAS2PQtTGP5ZXfvMaew52B245R+i027uPX2ua6fgbvW5AW+7vgKlcsJZAFAoUAyyt7QXyg2pbfkCt60b6UlxOr6UMF8kU66/WiKDa6CKc68AVZL956QXI7vcfTyWADsfn0GHsH7M72E4GOybKOy+cXuR+w9gGdi4BllufxlDo2Yyyf1bcDuCr9zmfXnq+5MlbtW/zqGMv4nH8DeLmfp6zIO4ZFyguAMuBUFrE2kA1k8wMYfd6Ge84cS1v9g/gPrjNnttEFyRcIA4t58cxBGFy6EFOfjb1etGDw2e8K6to+y9j65L8FS9/ZDh4PBGEai+BLfcs5qyBpPp/Vf/rSZxDjXrShjpehY5/kuykvfcpY9eNPwNU2suGiz0vfJ313uacSWjcAPZRZArYt4fPlkC8QF1vU8ySwjwIEGv50YlMfpbqSDVCzzVR9Rq6L7xzDT2SGM7ejtnufnZ3bko//d+EPhmwCQodA41DZwapAUvtLiDHfH1rHHu++hZgBTBBeg72HVZN9C59eqPiF7RJGnVdBVdRdHz733xTg3fgX/p6KIgtEGlQUoJeIQkUgIts84DSgh73ZX1JBv6jryJXK3K5h0zIhUF0UUB9j2v3iG2MpfHIYfn5a1klA7ZxMHz+xc8x6Qp+lLahpTA5hN58a5XxhZ5WdF9D2fXlsXdsW+wKP0vgFStAxYB1n8b+AeGnbHgf5lHPCxwFs+i3tuvelcVHqT2El29Oxav4FANfrrnFFJMMIU2XOIY3C7BbwQ5r5NExYzRfcZx1HMO2SfEoZ431yW4NSf03+pU7lGQUg2XisGXGgtCH1S1EEBBr+GZTo82Ifwo95BX1fT/3LRbu+P7U/s2u2JkDL2N6RL1hXNx6H4VnAY18DNP6WeoFHny+AWK/a34SYJqDdObgaI086m7bN2Gm8ixcoBxZFbn4pQuFKrFmdVaFoYxhRA5JzmOqB7Bj9WGh1tqVIWzFtXAYA6ZiDeN8+HLyufYyr7t/Mp0Wbug9mPoIHmWeIygobw8+c9/UPR/hCsoMWP/hyxoWv7DAiJyWTj2G2WKrEwcQFrSIEQI4+kt/6bu/ZNxf6rOvSL+pK7QkGjfbcd7ZmuOk9Vff28r71ePLEote+m8kApU03tqv327Zt+r2dlw9r3bVO4bGXR7g9wcYoqxqY3tYoh00Gdi35BRww67wuGeQskvOaXHzneGvdASU7VngT5AG7zjIUKt36u4+fzRZtzK/vM6QzX3iOD9cngHGm5uzMvl4SscmmDDrfGL6UUYEpjWD5xH1vIKDnGdOPwyeN2Ueh5spLkDxuXWhcTQxR381pL9pelndgb2Da/Q11wuLj2AGOje1qIkljPOn3Mt9MWMBGkSFZieeStdoU0nSInOiErEaLpMIJRvHGmT2DOvImQJcJVfQdf5pYWBvtTY0r7qM5h5oCd/K30y5X5Qn7qCsC4JgQNNpdC0c0AILMXv4JrVFyvohkhT3BzGVRqIqJ+IR1HIBBDwJeSL2V/f3EFlRFkqrxMc+JIdefpZ3SrOO+B/nzQbQo81p+Ne4Wes63k0ce4Gsh5jGzIoeivoIYBPEEcLaNC9UjYYhMoXKV90hXAA04BWgC6TJsoHK3KAEDBGkC7TLBbt1yAXoPu6DbmrPPySN8La8AM7ANiJu+V+VLsBWKnj90IZ908usnzQ0GOosnDbleaA4rIrye08kKLdxe4FXAzp2mN8k2VnCCl7hNG/3+NsB+Iqjj/MR0BeJPA3/Wn0L9pt9uIvoaiIFLRcYGYsylJwaEcV85/B1QD80x8uZQS9QHuOcEV2TCaRtgKgQql5sMiKg+gNcBbxMowZwhHzfW3HfCrHlc1TEhQAxyL3eg24UfduoLr4+lR4ztk4VqngBiwriw+0dGEftO3fZAP0l5dhnqvZ0pZvucVOgYbHIMIA1ydR/fL/E2jjx2oF//ibNa2p7+3a9OypP2l103DruJQjcO73xWVxDvUgH5lta0ETLzPtJOgUWg7RyAdEyITZkHiBgXO6ns8D/DHhB6n1ZtDdK6QdpJrZsB5vDmuvQGbbYmhoUJMRGYr0PngFc4o2yTgIPO0LehfnMSUIL3DaCfgc6wi87lQgF+blWSBJayxv+LtHvG0Pp4TpttAkZ/jxQq5L5siVt9SG2syju441h3kO9N+3TRf5u+AupXjmr/2zVX4HfgP/MHamjdGny7I338vFkcEDus9vCIKe5QznM49Q7IST59AIVzgmp+ItZmkAJ9+pMtZha3Re5Aml+q68h7Bxr1Vdr08jadO9waYzQCtRGk5t9zWaFjgmEoebJI4Pbkpwx0tXNb+CCPSdBeAz3bl0vEN9WukiJAnzCPhgi5AYz7+fTedtfC2+BqzuDXQ91Bzn2+LAbZp3We26cXb/VTjuRlHzolW8gprbefaOMqh9gOscw1sCsqATxsApGTVLcPJUWHdLf3ZB9AFYDZpubXlaDmXIePAScYX2ucALqvzj4+Vth0499SuxLow58V3ZWfgA/gan28tBtwEYo7fprt9t7akdoT3MtL0nj2IYOBz7vUE5wr5Yidbqktrs4ybQwsr9n9OELN7b1DxfEaMKE+7L8AX/tcDfjt0teM/ArYq/dYNrtq2Mzr3xFiE6ixcXWa4gpUetSTkvZuSt2Afib7hHwDcFeDw+wMtRKwFdJSH/e/i0K7z+Kv2W8L+uqj7B8K79HAUG0NIF19q0+FsVOoLZuJoEBdlZn8lQEvwI81biZnfzHxRCCLz5wGfAxJLSvcSqJuYTvDWSeABdai5s8O+QtTmksoOHjpu3s73Rav0xce73aNvAuh56bUOTesMBU4wIywuS+q62tVQctqnELnAqtYe9fpX5T4aV0Mqp0yi0GyAVkTpKOsPJ5DgPkjBwl88lObRJThBJVdsRcb29lmrwI+f+Fi8Zt6egG+FJuQJ8Hif7YKjclk7S5izUqNUmZQgRVOBzYihxp1l3vfT1R5ivILMn/h9OxI9CLndKHIYkA7sIid5VgDx850t42nbmosSV0d5qzMJTQm+KbaVsXOgIqDcaHAE6TRplxnGKs/w81+CfqRO6ABX4J3HLNu2rLyT0jVJgvVNqG0iCTZVMcPH1yF1E/C86TmAT2e2oa9KnHRnxyxX16SodABt3WIcJ3rdTAKx5f5YNNmeXnALd5iG2m/u2b+Rmk7vD5pu+i7KHKE0g2Ahcvz1pKveWVuTiVoT1NnxVBmXTauPBRe1FpXWD2U3obMrtQOWNQZ4DKetSX1lAFFAnSjxHPSGO+lC+wGY7QV+JPaTz/+sYId3NipNK3t89ce/Tj3gC9qTRtpVaH5/9NW1tcOzxKaU0nmn5EvQdosSz2EpgmG3rl6D+YELx1Lhnz4fwm7vzDnb6fNAyHID2C4Qrdz3uOlW0RzR7pBm30NsvcoZwXWjW0XHpNvBdTrCW5d+zG4uxDaxlkBtX6+A83vR/AxwGqTwU59E7CicwIooA+45zgBODLsPE68X4KzhwJzn61aF6XeheZVoXM7w06heQCOvbos6u19EGO5fcKLUOj59VqdwMLhzaDzsNs1b4Wfj8/KW/tFegfun2My2DwQMgZP6+SmBnGft3ykz3u60ufDEcsmlka4LB4OXoXDS/0C0LoxtQmP9QrcAplPEgEiAa6k9rmdgapqz2H1OgEssMYYm0kg6kW5a3i/gF/97T2F2zXe8znAuzry2GGXWU5r7nzV6uWVu0gslWmANCCGqjKw9sTYhNV6elnLiDUsp3d6ClpZVVw0b4/8WXrmd9W22eyaX9eTeNpKQ4nnU1gt1r4CnWWGNe7xalLludN8BariOcga/XnHemtj8HahMTaA0ro3gCwwZsXN4Gdgs+o/g5knga7TvydVrkqf2yrIqIC3AvgG5Fib2/4Fh9661LH38UdDSdFn+D0xiR1qukKz+g0/iXerap2cc8lUfFVtTLUOcOeG2RKWM7Av4P0WErsb4lV9v9kFlEcplR6f5Kem2gx3+UGL2GEmIKlNGe7IWdWL6jgEFzmDubdlaBl4ZSXFJlTmcBoVmNkvl+eEwLCmn/HlNurXta/r5+qrnTbBCNoIq4s/+e5UHAZtgtE22FiNK/xItgKsTx4E9wRXEUzrRFKfSRzTuAU6q/ecKuZXO7NqF4U2SgV6AfpeXd/ywRsTwFemi9DadqNDmTVUGmLPKttXAUXaBZglTyp7pb6kXAZ0VtmZ1/AylBV0oSbbDtoCJSsjgxXtBBjo961JlfsG5L4BPvlVAG1jcJ00uP2ZjWCHRUjJd4IL1H4Euz2eOoH0sn3FkxWY2rdtkgFnNQ+I/dFNnRe7AzDD8QzxDmj/7vt0MUW38Hm3TzbB5RU4FoW+gvKnhNHfcq283+zyo4TOW0xjsWzrYlflllQ0wuotzKS2G7tyTkBvn76qYPvFQeqrvLNLwIe6FXV91a5qP3bvdoa6d/R25TtB6xdwdipP9WQQCVZQe9gIRvfhftpJdTO4YP8EK08ABHhsADKQ3rdNm/hEScodgIP6VjuF3UY0/XZjwDU+V6GxpIwR3nyFTy8n2VV5DBkw+0LawfXHz0N9qbxdum9U+udMW0V2gMXvv/q3hlq38Hp8aCL2AfpX88RU0r+Hm2DdQx3rJlblBC9diM1n9BXQDLdSSDzhS32Lui5Qb9T5Cupe2qsC9zoGg09K2llVq+oudYZ1A31APeFHhd8+ozopZDg7durtn11MpJ7H5qD99ltA2ql8lSPZJsyanuP2kNi9nTClh06G59wMm0WJazwg5skiALdIdJ0LlgfJ3lXWnxPqosjj10DGOmH+lYJO4bWa+uq4xdSV1LgZ8PaBwuFnmF1xBzDigKY2uiiK/85vthOoBe642Bz0ePRTA04wcKl9o6R23HW93K/C5wCcJoMLcPsO2gC2qHIocoW0qnSBt9rKpLAAjGvIk83X4rwsCl8HdJZrvpYHAhow2no6wYxZ8OvUysPsoLOfx+zID4uAyrtnuRMwZHuiyjvbt4Z6/Tlcm0VF7FtQDDDZtdZbgzDEzX7fK0DXUNQV3j7evoAqBB1CjTdQkj2AJ7inX5/9UdWcoWR4V7iV4Oc+PcE4fSuwvWlaB3daTyc7h80J2J0iUzuH0WFjGMuYbDf/HHJTWwJ4Z9OSM7S5Pdvos9r8ssqMtLJSu9hkmG0K4K1q5J9KUoNZraKT66BMr2D+2sXxz5BWRY7NAjtRBHTs6GEAy0AOmB06jDYUiIufNJtZo7yHN4DkdrZf+IYSx22hfEH4E1irimsKzectKr0Mx+dmWbalsDqtpekfmMOA/rlCbwBO6jvbeoB4DbOib5SZ4JQK676cYFay+RpZ5p0AJLBnvqi2f3a+dGOoK8xOn8w18oTZKhRO19BaXeVJsUPtSZn5ixyp/Vl64vM1vGvJgd0aGfYLIZAJLxxoTIDDr4bSCHBFuewQIgE57Iiyf1gTWCRfhfWJMqBix+Qfsj8iuYH6uY3DcFJqv0gZ9KTYAzhfx1+F4J1s3SFqpshlk6uzsjrkO3UmELvtUXScQFP0fmJuXp0BZ3pJBlRxGng7gM/km8CF3Wv3ulqd842iDzV1hS5w+/fF01p7r9xjQkYKmQFQOD3V2xwnnNZPbUHMofaEdvf9bWT/Uq6wsdo/S0ufN9JGkREbCwE0PMQ2cA1gNagn4OOtvaxeVkD7LEuE3mxXaEeUYZDO8pgEhJR0OwHYBxpRRdcojx8/6CNngBn+3URAT19pXDQO/AzxQ6V9I8827VJYnsJzUmUDtEMD0GVDrHf0CrCBMEE2HxQYA84TvgmXlZfssoEWZ/RxX8T40xcoPhsFTzZ1m8akMqHuiB95gCvxGoqDgHYYE9ChzpgqCzWlBflNSY5QO4Xcc62u1PYt0jvDPPNZQVbET3GN39qynxBIcCIABsEpzRS0D5+mak845raxJ2b9AkAvG7wG3lI2v6aKbnaohf5UHgCDyhlw6TY5qQNOqg5Nflvod8BbiB4hOD1bPSeADDYI7Ngc43W0wdqLGneHiJXbbLHhxgpMEGfFzWBDvM4gnrktgX+GT877pn4mleb2DLWDW+pqYIeS0znHqtB2UUd5KqKrM5c1AQsCFtZPDfbYeGPQiyov/TYwfqM5AMD2n4wp//IT15uidUEHQl1BijzuKjnEBmsHmkHcVe1HLtU2v8cJ6X30hajdlVL7SS0F+uwHtXbRObaYb7exdMA3PhtF62q/nqvhKwai2BiQ3GcCPpV8tU3Ffw53Vu2ZuyqXEJzUN1Q4ATzD7VBwYVhnOZSZwVUPp6fCRtitBF5Aa6E2qB75OcdiW1LkAriegPiY3E5lBzjCcVJqnwB84qSNWJ8ok0oXhWbAMsS0MWbERyi9qPPw9XYfUnENaioz9O/443VafqDen9wS2NzXML7KCEWDWH2UAaAbwAFZs7LatxlBZfUTqXSd28zXdYZBqjbRapxwX77G0z9dk2+XeRxiQI+Tr7mfKWbniUQJcitDfUxTfpssekA/AYere8kr9LEBuFNxqgfwG6h1B7WUOlZws0qfc+1K6quLGpNdvT7BXME9F59dPUNOZQ/pdUJd1TyiG4db+jyP6PN+s14BDb/ISKEdAKI1dqwxfR2sWEPvQ20Gmt/jbTi/cB0NFJCbAB3+rzwNqgQGZxd0jIfz0GRc/Dr+qgDLf97KQuXuE17XJFj+IHuE3Qp7pNvXzQMQ7yOq8H8UItbKvqmmoHU4+9q4tiQQD+c7yrrdjq8hFHr2UXTahe9tTBpz/YvY4PK/v4fyD5jHREAhvZSwPfKO+CUPBztBbhcwwQyH2nZ3Gd4KeUAca+NzfDGDQE2hdgF0D/AVtNf5s3KFPYXe4oCzbaq2fUgUnss8h46W8LlFBixBXOJh3iS7CJUXVSa/V0r7JUp8xfd2syvUF7EisfBYaH9B7LrTWDtI97WvEIQ2sTmASmG3IgCNcFphT36O+nyq09fW4wR1g0+trfcxVrf36Z3KtW4TC5d71zSWh+udfKTP5cOsq31vhHbp+wzbux2A7xv07tDbZOAq71GBlSGs7j3uCozZyUP1ufHj3z6bm2pzfT3AriH2mcEOgDcQ6w5gD89PQD0/xrhmq3Yow3tggVqnfYW6KnlW7azertYMJ02KFeqn94VJnUHKHOE23boqqszgLSq9aa82vLBxKiDDQmopb6CIdYHkJaGfDz9nzSCez3s4IBJQOTBRbxd2zxm8lBtoQ7ByX6tftWewp2/06+5XfChXr/c56Yzy9NNq62ovjxDmyyMKMR8/ePWT3RS99wl8VwD21B0Bnr5pJn1uqm3Uubsa0xo5rYWVFXoCFwBv1ZchPbJND4LcyjimbwLeoZ62nYrvwJ5AS8nV8mdJSZWJ7KLUs5RvTQU7V6E2tWHTVo7krbSAHP+giR+EIimsgsBNwM42hy0AxoRO4yULnAyyLX0v2+1u0AbwMhFUgAPWCjKBWSYQhvoK9sjZxn5X9SvIo7x/6dbeYxKQ3m0yGPegh8J3xIMi3XfNR9gaYbjuQu2swBVqV96qvg7qyEs5QHV4j9EWQB9FoY+YOMKmDPQJ6A1LSJ5eBrMI0hp6hplEDkNcZDr5uff0WaC1bjXUfgbuM4B3bWWNLAGxLwHH2mv+vRVkhaTfSp+gGgxhM0WGJh/vN2GVpa9Dxsq+Ar5X7GrjkHq15fYd+BPUJ7AvgO8hP5/Bbfl5CXepnwPkHdye65nrvdvO92k/CME26UC3DaZ+jtAdtuPMyiwUbhd1XXMDFww02x1meiWg5yTAgO9C8Lko3AFdFVrxXKU3MHNITremOMxm6N7N67u+8vG0KLKnBtj9MAPHd+bswFmBB4wEKEpegS72pNTbPhngDDj50DH0Oik8yz1MrtD3i/IG6BxyAyfbE9C5HjAX1T7ZdmIDNNsmzMnv3IB99gnzWYA2qFO9d+h5GujnUPd+GuSnQW7wNC8fptpHlKEHIBNUlR24jwT16PtI9WnnuoEtJ4HOQFPozb9hlWB2VHS/fg44C8wLeGUtXUb/kvxVYr8tyH6I8aKFPIMEcF1Knfx2cD9rezkZ6B5mFLWmvjv1zlCv0Gc1zlBnFa+qjAwu+Z3V1g16UuzT4O0KnKeNf2bovXwGkAT2SWp+6lIewNZyT2BP4Ed5gH0G2D3AHvB6GTLUVrqFywY22gHtlOuEUfEAhGDWkQ84H6PdgZdZ3kNu4bX4+tsmHH0CtfR5MY+nnjIIgQ09RBK3p3QhL4XZaWcci++3SuU+cl7jM9D83KkrNDABCyCpXCHd+r9Zz/DL2nZR7ru2J6C/o94V9t5laa/h9VBoWeBmsKcKz/IENkN/nru6TRSnkt36V6BZvU25Twa6gFxzV+d+TojbOcHu/TDVHrnqAXEFbr5mPgB9AH2CO+F0gCvQsw4HXEzJfQKQA2O9zCrdxj1INZhjnXz6lY8ZXl8AzQ+OPAmzU7hNnlxOTH2DdBla75b5aYsduZwARvkjnkDuvku/J7bo/wXwPy1bfQnV38h3Sp2VXEqYnX0ToAXukY/+bGOIA/STfEy9A25vM3innYA+GfIe4Pez46xwnw71Gbmr9Cyf6Odhan0Y4MeAtk+ItR+QdkDVwGSI6RXtAbD5iMPtqn4f9RS63wzuY8AMV2KDWA3ssDvEtkGYYFPEj3/FveWVSFblL3nA4yp/lRZFzoVcXWaWAjGEfHTjX211xnoxEWzrdWLYTBpfC/oSimMDdFpDrwrOkNfw+txBHaBelwegBPpZ7KmuuU5KPetqdQM74Dawz27AE8wB90lwn5EPqA80Art3C6/7YwLWB6yiB7Q/IBVm+RyA6gPA52zTzwy33BEwh3LfMB5YaJjqfCCrs0Gd9rQ61B90oGt8hNZ+sYczge2+8xtViZl36Cx+r7qUZ61HD+FqUWnQZFT7MpCpTin97fUAde3D/lvgr2wvJgW2ret98q1QU7nWn62vK8wJZK8XqBdwE8CbOuVHtZ8ybQz6qThO8j3U+hDMZwWcwe44CeqTYT47+nlMlXaozwlzP4cqD7AeBvdjwKymxPqAKMGLz5nLR4ZbPwGHGQ9AbwZzA/SG8aORx7iwkzoLxi0sRGgqClNn+imrdJFjqjE9NPJrpFWRWWVnNR2fpIaZNDnsUwX5qd+mctX1SyaICjqwh93tdQKoOXaAF9C3qr2BOfI+65cAb6A9Sn6eCFCPTuXIJdXPU6ysAf0RIBvoCWYrH6bWBvCE+8wvU+YJ9WFK/TC4HeZjQNlNafXTwP4E9AdI/4TiA8AHBtieG8BRvgG4QXEbdldmmDpzSA0k9dLY4e4GsQGe1p0swVQkVZ6gby7cb8T+/aphYfEJnO+4pInh1Vgbtf8p6d3zc7XhUCffV+AvwFOZN912Yfiybn6hykcFuV8Aa2V+nedqO47aLjgOLusE/lCcZ7Nyn4p9dJznfUB8dIN9wDxsDPWEuRvM7TzQ+wPqef9hqGkfSqumzOif0PYB0Q+ofgD4AcCPENyhuGNAfAODPF5tfYUau4L52hkTyFTuid0h3oq5g73fyQaI2SfwbvbMUn6VLkH+1umLWPyJ4P7kYd50XE7ki5li11xD+rrRtl1P6wpygppUOIG7gfhB0D4I4kcB+nEUwA+huliuOI9muRrsisPhdpgPC7uPc4J9FKDPg14PiKm0ng/0/gD6DyO87h9QMUXWzwG2/gjVO6AOt4fWn4DcAL1BcIPuQI4da36VDzHBag+amN3FNq+P6072tSq/C+qr9IuB/K+QvjRK2TY/W5Loal+Uu4TfSaEd3iuAS/4giB8H1WuZ4aa24xBrG4p9HDCgW4b6mFCP+mkwdwvFD/TjxBkgf6Afrs4PyOlAfwDyAekPqHwAegf6Har3CXC/Q+QG6B2qA2JXY0ErMPNOteQTv9S93GebhWBDhH2jLIfYV/8M89PfxcYL+yZ9B/n/g/T0boGMy5CTh/AV7gp2VeUK8YOU+JMAfhwvXifweBTgH2KwC46HGugTalfpAfJtQHycptJ3nMeJ23EMsI8D/XbgPO/o50eALOcD/fyA9k+gD2iBD0An1Gj3UGSJtbGH1TeIQayLGpcPQYtZMXd4FRjrZvNXjK+jetzM37qKYQe5P9e/r/4d5N9gCsAdciOd1+AL2AT1FdCfBLKDXfMoP7ItwD4M5iNDPWyK49FwHt3gvhnMDvUN53niPO44jwPtvKMfBvRxh7Tx0vOOft6hMl6hyhgqLHoH9Abtt6HOncJq+8e//Xdvpiojr5WBDK+f4AR3H/7MLK+PX6kykMLqrwmvv4P8L5Tia+1Y/t4AAAN1SURBVKi3+cH62vskuHdKHQCTIn8a3AxuvB4T6ig/MtSfB3A8xGzNQvMB83F0y1uo9PEwhb6dOO+3AfbtBjlu6LcBcyeo+2lQyx3S71CDFnofELfbuA/cGkTbKOsMq0eozeDKuvRhQHGb4ZDUSUCJ+zdVOU0As/xTwP4O8r94anat3VpZc3MI3p8o9FEAJniXvNgeD4ZbDHDB46Gh1g+H+ui43VsC+rjd0G53tNsxlLndcJ6mzMcd0m7o7Q457+j9Bpw3QG7Qfh+QqgHcR3id18jjxAxYKpR+9nTmocZ2fyKA9s2v0WnMBe+r8rdK30H+N0qCcUE1QfwsE6+zHeoIvUmhGeIfCeYfCeIfK9QV7oep9UMm0A+1esNx7zgeA+jj0XBzqG8N5+2GdruhHQ+c7YbebjhPU+t2A44bVG7oJ+1Qqyl0G0qsXWyN7D+c4TBLVr4ELeVK5djJ7jHOorC+071RZf5MXvH9js93kP+Nk9A6W2/AB22c1TX1J0P9mDA7vD8+cjnAppxfQ63FlNqAvgsed8HxaHjcGo7jRLu1cYvrMcqtNVPiNiCWG852g0hDP9tQ5NMe+uhDgUUF2tv4N761AT1+rR0uvxkWVlxT4PryJ4HEJVzKLjafaKS7UX7u0/1ofN06+TvI3xMAUusbcFPg41bCbweaQm6G2ZX5x80r7J8Z7A+H+lPweQfud8H9LnjcFbf7gPx2G2vpdhsq3VqD3BrO2wD6bA1yNJzS7J8FbugOte9Qq916UoF0KU9cCp0D/63sElK/A7QrcgCNVZVfUbprf5Ps7yB/T0viTbNbA+467uycFHa7OtcwmwH+7wr1x8h/YKA/gc878PGQodafA+ibvY5bw+PW0R6C1gRHE4gp81DnhrPZhpZBPX4adahxl6HACofYcow1xijT3w7n5gpYB7sXH9AuNm98LQO/tWD+Uqa/g/w9PU0efjcA9zaU+uzA/+gD5P/wsPvDQCaY/4OB/gT++4OA/gR+oPLHJ3C/A/fbUOfbHbjfbvi8dbSboN0Et5uM8PrRcDi4MkJmkYbT/llguDJDgFPsJ55thzrBjPwPDtorK3MvuYNdQaadbP6mEZB2sJnheODrG2yEJZD/9Kc/fd1ov/H0xz/+8dc+hF81/e1vf/tF3ucHe/3P2uBPVv7s6Q7gP+0102/58/9/3o92lHgTND0AAAAASUVORK5CYII=;" vertex="1" parent="FID3xfvM7FnyY_k4tjsk-12">
          <mxGeometry x="60" y="60" width="242" height="63" as="geometry" />
        </mxCell>
        <mxCell id="FID3xfvM7FnyY_k4tjsk-3" value="" style="shape=image;verticalLabelPosition=bottom;labelBackgroundColor=default;verticalAlign=top;aspect=fixed;imageAspect=0;image=data:image/png,iVBORw0KGgoAAAANSUhEUgAAAIgAAAEKCAYAAADJtR01AAANGklEQVR4nO2da3KjShJGeUjdcVfRC/K2ZgkTc1fiBfUSbkxMP2xBzQ8qCzKhPuRut5Gtc/4gnsJycsjKKqT269evqWma5suXL01KqQEw/v7776Y7+iTgtiFAQEKAgIQAAQkBAhICBCQECEgIEJAQICAhQEBCgICEAAEJAQISAgQkBAhICBCQECAgIUBAQoCAhAABCQECEgIEJAQISAgQkBAgICFAQEKAgIQAAQkBAhICBCQECEgIEJAQICAhQEBCgICEAAEJAQISAgQkBAhICBCQECAgIUBAQoCAhAABCQECEgIEJAQISAgQkBAgICFAQEKAgIQAAQkBAhICBCQECEgIEJAQICAhQEBCgICEAAEJAQISAgQkBAhUeXh4IEBAQ4CAhAABCQECEgIEJAQISAgQkBAgICFAQEKAgIQAAQkBAhICBCQECEgIEJAQICAhQEBCgICEAAHJyc+mY84CbhYMAhICBCQECEgIEJAQICAhQEBCgICEAAEJAQISAgQkBAhICBCQECAgIUBA4rv76e2HAAYBCQECEgIEJAQISAgQkBAgICFAQEKAgIQAAQkBAhICBCSuLybRGQMBDAISAgQkBAhICBCQECAgIUBAQoCAhK+gAgkGAQkBAhICBCQECEh4cOoo2qNP4DowCEhO+5vAH+Gd2BqDgIRCGVR5fHzEIKAhQEBCgICEHAQkGAQkVFJBgkFAwoNTb8w76YIpYBCQ3Ekr5nau2/f2CWMQkNxJK+YD/WFvLEMMApI7yUE+EG/8L8IgIAk5CAY5nD+WY/zagTEISKik3hqv9C9Y+yLJtTUwCEjIQd6CAwq5839y682v/z9jEJBQB3kLDv1Y7c2v0NjGJhgEJL4Vk8ajzuPu2L+ed7Z4cV6jNNZWN8EgIKEVcxBp1wC1/0X9at/Y6tqzqa7BICAhQEBCkvqaVLy+ubhq9b2bw3VpwHqrdvPl3hlgEJCEJBWD/Bbxsr0qn4yX88saCu3Gq83DLo+7Y6/lagwCEnKQV6R9kQzaazbaJcXjvOCw7RX2wiAgIQd5Rap1xs1Ww8tKWeut85I2vOkLWkfVAWILFWIQkIQcZDjqPD4IFStsXKjt6oU+RlUMVrOvNmKuSEriySxUiEFA4g0yYpBNdtOFVsxtU67RvV67cHVXtw4mkZXU6pr1NhgEJOQg11BL9jdeic3Dptoc6xpF7djt5gbtqihT30cNcMYgICEH+Q3qw4G3WxZup1reUnKInY6ctpaTxP4UlXuE99iwDgYBSTDI5ajzeJe0q6u1rGj8imseOagZo92alFbL/BYxFwmGcasr+5buHCqpcCUY5DdIO3nExpoV1tpY9+MEZazqJdvr23ASm/WWsut2DsJ4ELgab5ABg0h2UgkzytokYsdVyyHkHMEcqZZrrEwUc5d2tU+K57dRQ8EgIHEGGcfno87jXbDbm7FqiGzUKtptI6yqsiv7bC+vmyOvT/59/InW8hYMAlfic5DL01HncRtUFVGpd5TVuqq5VYNY5R7V+W2DlBpM2K4NNY2y3rVi7HzXxmgan/dgEJD4HGS4c4MU4tWst1uXKkJ+sLVPG+0SzeINMW8Wruk27Je2513vbgr2iS0hchC4FgxyFdsKWRuiUntYXL1zirB91bbBCKtcI+YmbTxOt718KwcJtpnNMXsDg4DEG+Ty86jzOJidEulqc127qFphY1laGaC23q7lYJIytfXjzvrZHHMLqHPLl8/aYBCQOIMMz/dqkMxKJG1lTucatTxiuW5ljl1TdGE+msHPz8e1+fmpyVT2MXMkvy05CFwLAQISf4u5/DjqPA6mdiuJm8WiVbiF1G4xy2Zu428lq1tLvDV0+layvvXE5aOfb5qShLZtvLVMWIr68PCAQUATktR7NYixY5KaQaom8Qlj0zRN2/lls0m2lzcprt8zRp52PuFMGw9CxMc2tjojMQhIvEGe7t0g28THGGs5Rrz6VzZolgYJ23TbJkip98eIxgn7te20fTFGyTfm809VLaxdgkFA4gxyefp+1HncBC9uvdSMESzRdYscJFz5dsWvzNLl5fZAvZmjC0Zpere+6fLVP+blRQGLv26085xaONUvwmswCOzgDfLz21HncROsn13ezj1W5ujifDZHuerXOUhXM0gxR56OcXmua+T5MlrZ5sv75NXZFk23/Fv8EIA2tl8WsxgEJBhkSW3wcbW1Mk27Vc7hzdEuru55XZ/ne7eNzTdxauaI0257KHUZNtDZ9p1buzHZLIhgEJA4gzzfuUFWX/sUuvPnVko2RzbGGPKKMt8HK0wL8zHysj7M2/p++tdYLtIl+1dVfjEgDlq23MS68re+5Tc2WopR5s8Bg4DEG+QHBgkLpsleztF7g5gxUrZDWhjElpldmjGbIhujCa2VLi8fswHWV7Tvk7EKatuMbt4Nre78ovnrruzvxyBwJc4gT9/v0yDt6kWe3Wm1lGnvzdH3wSD9/DGnXOFM2RypnyqlnVVMLfcIV34Zktz6/Cfl8R5mHJumKI7lYw9hWRvyl2U9CIOABIM0zaK14he0IQexPpWYa/S9b7Wkky03Syw+Znt9ysawrx4N9Y3OWh95t/mBqOnYYzvkc8vvGXttVwZZ/L0pGKNikqbFILADBlmwHvfhl8eco7e6xynkHoM3R39afMz5dUrnab6YI17qccSY9c2YOXKuUnpv/W6rJ8oXldQ22Wiz2HpZg0FA4gzy89udGiSYoiwuLQZvEMs5xt4bJJkdBssz8nRcfMzjZI606lvxZU2rsYw2rsPMMVrvbc45ojnMBqOv1fgMK/894SdE2rTaFIOAxhnkx7f7HFEWc415uW+99MEgp2yO2SB5ejZznP20aWZj5KTB6h1zP08+ZpeNYaO+RjNGxRydzydK/1FoqUyv86bhEFtgEJBgkGZdKTXsoiwGMXPk1sp4nubPlmsUc1iNY/TTaWb7vUtv7vRlxqmfrNPlfUvuYZe9HcZGq5WRZ7mlFb7M/1dNgEFAEgxyn1//UMtBSuuln6anbJDhlFsYF8s58lU/htwj9I80zTrnsLEjbW99MXnbIecefahzBHO0Iecwc6Sw/FfBICBxBvl+pwaxHCP26ppB+ry+mCNP0znnDVb3KPmCr220bixGfi8bSWbmGKZpyuYY+9BasdHplmvYsy0p5hzZIFf95ftgEJA4g3z7dp9fg9mX51qm+bm0YK2XaXqOBhlC/0jIOcpxFpdhGafaT3nLYL26Zo5Y5zBzpGCM5s+ao5zvKx8PPhgECEhCknqfvxdz6nWSauuHU9Z4SU6tA80eUfBJ6dxMnq/D/rR9a0m1W0tJSv0txW45f/oKxyAg8Unq9/v8zbpzMEhbDDJNzSCWnNpVb1+x0JWBxcntZ517w3l+7OFyqZjDfvTcptkgXTGHL4y9FRgEJHdtECt3D+UC981dM4EZJp3NHJYXBHPko1iz2YYDDJf5Y+7MPsO0zzjEUno2Rsg5zn+oGbsHBgGJM8j/foy17T4kvTUUTtv3dWt8DGaQIRsmmKPPI3CKOfIwAMs3ijWaZi6IDZZ72LG9OfqccxxlDgODgMTnIHdmEGuUmBniEDwzyFhUY13q06xdXafWSvGTMYZnyz2mz/NyWfzSQm6lXEK9I5qjlM6PUkcGg4DEG+Tp4HB9Yz7ZN0haQyJ8ocpskMZtYGN4zECXbBgzxSXnGc85z0jD/Ln2pd7hK6R9rHPcyL8Cg4DE98U830jYvhE2EtCMMFQMYuawmsQpd5hYgfSSW0FDMEhntY5Falcqptkcp/GYCum1YBCQeIPcSSG1DOSxXCLf8C/BIKU8klsavW1nuUfe4TL4qeUeTah1TMcyc/gHmm7V3RgEJP7h7eFW4/h1sUbJJbviOV/gVptofdmjjO94zpXS5zLOOLnpczFGXm+5x8Ig/WjFF18pvVUwCEj8F8jcSSH1XIxhBshmCDmINSyKcTrbPs/bftkc9sxT+QWPwaqksyU+ld7Z9wEGAYn/Mv87MUjoWin1DzPKPDa1ddvb5zNPc+5huUvoZ7GHm86Lr3/qb7TeUQODgMQb5D4aMeX+b30v9rDSEFox1noZsgnKYLBgEsvdxmiOOBL9HYJBQHJXBrHWyOoXM/Ly2BdTCqnJ+lRyr202zlN5dmWa2G/3lCrp6536YWAQkDiDjB/cIOV3/YI5zCRxPEgphForJ0+tXtKV1s80NXN8Tn76nsEgIPEGOeos3pi0ejFRvlkyPKoSDfJUWj/T9JRNYVXST695sgeDQaDK4+PjfeQg8Scy4g8olwHmlb/friIzh+UsNhLtc56+l/6Vl4BBQOIM8kEFUlob5fdy8nIbHmrfihIH1MVcZc5JLOeY5j+iOQwMAhICBCTuFjPUtnpHlCcVFstsSKFNn3LF7OnTNP3r87TXf//xNxk71jkko3+Vwc7vvxC2BwYBiTPIv/79n6PO4yZ4eHg4+hTehPjreGbbx8fH1bYYBCQECEj+D4sw5kR7RMRvAAAAAElFTkSuQmCC;" vertex="1" parent="FID3xfvM7FnyY_k4tjsk-12">
          <mxGeometry x="113" y="130" width="136" height="266" as="geometry" />
        </mxCell>
        <mxCell id="FID3xfvM7FnyY_k4tjsk-4" value="" style="shape=image;verticalLabelPosition=bottom;labelBackgroundColor=default;verticalAlign=top;aspect=fixed;imageAspect=0;image=data:image/png,iVBORw0KGgoAAAANSUhEUgAAAIgAAAAXCAYAAADQigfEAAAA70lEQVRoge3ZPQ6CQBCG4UG5B7fYkgtwwC0oKak9gR2Jh6CiNFpp/MFmN0bdjLFhN+77NB8JW0wx+SBQjOM4i4j0fS91XUsujDEyDEPsMZK38hfGmJhzIFGlv+i6LuYci5qmSURE2raNPEn6Cv+IqapK5nmOPQ8WdHK5d3lweXS5s/b5iAFCWBCoWBCoWBCoWBCoyu9H8K/WLn1LFIEzNAhUNAiCzeHRIFDRIBm7vuU9cIYGgYoGydjZpW+Q0J84GgQqGiRDvjkuLm8ueQfBz14axFoba44kNE0Te4Qo/BfV7WbzcY8GgYoFgYoFgeoBM1wsIOsovSMAAAAASUVORK5CYII=;" vertex="1" parent="FID3xfvM7FnyY_k4tjsk-12">
          <mxGeometry x="113" y="400" width="136" height="23" as="geometry" />
        </mxCell>
        <mxCell id="FID3xfvM7FnyY_k4tjsk-5" value="" style="shape=image;verticalLabelPosition=bottom;labelBackgroundColor=default;verticalAlign=top;aspect=fixed;imageAspect=0;image=data:image/png,iVBORw0KGgoAAAANSUhEUgAAAIYAAAAWCAYAAAAFH+TSAAABM0lEQVRoge3ZP0vDQBgG8Deh0bYWFezSKUO/Q8ZMbvmAGTJmzNwvkU8gxaG3NC2tqOAfFPUc3realBMK2l7tPb/lOY4LvITwEDhPKaWLoqA4jskVURRRWZa2x9hrPhG/KIC6FhFRnue259iZqqqIiCjLMsuT7DdPKaXDMCStte1Z4I/dSo4fv/eu55yTBef0hnN5z/n8xOlvfTr4l1q2B4DtOf7Fs2gMMEJjHLCu5PlJbe+MM3jg9ANOb60i0BhghMZwwKC2nl1w9qQxgjtONAZsBI3hgNPauifZ7nAG8o/hozFgE2gMx6yawHuRxZukNp8DaEBjOGZ1JaZfZeNd8qN5Do0BRmgM1+hm/nSpjsYAo6/GSNPU5hzWJUlie4Sd6EteHkkOOUdXo8Y5NAYY4cMAo0/VrTqxRdODqwAAAABJRU5ErkJggg==;" vertex="1" parent="FID3xfvM7FnyY_k4tjsk-12">
          <mxGeometry x="115" y="430" width="134" height="22" as="geometry" />
        </mxCell>
        <mxCell id="FID3xfvM7FnyY_k4tjsk-6" value="64×128" style="text;html=1;align=center;verticalAlign=middle;resizable=0;points=[];autosize=1;strokeColor=none;fillColor=none;" vertex="1" parent="FID3xfvM7FnyY_k4tjsk-12">
          <mxGeometry x="249" y="230" width="60" height="30" as="geometry" />
        </mxCell>
        <mxCell id="FID3xfvM7FnyY_k4tjsk-7" value="64×8" style="text;html=1;align=center;verticalAlign=middle;resizable=0;points=[];autosize=1;strokeColor=none;fillColor=none;" vertex="1" parent="FID3xfvM7FnyY_k4tjsk-12">
          <mxGeometry x="254" y="410" width="50" height="30" as="geometry" />
        </mxCell>
        <mxCell id="FID3xfvM7FnyY_k4tjsk-8" value="256×64" style="text;html=1;align=center;verticalAlign=middle;resizable=0;points=[];autosize=1;strokeColor=none;fillColor=none;" vertex="1" parent="FID3xfvM7FnyY_k4tjsk-12">
          <mxGeometry x="300" y="76.5" width="60" height="30" as="geometry" />
        </mxCell>
        <mxCell id="FID3xfvM7FnyY_k4tjsk-19" value="" style="group" vertex="1" connectable="0" parent="1">
          <mxGeometry x="490" y="660" width="455.94000000000005" height="160" as="geometry" />
        </mxCell>
        <mxCell id="FID3xfvM7FnyY_k4tjsk-16" value="" style="group" vertex="1" connectable="0" parent="FID3xfvM7FnyY_k4tjsk-19">
          <mxGeometry y="30" width="455.94000000000005" height="100" as="geometry" />
        </mxCell>
        <mxCell id="FID3xfvM7FnyY_k4tjsk-13" value="" style="shape=image;verticalLabelPosition=bottom;labelBackgroundColor=default;verticalAlign=top;aspect=fixed;imageAspect=0;image=data:image/png,iVBORw0KGgoAAAANSUhEUgAAAUsAAAC6CAYAAAAnDm+WAAAgAElEQVR4nO2dTZrkOI6mKZlHZnbN0z1HqFvUHeYYc6Xe1rJuU7eIVe2nu6cyws2kXhgBEh/wCTQPz/qZARZhLv6CMoXxFQCS29evX8+vX7+2X375pf3/In/4wx/an//857+3Gv9PSN3Lz5O6l58nv8W9fGuttT/96U+f2ug/svzlL39prbX2xz/+8e+syT+/1L38PKl7+XnyW93L7evXr+fvf//79u//+39J0vRva9smqduczfOnNEnap7xn/gZ1e7kN+4ByNH3r/djrucy+WR120MFdsz5IvZ2U26duR93n522393rfsz5sPbzG9Lfb8468TUpo2a3n3bCNZ/qXXvfW89vtJg203qi9lk/8UuG+GzlPe32cNl0+j+zzsOUftv7jkM9nufth0+e/Dyj7cG2cJl3KH1DugHwt7+o1k27KaFmbfmL+ifms/HW6XM/fyoltNnvN8hv2pe3FfWE7ei9mbfDxQF2grTGG6/KN6Di6fSbsraSkpKQklTf5Q35Nt01+Vi0RyK/r1i5IQcv2FuQXHMhwTBGWQrBeQ11i1QKNTpcr49tRB6wdq+b68H1uJN2L3Idxz5PytM/r8u3kub5PT8Jhr+6Vwr0eQDVs0H836Y3AG6Cf8KU+IB8RQb+j0xSLtHRfEiRv4b19RVRJn3Vi1hlmc4nLnws1WwtuG1eF6uSKAd3xgrw/d1sSJaJxLFSb0i2JFlmWlJSULMgby8Bfdpz0r360KQERmEuF1YPZartENLFLrBEg4yHkgY2WYC2NotvOizyTX71RedeuCNhHHWG6T4b1ia1SSe1CzwPuId5SwTnsAxECdGYQHKnHgG8j6R+XH2+IEhHa5NL6vCTvw9s35wRv94P8Fn9e9gyN+HHG2nJbJZRLbliRZUlJScmCDJsl/MFI0pk0I6BKCJKZqE7IyOjOtRukERMs1yHp6xXbrdMK0GbYUePxDmizXvS0pwsK8uBnx8Nsmd7LDQ0himYEOv/Zvb06dQthuhuCOpxx+mm/PWej1PvpDWIMqD+PKGO5opqUEFll5ya+bi8kNHh74yRJqC69b2f0EdJxZrNktLpsP202HXUvsiwpKSlZEGqzbDCTbN09fG4xWdlf6WuMG+AjP/Ex1eBMJ33KLEZJ60IVVzSxe+Lck80unkg3nyk5u+1b7KnahwOmWEdnbluyDdtaHuIISY4CcfoIOCX1pr9Fzx2uaZ/4bQBCI+26Z9US5hYqg8KodU041cgnt9blRBlfYz1HhRDTSO2LKzrQa5vjbJyrt/GkFxOFrhlI2T1ncZjYXJFlSUlJyYJMcZZg/yE2PRULhXbSdwGWa8o4IMpsn3AdFVsps6LNlYn2Kv0Sc/UeSx+bqzHLBmSehSWuCNrxcKWT93bjdwo2S2bTDIXcNbRJarHMZknunKoe2CqZOLU/x2jJW8nbp3ZB0sarGl/aTcE2SYvGZtKg2BmWu2o/o1JO1nG95ZeEXq7IsqSkpGRBvM0SJnsHnMOI2YtxlnJO2WSlBtrmsFxGTLFNz1Lu2Wzbm85w1wTJ7IWp/TTSUz/jO5V62hO76kcYyDvBmeEQalBbJvGKh6SNxlxsS4pd2yaHTvQJpOLUXWxiOf6SI1YujogywrxORxJ1ZHrOZRnGWV3cM/26MnH7VhnbF6VQZnuMy2e2SpEiy5KSkpIFSVfwOM81oASaJ21aQkqnqxB1MYoTzMUdkaLJKuU+Yj7TLsFjq33QoVlijYUQYo7QtuCixz/UgIEg/US7IWkAF5nrg7RA4K7P12yTrJ0NMmycZUzAWMfZBU/7yeQV8MxIx9v5bMKJxjui4xL8JTpgRmaD5GO4LncpQKFsVyGmK2nOtVtkWVJSUrIgfgWPzKgaV/lMZc7BiB7ZrDMc7QTjnFjizMIqnc1z0ouNgwQBOJ1BlTy2MZi2qA7MVsluE6zoYXcxus+Ygn1ubmS2T3dNibPZPyIl8V4dkM5W6CBh4pfEDI/6rHJVmGqZuOckI82rfHgIaVHct5E042yUBNuc3XFOA1zz3uyXce1aidB+anVJ18Aj7YLuDdJ9PdtPkWVJSUnJgtSPZUlJScmCDAePe2OzCbg5sAu1mV99SbjIecJro3PsgBLXl+n1pQ7QptZd3ZGX6YChREEzfgNUMDNINkxlbvPkxfDzaCgsjMI7eGAcbnfgRYdPKNB76kzC1/Lk9Zv4mF6K2v9BYa+IosJxURBfcfF1kvXiX6LjdPZae61LXMa9yS47dtbSmV5zhm/r2hbCl4vG9YosS0pKShZkcvDEHoyMtKLfYLZKzVGMUKte93LQpTpATiiP/pBAVUafy8dM6CyMzpS4PJsho6ZPSM+cCQM4Y2cLC9GaD8O6kVa3DTEWP1cdPFCRLp9s0QNBPgk5oi6OKMkby8Wd/ih0UioBXLt8PjLtiEOHgSYuUWTOp6vnzoUhXatEdfEOG+Zk4drwA8oum17eKCPbYKPIsqSkpGRBggPL+nVPd6Exki62yyCsB0Nh3GFosPRQ7HupDnptc9BOGMGcp05LjDb1wi4qthi33ZwtF4nqiUH0UJnNrTn1oBaeOId9ysX4xL0xomRaoW3TGQovUHuVKB3tMkS9ZvVoWWxG96viKMX9geV5YrrhAxAkI053DQXpBr9zm26JIVBrQtDuGm6MLzf1xLHVFMj6dLWR2AmpFlmWlJSULIhb7ujsgwoIQGJXZiRIw5VkrorbHPi6ItYbRGl1n9Nc28SAiPYLZwfM7KQXlJgCAtZNcNVDXmxXtf3GNtlU6LES+ElsmbT/OSshR2cPxfLkk6kS5FEmXd28IrPhKUEx/gvIBkrSZX2Q73WIqRAJ6prmoCz2QRNA9zB3Tajt8qJGeJWQJ96fIsuSkpKSBaEHljFjnD8AzOMPzlwbYJYukSTr/yhRQUZm27xqwukIFONtmbYXT5Q2wdlp22TDtV2PlhObpSMIsaUQwoxslrwtoDQU1gcjSBdvGbR5gBZZXCXaLJ1yazbMSBV8LnwX/bs7Ilr3xMSwMKPFqBT73l25BLG45zoek62LRIgDivOppxrrOcrzOmHV0UR8H5j3u0E+Sh1YVlJSUvIDQlfwOA+z5mNBTA+IUYky0SbZgo0064Fj6seVSWgUVcRTWv3wLYlSMlnokwO1vYEnKMHqXd5uaZKhjjaCuJsYAqltEw2xUV35JK8zjmJJPgpLT93MbbpPMZaxOET29sDy5wKM3mh8YEBhJh3rQZ9XsZLuDiEBkjZdNaZj0r4tEHeOOtB4SkKUq3GYRZYlJSUlCzJ5wy0hDdqxdDeK9/LBNmFuVsBt3JBG2d5llAJ7e0Baw1M/Tw1i34w57gTcZVuwoXDytjqexjPPGoUZza2Vt3MaW6nDbJjhZA/3NmWsxNOcbwqMDU1/6tZsgP87Ph+Z7ZIIG1x0/Aizc5FGqfc8bJW3a2jOEZ+lMtYW9zRj+mk+R79+7J9mq7TFPTWT9s12ca7NmFYd5VPajftk+UWWJSUlJQvivOHumIiEAjedecYs7SmuV03WmU8FoX5Mt86GedG8tCjrpHdHxHZ8bqYDuymqOkxyljgjObSM9OGslCZddBDnMZxw0ShiXTiiMxvcKrT5PhMbplXC5lEKTTEPyq8lz8jh72Xc53iO4lJuPTYjsZ5/LJDsqGqRM9stCAmVqbT0dkHqHEnlHz5WYqbcZhN9mUWyjr+S9D4UWZaUlJQsiFsb3kgMJFu3HQqhUb6UF6iOwAg9OhZsfJbUrseDx2K42cutAY8p1/YWwPFUV3YNcjSBdsQY0KfvgniTUZlA1WFrFWq19HqTTjAWEjtj5EjjMOf28OFqH/xErzjotuD1PoHWNJ3ZxbRe0i62w4jUcBCUTcjH0y2Owf7liOrE/jxxe/3JfSLjY7bKzE4YZVKiJDeGEyUhUdJPkWVJSUnJglys4ImpUO1tUl7Ia56NWDDjKGEz4HLYIIEUnLJGRZXopNRsfTrOSgglbielZtMHuKKdNugTx8l0QTCC26XfBTawsMv7CY1Sz+DLZsPEK261eH7sfc4+DlsX6ZWiJSBYIhHU+BVccSVn6202/SBU4leocJVd3F9CmqhzRIi2L0JUgaSkiP8XtR4hUQeWSIVQbmrf/T8hRJnFTXKixDHYakWWJSUlJQsyreARQkLaiwlz1DPZpi22ixADILbfI2mW1jsNWsb2TfFC3pyXW2Yd0J2slmH2ECTOuU0320KspsaNkhvFiFvtjW1dkISW0CcUuCNs5/UozvKB4zldUXPNwFmf3QMy8jH46AAhRWkBKK1/uvtnq0/lEwq6IkxCmvKhOiYeZUqepP6ciXWQaodpm+jgdFrUde4pIb+MYilRJyRacZYlJSUlL4iPswSyYoSpEqS7A+ehrBCgxjzqKhspjyTay7F9K8WeKuVmXWDAaC8cOkh67DU/YHYZ0AfUB/cvtLkw2yMoqeWEcjow3XbryT7xPkh7VzGOKva7uHdEeENvuHR++CjPqL1xeeGxx5VKqxDryiGeIWHi/eLdMVLUnpDKMF01EuJCyhEdLCXOBJXpoERJaJeuzEmoD8vP43IqECL2cZcxmfp2QLfLe8DufUyGTgdohlO/1aHIsqSkpGRBfJxlFyVMZsNk5PmsZNMIjeLabuaydt5xtE3CeeRzM4MIY9cygo+UH8OEtvHTkWfsLTd66YwWk5/Mzu62wC33n/BWoDNmYCccWkHG8/rRlaDxljh7UzuifF54w/FVRBa3P7CtpBPNZzZLPgZHV/IJtktKKZpNKMVme7o5eWGMgfV1oU9Ca5jOyCpWBccVk2BGa1oblfIZLvuAPPfcu6qfQ5QiRZYlJSUlC5KeGy4/u842hx7Z+WfYrSO/JsepVciwUwLqoGulaTsTvSLFgPcfARn3sZTrG9oRNd3axQYFDuVO17Ylv2MTOrXlEe528J6r3fW0OpynHeusj6Rom6cQ5TP/1nf8ud3VUNp6gefnl1usJMpCzKcre8B3hV5u1iTFGPPh7YnND4OtavF0d17mc1udPD+ebhwHQ2N8vfWr6aAj3qjpglHcugceKY/cX9ttQ/vrVZsjn1DtRZtXY9EXnrBWSUlJSYkRv4IHCBN30xnsx+2E1L6J5OgMpdBmDIMt9Y7PqqBZkKigcZfEu40efLm+QTsIR2Y2Am8/7iqEe2u6dexAklpM8zcob/uJBHOkbbFZCkBqLORb/3wAcbqGs7eIOdHSeBpPqZJQLZZ2yDDnAVVcQ6oWEBJy8ZjMA83siPP/QLBVUmpz9BunU1ulszPCGOdxXZSJ2lwmSmyPlIvKeBXitlMbJSFvrFdkWVJSUrIg7gwe/VWl+1faZIyVNG1gCqwjR087xj4qpfWcHXcIIt7xmdDELohtILbhOT8njAsJkxH36Wyi4y6MFTYkLlLKIUqjsxh3UNL2u84Cf1p+fCPq5YYYzEcvc4Ny3+5Pl/TPUv69u6gFORGlvbGqlwvmZfku1PvtpvyPiUet/hETm1XX5qFNcYUML1RIb1PYdmardPRm0zM6ZPZDqxe5D0htqU5Ed6ZLm4TS6WtEydepX9crsiwpKSlZkCnO0tKfszvqNRDZZm15cxGHPkJ5uFMRtLGB7XLoSEYBRLkFa8OHB7QTJlERd1JH++Jw1FrEdqQdeIHRPqqkSKjWrQICCtQjasBVz2bxue17X5GzCfHJfbnZccjCHYdIYrOUzzecd4Eo0WxtFG1rguXc9TWZYnHrDb8mJx/reLo2bD60A4PF+hHNue+RUp0dIVu/TamPkJRtk/Vt74utxQmynYlO2FCg3+tEifmooy2A9YosS0pKShakfixLSkpKFiTY/Je9jrfwOt7+3RZ2x8U27APL2ddQVx76xG3XZmeTW4aoR0/IMGyfG3Ho6LWqbD1eY2wQ9D29n+gGGDIKvJfu9cCaF6StsZFGLwffhbwZb/21/DHpsEOaOLzedtvHBjHo7/2PL+jQkfd09gqMSoYhZvKJZhsQjClDce9VUpy8dk73Be+5Do+8LjqnyYn5cTlazwwDX6dBB9CFOZO8ruQVmjg8Iv34qyvT6fp1G/sZCVbHSO+sDnMmsT7ZcRzD2VtSUlJSkoqSJS4dzBw+g+Z68twqAKBuTuFdNqaCUiA4V9xWbdCO6hCByQlloGdcBomhULo0EYBKhG1YNgh2olxomxnHRdB5JteP7tHZTnHO9Pb7UsXdrZccbQ6ifF7ftfOjp1v6Fb/N9x5C9NYb3769PzO+9EdIwn7UA6aDEGX6x/TdaayUKmfTRRiGqeoUrczloD1LO60NovYbZiDlNbiGNh3FxZR4wPWVg8eTIaFdRqAuHcjMUe+ki+qA9HlNjFkwPktndMjSwj4TwnQE7YjTPx+tFVmWlJSULMkIStcZD8N2gBQI5cXHStg66fZuYHsUEt1xSzdmw8T8qetdVYoD2HEJpRLlacs1sHkeYbiSb3duc9wWsD3KTAgUi6a6YWeVcpZWdDMQ3GW4tXZKyFAnxCxwuUH6r+/31lpr/7L1R6cTZ7sL5b5Z5TUSHwyzsyCFCmHqhsP43CCfxJciDyAytCeaJnreA0gTQ3wYQbIlign8gp0wplW8pYzKsB633SKpeaJyxIy0luQjxTFbJrc3Tv+XKSEmOqTlbQeuWk8osiwpKSlZkGDzX6A2N3l3enGbWExlkkPPpgzbuNvMt8+wuFSRtRMsd0S4xe3M/Ka9QIjEljnoVtq1we4n6N7aWEo4NhgGknakibr3LmEsStxKJGLb9N9N2+I8CWz/ol5woVzRsffxBMu2b30ZpNgufxbbJXjH9Xjb3vA+zc9sN1s8+laJE3YD9qgVX2txoL4pn22wy4PTkTxZvvSJtMgp11O+bcMPMyZRFujtbZswdmsoNGUopRLidO28SJSBKst1vAprRBk9H60VWZaUlJQsycVyR0tOYylhM/nDDjfTHKPTmATZsRMPpTVLTBtsqLFDu/NBTsNzbnXCTTh0413QBcnzgL48STaTf5uawwPVnOddaE/aBBMexj5K595GCdQ4jWlsHXfGdYz2477oEQ/9ifnWC/wsmwN/68j5E9gsMVzgMe6QCnf/9mtdc2nzCUFKMbU7CiVD+mOq50iQECUnTCQvUBWBG4c+6ZJuc8bspI5EQXfXZ6yDpTk7Lt+XHSfb6u6jRDl/syxOkhHldEdDXUCV1GteZFlSUlKyIP4oXJkBcPs0tAdemR/hF1w3lQAqlRhEIVGMn/R9QmdKt0CY20xS2Lato333GMVjl/LSJdoy7bUCU//E4yXM6hmJUQSb41C26wTEOLaqa0Y3nEnZBhsPc4DXs7as5EEieu/XN9EVdej594dQW4/PFHRS7/jDVhSZUZvtbkw/YeAiznB49GKWIOXzcLbSQX6P/sfwhl8TJiPNB1Cvo8AjTrfDIUQptwE+kVb9Jh9r7c1vZidmYt9I1FCPHaeR05+kQsdBnns8Lug00nGkn3G6/oaUlJSUlKTivOGDn+ys42x/Kizde8yHWbQTFNhJXTlKnoizhDCntvGI253ko5ccRzkOMLN967ET4LKeZyMkHaE3Gl+JM5yu2967DrYcbvo77v/URhPyaV0HKAtEoLQidr7++cuXZ/p/dVvlv0pDv/z0/JRNgt9kzzfk4klx5kE/YEAD/+w14MgBNskDbJdKx8cg7oejrmbKImlS8mxS3+azcthva/P/A6nb4NOOBykvi6d0K37kNiIeTn+zTZBZhAEjRP+SYOszW2ZUR9MX+2DlHRVDwfEbWFJSUlKSyrQ23P76CsW5mD4SQxnFNgoRjuuMDG0LaIN09sfEhmnaSI5yQG+3Hn622z7H5r7SzmaukciMCAFCrOOYyew45CsROBMdhGo2PI2WrOyZPfwA86Otfi0mxftBvm+YXr/cIH5SbJWSLoSpXvLpzqgShCjV3ovY1mz+acsjeT3gM4ptFFul83KTOkiYJ5RHFdlKIPQymzJw7Tz1WB5pDnReX2U0dBl0ZvMoITpKw/S4HCPKcAWP/an6MFH6dq7rFVmWlJSULIiLs3Q73SiJWAocvGbtiv2iFwVPqKO8MyznvOBQb6wdt91FdlXn9SY7Hw2Lmo3lPDEmUu6PxD5qkKMq38vJLG4CLXuZ3pZuGgT2zt2StZr0wHB6Vxe8tP8s/+biL8f9kLS72iwtzT7g/rxJtoA25O/j1cN+ymqbR1eurylXTH62avpGQnTXB7FVdjJ9PKwnWz7vQH8jf1Cuqk0pNCZNtQFDOVYfCdSt456Hfdg+/O3BdOgjI8rEthn17dpOvNgftifiW1dQF22KNMazxX2M67ge5hdZlpSUlCyI288S7Yy44oXbH4dg/OSgz2bqyJGwsgOQUiys1MH12Eg3qpuQWgC5bpUMISWdfcUUJ/XBzqjhgm6npN7OIfUmPbUK2B7ttpTDrAfojCt43Ioe2ZPSzYGTNRiOpD06lb2JjRGIR8Yn+W994Gqr1MEJshKbpb6ZTDZL3VQT1nzfwet9J7bMuyXN4eVGyotjJ2fiRtsjxmYicSrUMgJ1lBfTHdoyTR1564EdkLyX/JookZhwZ3S2KsfUcWUWiTKhPZdOSDNsGwodo2BYfhT31Hqls0iRZUlJScmCOG+4o0C11cmlpT5PmmC/nAVoTHe+EcrTlT7xrLVb+Jm2QQRSm1aN6BpouU6I0OXLLAM6ymw/k2NrYyVPZD/VWRSo8w7XA9osUSMFPrTB/gmEeQvnwp7XCVPuqeyEvqvNVcYvOj7/+Ov7A/Lhy0A8xiNz52fjYe2lPn4SbZNAmkKSPf2uNsujjykmzjvYNp9NAZUizcl3ALTqCDMhT0zH2EiTJ7o1K6tEOcjUjoHZKKOd+7n32+qAujUgRyy3astEKlwp86rtEgkV2xcpsiwpKSlZEEeWuEnMcHZaokRH5rwEGGlTbZenLYAUp2ubd1tfKsoZM2jLnLSFa+eAVkXZzkVCa7vaLK9jQSUd2wk4ys1MkncDghS60fNupD4QtLbTL9GMKFqYXYf6PTy7U1pX/8h96V/Kr500xVsupz/e+pk734Hmzv65vQEF9n0vx6vJvIJHlDrhU4+U7J/xCp9DdAB7opxEiZ5ptV0C3T3biO2aSKEYb+l3VJf0w1wzogxtls2mMcr9rYgyOg+IkaEIt5PG9V4lzau2lvepTAg0Sy+yLCkpKVkQR5aOFJU8erqjQ+stn8uACXJaDSIJUE4oFghSdFByEhJV77iV+Rrpduzs3kkQ7IPDm211FBm7nRvVNJ2Tqbd/6rh36/4WnYV2xL6oUQPgBcdw1kEOz4IzcR76pnAYHdQGebOUce92v7M38n48d0b/n/tzDfh/9p3S9/6A/E7iKEWn2w2UDYxQiF/qWQcb5t1SrOx8JBT3DhQo15iuNs55bbi0hTRH1oQjOWo+IUZPlNjfuB1+hY5ti5/RExMjI0q/Xt1eR7rQ2EzNJ30v2iYZ1V2PC8p91AtO6okUWZaUlJQsyCBLWJGCNIiea93ncbPprQW2Sk23n7hzz5542tXbLe0Ckm66ambSBQlY29Tp1IxDvcFutZCl2WHr6w0KSYK3fCbTHXEdxiXUdwMqlXPCxX4owCVjuHkl+tiEfoYSUvYAr/dtE+rq5W6WcsVGKXbU//j1SZRnP3vndz/1vsRbLh2KzVKm67dpfkYcUc+5fDfWk370VUFClOLB/44EiSQJlIie69Zau4OXW/pwq36czfII84d5FSkwpsL4PKC4jPOsQ9tIXPxs895fi+vPdUQYATKqhY8Px2Ou6IB10WaJ9SXH9xnXL7IsKSkpWRC/65ASZf/E68Y+Z8OZkKJkWk8xmNi03LHF6Wof1eY69cCsh+3OdXR9pxpfbZwg1sW18mNXHvDQiyeb2Dhn56/0JftYDs85kLiY6nofuvs67EGJsZC49EfWed9CHYS0pWwz45Q7dz+eORLbKfT2L/3RER3+TydNIc/fKd320x9POP3xWdmmEa+4eL2/dWoVkhJixHjK78RGibbMmVrYunJnqzzRO95MuQHJYNOU8s2216D+/DezVQp4exskSReCAu84xkReecM/bcWOI037f9idZTTlYZ11W6Vt4SD1sDzWK7IsKSkpWRAlS9zXEMlxeMXBzgie3fnvAwjwgW2gV1zqn1AfYyCDPud68woenY2kyyPWG9e6+13an3IXO6Hki07ioRZdQKe5M139sds2hPaGl1/spr0PpRJNeLYjM63QIqwImnXQeyv3QeqgDqddqTPsxU/5a99F6D++PZX4t751+v/9/kyXLn/qNsovN30oGhUgTPRiIzE6ouw2TCTIEYcJK3omyr2DzXF4qePYTLR/yng17rRf+/0wkQZt+lzHea17vp7fg88DIcRV7zjaNm2e6SJYuZNd2z5d+4RIZ7ZcpdVG8kd2TK/Mlqm/fa2kpKSkJJXcZtnstcYpOuPc+HM4qYXitrCo/FKLbc2cnTPlI9XieTr4kz9fehtdrEO2wgd3PMI15bjLuXrfJwOJOII1RQhQ4yahrjQJn7rCCXYnkggFjc+Us3rOWQd77s8BG/6IDuo175iKuwz93Ldpf7/bddg/9ThNIcxtez5ix1+ftsufv4z9LLEvXHkjbd+BFDWfXCNJjnjM09yfmSzlDrnVPkiSQILMvuivbTvMkx3VZfGR0V6YV/WcrZKR69TeZ9sm8ZqRaqhLYpN0Z5wTgsR6zJY5ysn//ZKSkpKSVOrHsqSkpGRB9DVcXk3UsYEOEHgVxgDwbfIi7OD8wOV4O7xWigPohDCd87TldaMNLWdfdSHqxYwHHRQb/qHbwvU+wPmir8qgq45FA8WtDvNsdIcy8OY+xg2v2yiyVdspIUi9/F2XMNqg9NkM8n7a924NjZK21fkhYUf9FbnZtn7tDh7J//Kuu5+01lr7H/2AsndYLvnor+fPRPOhIs+ihAqJoKPnDq/hd132eIb5+Br+mN7nWMiQlB0hQTY/2xiDLXNkr+lzX+7VXSF3zeMAAB8qSURBVPPj13LMzza3wFfqA/KjMvAGH7zqX/fpnSrcBDCPbS7DHDjLr+ku3Saw1/Uiy5KSkpIFcaFDg5RiilPHBsQWzfTCSNJFDCXlJGwHl+YNQy7qKLrPrcZlxlZ0fTy6fNO2oQeXHfY+6GysgeO7HZMGlvvxYfiVzGRK4uIIIsHpSI56bpmSpr1v82bMG9x0dDoJjWlIUb9Tm5A5bNn2DTYNRsegpEu5t8lRhBsIs+3R0IGDFJhtzYbpeIBZ3KalTxdcDtSXOnzIFm8RDaEziQWZOwcNXGt7i46e1zb/RUqzzzIGvOchQizfk2VGhK/2Ac1QQi2yLCkpKVmQyWbZyQHIEW2SShCaDrTXBgnpJhxAdzusoRw2PFsP7aXYLtr+0Oa3UkYJCHY9dsdI6PjlPlnabbu1+Yb0rH33mQsI8wZB5bi5x9AJyVHksOmg61x3UIglZZFxooNsAtzDkPpGvAeGEvWt2cYSw+enHEMhY/s+hesMs7ENeXIB30CEaEe8wxZtaF/U5ZGEPOe/s6NsPfU1k+7I0RFnTJ5R6BC1PTobY1yeUR1S7SBM2+7UBLd7og40UHyxfEJ3K3XW7aLXOmE7RZYlJSUlCzLZLC0ZjYO4LM2pvQTIywAUIRtPhkJOreczu5eth3ZIbHefPfO46QaUGcdBSPneA9As0t2wv8rsBF5lqTedaKYzWk/S43TBzjmWi0q2JU8N4odxs7eA+X7IPdaNQoAs0Z4qRPnet0eT8Tzg2AkJQscFCEJOsuxxzkfbmpDhrqR5TYS6QQax2aGtEu2Oj3nzX+e9tm0x0sTySmtua7bentCMruxEGpzvyzWlIlnh5r2ryx1htaT7Xkxben3dJraA9LpMpPNfL9KqJ8y4LzbGIsuSkpKSD8ggS9kpADbelb+czbLnHsHP7e7K2p/wQYBChs2U2wEtsZ0NiVL6lSV6s/aoC7EXysbDSGMbIUq0fcr9ExJTO+s0feExsyfQ7bkjEYIHHuzKGJf6aHaDXiWNNkQ3+5V7NU61MvdnhwBStXsKUeGs3D+H19sS6zt42Z+6dL3l1Ag59Ezt5bYTtuUaLkG8g3LOFgrE9Wwr3nqNxU8yWyaWE6EbakC+yUuoK4unZDo4AtP2fD1HX4s2RtSxwbUrBx2i3dX+lfRNdGa2TGyf2TSLLEtKSkoWRMnyXVZ7NKQ6+TmOaU5sXrOlynljhZSaVup1ejp4ooV60NY5NgG2xKUOaaCjp/6ot7XJIiGijdIdmbvLWE4Ya2/nPKD+uC9KoWCDxFhOJW3oGwkaSXwQmSU0c2jaJqQn96dnSJ9dSXkwxubI1hYpcZa/9oakL0n/6/dnumzAIWPdp8BTXTUGdlSRbFWNtgNHQGAcJZIkxlLOeUh8zlbJvOHoqWZ2RUKm89AzeovsnHPfbCwvr7aZEnnZF9oyY4rbaTj2uW5ii2R1WT3XDiFtkSLLkpKSkgWZDizrv8pAkrI6ZHhU0WNt6fH5N9Dndk1Gj8OWU68u8bzLDHBDsgxozq/c6ddKiLZvJEq0YT76fbmRckiwsy5KV1L2gX2ILnZKc6QtnusdrsEOKzJ/N7iK6P3AvvoWbmecLvXf1Ubbn5PDHjshzerKsH6jZaXTU6/np9hN0ZuLBDjiMW06lkeidJ7p3v9sm0OCRM8wbvKLhNkgncVbekr0uuRe7LiN1pI+keZof5Mse8Fbs9UI1ZJrvd+QH6gyrh1JXpMnJUzXzxnmF1mWlJSULIhbwSPiYvh0o1lLFPKrbdcf2068V7dvTgvpSKnD84z5cUc7EFhrrZ2wW472eSDNIVla3ZGG0VbpPdhIe54A9cgGsD0KhSlJ61kVUq6ZMeB9usF9mUl1HExmaX/MwtZrPSjYrgHHdd1CVLIJsOzxe8h907eHeQWPtVXi2u3x7Em+jZsUpd+BMNELjCt+UOd5/BlhsrXd6A2nnmnSnjETSh4ox46sZbTnNtSlVBgT53yRrprBPhIiXbeFzjemjws6QwLk476ul9FxkWVJSUnJgrgVPMIa+uuNhKSzsrfJibhVHMSj/H6g59hSmaog7QI5PlA3OKZgUnfYHCHOEHXeiS1TgIiRJ5Ia2idt2dOURYrbwIY78p/p95P10b8bjZGUdvw4hSDlTr/BWm+NG4WYV1l1JAe3vT3E223b09nYOq41BrS1yeZIbJVsn0VGTtGa76g9pMi5LourzLzeo53+iTZOwJtLzzbpi1EX9oVj0ms4Cle7Axo0ec3mMU+zp7I4n9EdJ9LRcEapWI4R5riGfNZ+lyLLkpKSkgUJbJaWevw+ltZ2F+1nib/ou4UT/4uvnUHfQKKPO4thtLa+xxTL5wnwNGXcHpO6mznkA9XiSh7x8t6oh9oTt7YJRIxr3LfD3kChvaiP5+BsfzYfv7fn5zvcW93PcrP13nv1L2/2MDS/o7j1YIvO9+mtAWf2d4ifRHBAe6Ko9qpHGq/nPjCG87T/LXQ3+pHen6eBTGEfzIMdeV4PIGOksuwgs1EvprcsP7ITMpI8YdwZea56tPG+X7eZECK9D8n9KbIsKSkpeV3cTukAa7pbj8bqwazudiNq3o45YjVjIpTfdp/f009bHqlWqAXjNZ9t2rroaUaJbI2ttXYDunO7M3Xv7x1sm9Y0ascnq12UnMEOjOvwtZxrG+tZHefFNztSeL+Vt5sckdvHcbfrzGEIbes3W8/Y6RX70TvarsZzNi/DfmpneDx+FpalO282AAG1e3l74qjJSPABqIS2Rm4/VW3C9s4DdZz0hxH5M3hsnylBZjRIdJ7/dOOBvj4a4+jSWb7R/0WSbDbd68jas+0UWZaUlJQsSE6WWlQIs6cT0pxr+XjLZtJPqItt6640QJRYTqhW7WyTzQecubo2Gc+iGTvgWLKUYu9aztrgbt09/Hi3+z02KG/HH5MkUi162hvs3OPL2bFivKrR67CJt/5dCEkOyrPj0n0veyDl9x5/Oc3/tm/pD+JyZ0Gak0pIVDIO3Z0IVjQ5IgCaQxunoTkSe4erhEa6fRadV3uR/qKd0lEHv84c+iJjYPcDdWaeaquDbQtp3+lACBFtkZQwQ1WuqRbvPS3v3gKCh7L5+1tkWVJSUrIgQZzlU9BmB6F8buXHZspautA+1DZplRinFcb1kSjZGmj1Ak8dIFSxuEhPtTGVKSlJ/iMuJ+Rp929Em6Vdhy2xjjLRSVX0kt/g+Ey3IxLYLGfdti2ug6tn3Hp1Ie4+vX6/x8R1ytGU8F0hyc7jZich4j315AkrekAir3drsa2KeczR5ug8zm7H87yvqL05G0mZxSSyOEKNFlCCtAXGWEXHmOpmvfEOnxCzyeyFo4JtG/tkNlHTRNKHe0MhfcVPCydW+SiyLCkpKVmQsesQsT2oMBum5k8EBbMEepCHdxzKaVNCNRYl0EuOlDfGMtpDgpSVJ4y+8JwbZGe0O4rgDkhjTbS3WYp838Tj/MxAqhs7+ljS3hXeQHfdW3Qzmt9Mv/F4VX9YwaRtyHg6SR9vMqbn9bdOmg/ZXQjOIx+e71kXIEtClNmziR5rMKenKzmeVWNCQh2knLdZ2rbZ2vANrp29MKhLdwVKbJeZTqMao7ypTbw/aIO0KjldRBh5Y31G5JEOmXd7nE1l8z2BEh3FTu80KSkpKSlxEpzuiMI9qqaU2dmG2QNtHZzBBstZwmqwcxDSLPOSS2tWl05G2pmt+/5AgrQ67rofo9XJxT4Gtsw38GIPSgHaQ7sqUP0XWMftKBcRdhKxk45Z9nl97+O5QVylnrwJUQRISnruzw7fBcR1zk8YW4mC+VoTiBGZA1e+oNcXK5zB33Rtcv+Q+FEXg9f7wnXpkU1yTo92ov/RM7qR0HNbn20vzCM6aDmkU2hg0HD/JLqJXJ3Bc0Ieex4c3cMCMVaOpRdZlpSUlCyI2ykdf/EVUuDXG2ln/ll2XENsjZoNFKIzAdg8hx3NkifWbxvOEZ5yG9DvOFFS2sb6ioymQb5bO1Bwa60ffOh2Pted38V+CPQn5d7Uc21360GbLa66MTrsdmWOxCyK3IAMca342CvzWV9Oczz7CqaxRhpJu6dOuiIBPY74e8UYYEZGKkKUD9s+Ulx4Pra2GZMOPVMGdHVUSGhw6HRFULYsozqkNG/LhDGAvdX9Jw/bgPFD+ip5ZrbJK9r1NkqbwYazupcm6iA5RZYlJSUlC1I/liUlJSULMhw8GH7RGf1+2q22VCzJtyhzxI77V9JQ4PVZX8fUaAyvRviqDFu8PdMkZOU01ztsSCwhRd4pZV/+MHRIXr9GPWvBNgHh/VM225C+MURo3+3rKG4U4sJ/yGuryGxSkFCmd3Do6FZt5MgPDGcagdMYSG9vCB5xcSW4nDF4ATPpaCrKwlpGfclnPUx9EPMUvrrJKNmmwa1BOnklNDokoUHstTFrOzuWYq6gJjFw6GGbaMajr7qJTmwZ5ZUO9JU9e9WH+k4XKFdkWVJSUrIgSpZ+drEkhr/qV+JXI/IZvLWJRnAWxpAg1zvkBxTjjuqVQ69gflL6Apo9IR8P/MKll5FjR2SE9Ng6EkyuzhQJgoWwJHSqye0Sx4/OgE63IW7J6MOSpGzVhkd2yPPxdrOkLoH0P90s7XyBJZrOIdiyp8KLwgcMS76TLEQIH8e5ndzI3/vCTbLh/4enHHu/GAXN/bzsLEnGgH2sOmmiPvC4Yqd/RpAv1m+bL4O069oA5RmBAsxSh5F85UWWJSUlJQsyHStBIzZbawHVIeVMP+vsmFUmeKCZ27xCDYOEbmEmsHbCmCAx7Oahswy20cnB2Safn7o5CCiz7fYetMZDY07YGGOHuiOI/SlvENf0IJt54FZ38wgwcP02oqqf1xgypLbK/tnH8qUT5aH21m4T7TcUw5hmGkC7KG4AgaFk45uMn0msL+IoJ7AFugB2FEI1GP7lX6qQbhg1jn5xaSXqgOVGV7ZtT0wxUS4tByXB5S+TI6G9ltYbwr6j1bZGsn0O2O+UHt9C8ktKSkpKJvFB6SIxSA65wkUyw3ubIzZpf+LRzhjZJE37AcoCIDZ02h3u2N1ruyjbHs5tJhzMflJ3ePGRNMVeaikFyfIBYQAuIB50ikh7HMHx/Lw/rA4aIH/a8joGsW0qUR6mvWE3jdNbG7ZYRh269HLBUzoLs/Hhm0tEKCNQ3t7jFSKcy2EURnN9Qv6C/oxuWb2NlXP9sbFxOs3a9ORpaQ+XYrID3MzXwGg2s/FiPnkLwOgAfB6LLEtKSkoWxG3Rpr+6GEBIaPFKlHDArsPKuXRnJ7Ek5gSosbWYNq/SB0kCpckMSLreoKHIgz/Md3Zm25BuwZt9nvY4CSTOBn2h53mmJFR/bCwsbfZlkEqSti/97Kj585usc8RyMmbRObarmr6djdKOWwRn/g0IVahHxjZsVfY4itBOyLAV7ahZrON5mHqMtEb/Uw55VlmMJ6uXxh0S257Z4rBhnk1H4mwu3Y6BRiyQ+2+iBEAXZqPMdJI/DlLObb7cpciypKSkZEEmssRfYUs/mu7sIjlqMqLUNqwZZ2x0ALYmNisPXVqvx9t26UT80Re9Z7JBraNdmFFb8xs74FG1o2jcx63PbUpOUCCyC9p2vS3uAaurZCMN+Z5v4A1XElVbpqX9sYmwHWN0xDASkwiuktJD5nq+HlAH5I2bvN4VHaTD3r7YbS+Mn/jmMTztsa0RHzNHMcQWioephQI6sE7ZZjgoWTtzNsZVUlttw3yQhNydL4EZKOe+sIz+H4W2nV0Z2luMDS2yLCkpKVkQSpYilMBw5cpK3QxCA5ujyegCS6QdxZn6EpuJh3wxXdQ2maBnF43TBBocNrrZ/gP3DL3VOg603T3l3o+d1RhPQpCMMCO9b0CW72B7FDrDNeTuYDdpFwjyhnbW4DA5tEky+yYbD66hdiu6gAojWy4jHknVWDtClt57blsYBEnGcIFQ2ZPoIln0MLG4Dx5/6HvCVS7rXnD79HKPtP1OHkRH2zbqGNsYVw6qo30F7RVZlpSUlCyIWxvuxBkt3R+ttXg1xIYJYNhw5kSd+RMbp3dmzs2a2Vvj3rQKzGigmtZ0tlnbuc5mWt+SR0jcQDaMGXB1DXoUUSehPj82P+MqzQk5jsXuVgehU3KYmhTXNeWiw8N6sJE857H5HZ3sOET8Wne0H4ZDcGOWVtkxx7OweMAH6IbP1agf2yhxx6PwCVgkyiy+sMHz4L28sT3ydCWudLN9eDsw/id9fgw7IqM8T5hoL3Y/RfhF63eX2CQJabrnsJWUlJSUpDLIEqYM/XEmM+ylnGJzgykL7BM6y4Ibzs34ZOagxQJiQFpF+409hozL1uyshuvah6e255uZ0eogVIZ6nw8kb2br7LO50BzMpFfkhLSmMYiyQkfK9QPNZNyDGJ/5ejjdJvtjysChHyXUWSlLq8f5MNfexij1LBniMPFZRVKPjuUV7/0BK5vOEx8+1CWTmFrGHgXYz9xX/AaG8aTZaiP57vD4Xn2GGXIFSYy69LhYeO4R9tjhdKM/homjElWXQC07hjjo/JmPyTK2uFZJSUlJySxuBQ+jtcwUMdfDuCa00Z0w8zvqg8ll2BFj+w/OQvEKhGsUOGEiw+EyimlAlCLRQfVIBszeifYyZ6vUmdJ+aXeoN4htKKNpQKnaNu4AdTxpT+Mk4TvQVTKScO/96OqZ05SbdyFyR92qDpYcnZ10j+d4trJne9h83ZNz7vshOkmfto6jf2lrj78zp5vU758C2PH/O0uGbhWMO/I3pjVGULjBmOoU2gkbpMn/sbBpt0t/ZleMydrUpIKrrlyoM+RjPSRs7BLvX5FlSUlJyYJM3nDySw5TiyMuqR/VoW0vGnwc5bHZhs9CeV2bzTSjI1gkiqiRbFUITnneG25tw7giaG/+O7v3PoSu2CsF2gvf4Rhfob13PeLW6rRDMKx4079PFiHm9Rdxe2nCHppIJTIU3O8TCfWbrKSa+wI7KRP0cj+ckZvZWcNiDdeat8bthMyOenWWUNweob+orhzt63SAuswzj+PXGFB8q9jC9FlVAqda6AHxpUic7r+XfHdwXxlpFlmWlJSULMgbJrhZZnHWMj5OF9toZVud2V5ywX+gfFDX1+xjOWNEGLs0zaXXvKVow3Txo8SAjDZg1GWsKoqbaW2Kr0SdlHjsLKt097B9+DOH7GyOK1bm+3KccM9xJu8z/wN2LnocVnm0XePYhq1TbLi9/eDGKBmD0dJ9JcRTn50SgH2uPKpIaxqJILtRYcywPosxpdH3s0CZYc9EZXp6Qm/6dgjlMWb2iihHU/YNQu3vzk4av6FJOUbu+B9l/I71Z8KrVFJSUlKCkq/gAWEepwhfPKX2j0WT5cuEGMRwLcfDEc8sI05n93EowUg1og5LpwxL2O5LdKYMENXZvZAMkZChTfXIwumPTAap9XqTjW93q4dsr7onJu4MD32wp2SsMnp2/v0u8aiWxKK22blATjdCkqvr2iPBe49t40sBO3FxtJflx/20Nu+WdKmy2+knOw+IrTHfSP6zzWZ0uQNR4golt34fVjKNvk8yBqtdkWVJSUnJgjibZSZ0dnoBArM59iMmx6wtZlNJvdiryqCZ5ML+42y4sGqGbXjk7DpEFX9C5VTSra5CXey1Tt66P6VtUndbajGt6YoOjXUcHR5urbdtfNhcYyLAndAxLlXqvZ/3ns6JEmMwD7cWXnSw+MHOicdd7fnz5+tj/B+1bZMxZLGMw5O/draVaYusoolWrM2qNDf+M/pw9aJn3O2yhPmg6xCxecb2UfyOKs6ypKSk5AMyrQ1/yrplxcr8G/zZ5IjeTm+zsnSz0ueqjqsO9qVyrFMWHbDYuQMKtzRhLguzJexM5O8TUJ3eF7QjYn7r9VDLWZn4e3N2cbAZKdsd0gfYprQBe+aOrH+XVUSmntIE2CrB5urHb6lYm9R9QW15/K7wzKK5jCfm3oaz1dk20aY9BJFTvvszyr1sAddb4+ox9rVnvzN+9/NRku45qlXgvpAbw+yozmaJ/1eIziUlJSUlk0w2S/ReWdtWfkKjnytWiG/ucyQQDJSZkNoZ/bzFZzDW+bUqP1KO2Zxo1RcRHO2sweTsvgtm/sl23WFa4x6TWM7QgVAVevWJTid+wproDZ4TJEq5/o6Lo2f9iZ1rg9UhzPs9vOPdLqjt4HZG0O/8HRE7KNIrXU2DOuJKMcj3Hv9JoG0k7ux8LW0GdSSDcM/sRfNI4Oz3hq2Mc990Ev9dZFlSUlKyINQb7ve3tO//OLNEM8zy7JOQBHrUcpkbjGfTvIVrY8vKqZa0bUKYaTkyI6LQWNigNvOEeqjF+3HN7Im1zHTi9g8E3RwZybWjFejTwbCluzmb7WyOwohSbZ5uFLbciD8Em+jU7Q5efrYrFdv1f4wJdAVvMLOJGqsnfVZtG1heBGMflc7kfhxWJ6Rq3MWoNb+jldfRtpnK4u9PkWVJSUnJgtSPZUlJScmCjNfwF99TL1+tBf/de9JaV9zhsabb3DA1+tLKRFm4dmP7wOv5ZzqPovJLscascbIMUi/JOcfaN/YTNwNp184DdiQBuz30eA15/Q/ME86pglXRIaH3Wh6AqO3mFhqM0KpnxmPK38l3wo6JxeNKXg17c6a2E7+RoEpqWYsLHA1eoSEfN3AxphJpwx27EivrRrH4uo0mFt24I65eUlJSUjKL36INZy1XYL3xfPZZbciWp8R0gS2ehK6VSHWjBBUT5/PP15xCq6FXr7UZi/+eYebHIHQYH1uKiYetRf1joJceeXH6EnNfzLHDo5wcO/giLnwExk0fmJgomYoNNp6d5XHdRUDKcfksHclL6X+qx0J46JsCKInbNV49B8sCX5+jeBJilajqdMIIsyLLkpKSkgVxyx1FWEzoQqzop4ufvZLyQf6LYEnFLZFi7Qez2WoAL86crywEMM1cdLccGJ8Iu69O94sORhRSTKfOnph8l8xu6l8HfEOeVqGO34uvX8UEjdQ8ylt6nlujx4VoSIxTG8rZPqaEZzkgqUsbsJoxY0MohVd2cBkrD9dxfLwthRtyj63o4oebLZtmoVi13LGkpKTkA3IRlP5a+t9SMh0iD9pn6b18XyK6ZSYzNrMj1LgGXydOFuCees6JAcgRwQuvHtmWdKwpR/W0nC1B3wJWhBhIx/0TqomrbUlkiEnW44h7XrqLi7Rx3Ydep29ms9FSPuEuE1c7Hb/TBSgx8ZKbtlZXc2BPgJL8tyHWociypKSkZEFe3vz3n0H+Eej3Sgik5OWTjJVNXBlVpLGZm/kIbHLX7Wv+QlpGlNjZmbhsnaf+8j4RGys5XgRUGcWT/CvxyxRZo9dtvxpDsUJuqtvigMY3Ywe1SnOmLYVZZhdmbduM1bcfvO9FliUlJSULskyW7Ed4ZfZiM8DfQ1a8br9Z35+MvGhvZAfXv9QmIUy35RrE0S2fDBcG8dm8jHCcXcvF8hlNPQ1ffBGUckkfrq/kvmQ6RjqwjOz/5Kptl8XYPjNj2ySN9aTPjc330SPdQ32B6H7lEtEhVoV6/9n90vyeUGRZUlJSsiApWaaz1wvY+CqEfFQinelKJBK9/49AwZnQcEE3pqs7IsQEXu7su8qMn6zaC2Xz5WQXbV+kvwL4q3WpauiZTWh5RYdkD77JvprZCUGnyBOdEPXoM1EJY0eRwMk2fFeriShpMpsvkdXvtMiypKSkZEHoCp6GGZktYr4mntPfmuLCMbBZdbu8/KcQeh+Hce6F2q/16b29lkBesVOver9JqGIKqK+8yWR2MWrTXVWG3KcVGd/vtec4+y7cd5O094qebvVUbPIc4u4v2t1921nfLv26Gm8ProssS0pKShbE72fJJMsP3Hnu5AFGqZD8qq2B2iOvGkUdgRheGe6qcE+r7RvLr/a1VP7FRhlpfaZ9cJlaFsu5epkXNZBs55o8auC6r4+MhT4/i+V/xHa7Ks55TmyXTomF/3fZeD9C669IkWVJSUnJglx4wwmKse2XZ4xkNPeiNzOdSZ0NK5hTRK8sQI63EPe9KFd2FrI5iutzVXw84UIlJWyxc133+sMRDRH1/41lJd51dbfxj9rRlncxvyr74tvB6r6OS99R8oaSEfcoB15y7Heqp10i9fuiv4kUWZaUlJQsyESWmeUDp7cPYAF1pUI6mUGXV8DM0xqxnVBhfUM+PQn2FWEo/UHb5Uo5V0bBe21Aq7tQu37RS3rRxioJ0b4SXV756j571dVH2mUE9Sq1rvZpwDJ5JtnNfmX3qUuJfCGLb4Mo2f+P7OepyLKkpKRkQT6w69DCvJxhGLNluimCuKwzK0WY/EGf+6qdiE5vL/j3wNX8UXpdmmmdyTmuxVb20GY/QH0ftQe+1suUHOwglD0V2Smh6xELVrexssXr4usu9vHB+xbVywjys3VAG+ZvRfazZN+hpBdZlpSUlCzIAlmuRjfNkk0HDJ1WkXOx/ZfzovzEZf0pkkQY/AZeYwbxr3q5/xYz/6rn+HWzNI+jwDN1shrjyUXvrr2h/Px6/xezI+MO8I309Y8sOc0Fzz55AJZdGaTv7FdIpMiypKSkZEEWyPJHKO5H2/57yAcDy1y5FXmF1v9GgsEP9vITmuf3h5LU4i1lcbiRFi4/C1JljUK98bJ0TYV4YuNVWS8Z9fqW5j7ZKYZXZPpZtlls0RP9xZfNEBCyfzQaguX/N0B8ZTf9TJ8nAAAAAElFTkSuQmCC;" vertex="1" parent="FID3xfvM7FnyY_k4tjsk-16">
          <mxGeometry width="177.96" height="100" as="geometry" />
        </mxCell>
        <mxCell id="FID3xfvM7FnyY_k4tjsk-14" value="" style="shape=image;verticalLabelPosition=bottom;labelBackgroundColor=default;verticalAlign=top;aspect=fixed;imageAspect=0;image=data:image/png,iVBORw0KGgoAAAANSUhEUgAAAUsAAAC7CAYAAADsUrwzAAAgAElEQVR4nO2da8x26VXX177v53lPM+/MdHqgHGQGbGlJNCZiawRtTGyiRJogRARNtX4QjQrRxPhBYuQDGhNJDGkMkkIk1hakIRKiBA0JRPFAMYAFDbRUGNsyMNM5vYd53+dw39sPe/2vw39da1/X/bzPTAe6/h/efe/rvPd9P+/+7bXWdV3TU089NYuIfOQjH5F3vetd8vmid77znfLRj370cz2M3xOKe3l5int5ebrse7kpGw6FQqFQW0f48MEPfvBzOY5XVU8//bSIiHzgAx/4HI/kd7/iXl6e4l5enl6JeznhNfyJJ56QT3zH1y+Jk2aiEJ3jE9I3VG4pUZfJbS2fNl4f+gHpm146j4XK1+Pz+u5ecDvdO0/lG+nDdTl/tJw3hkaie518zgmd8p7mtTzK5LLIn51z8fIpfc/1Cu25TqfNfW9sdbm9nuO4o2K74h7ksu26Nn39fO7lm1tQjqVO48vmNnrpXju5XLvekjY7dUbz232IKUf5c/EaHgqFQiFfR9WZSwh1hgES+yHDi1eHGvMBivK5vEOUZT8p7VCi7JGie3GE3I370kDq9Xx50PJi1SXLwfyDNTc+TnTOBKj5wJxUnpGBj1SO+y3TNzSGvawL3y9jGd8XLbfZ18U3UhNW9ZtNv/uZzjV/5vT183laz5fUnp4Wv6MpUZbWJfrC39FM9zj1zfyGv0eUd76itvg3x5UmJ52L9Tq1/QRZhkKh0IAqsrSQYimtzsd5TW5VHSZEB4i4k1abrfKGNGnsZdqG2+yRoTj5o4TZsvVtem175weOwWu/WWalbKstk+6U9zQ3Khjyc578DA4eQZpz1CdCLZvnNr10jziBHoYwa4LaOjdsbp3NdRuz+TsaJMy5pjzOzySJ8nZcfOsZzjKV1tc18VcrbZn6LVDnNw9P7uCcPtdbE5nCZhkKhUJDOmqmOgRhk6fWQcsS8Tl2MM+OyNS68cpzswM2ywtT2YOeH1TnEvoq05loV+tQPqd7tsxRtexEjCOGEFOGkw8XrEOUru2y6Je93MYmyenUp1A+Eyi1t0n5NTWWZdjWuDEMtE6Mro0ynWsrCcAsa1m7p5YwRKl90T32qHVm+qP+8n1paJAc+2rTf+vtIsgyFAqFBkQ2S6JB4Q966tgJW6jh2TUtALXbZBo07ThEuSltli6NcQGv3EXPDyBLE/wp9Qc3MLXT58gYDk7np/GBiNkkS6eMCZRjcqT0ietpurFRNqjGs1W6pIk+W/5sEdk45AnPM/9miwHM+n1b+kRP9PeSwIiI0ZRnWsPfE1Fj9Vdd2z2FKDXfeiZkp030NbfT2SjKpFpqNj/Wni2z3VUXTacpyDIUCoVGtB5naSBl3YbV9IY79i0mwpxel+cno7F1GttoYyzDLniPznr5nfNNNZjBuk4bFx5LMQZ+RI7UKfO5Xtd46cXCNbJMHCXKdWyVnM6zcVJ/hBalXdGQJdGGsUGiwqbui8tNdE1k88z0mO9LmmGSvhr6nZP9L//E6u9i7pAmaHY31+RZtmK839xWGwiNmdljNzJprrMhv9Rwm5xAts1u+ZX0IMtQKBQakOMN5/P6qebZD9fqMLQIPyld+Kv7SPO8qf6GyhkKrge33ukoMbr055RrpR1KjKPlvbGMXIcpRxlsu3NJncq1mIGTQGuj3uzdvp2PvpNdEdS3gi9Mkl6M557Kz2SzZG+4G39Zn7a+onyrlUJhJ8RlagGYTa3NkolRzxO51vkifJ7rzHPdxkx4l+4eedZNOYr5LK66uvY8I6jFuXWWtUFyTa9PFv8R5PJBlqFQKDSg9Rk8RG9C6azWrBlu1NCoR62ex93ETNZjaY6sh6+jVOeV42WXvHLNsgfSqZffq7c6hs6YxCnP6aNa84YbGyMTIRPktl0OR7ZNYqycX6bxmFI+2qACG8dmybeFCZO9viXF4DKTbRFdzHU+LoP/vox3nAiTPM12HrelOUuKRKn0/wXHiJq541M7PeWndsqhmNcVqlP/Rr22R1X2FmQZCoVCA3K84esEYYGrQRYG4iYnndtqdmmI0ngH14izS5aXRZQeDZYXtKnL9GyQnM8EeWj9kTrd+yAk58tjSGk+5Nk26ZzzrBlDkhgDE6V3ru215nl7eRNlzHSebJR0I0w7KId8S3OZLEFtmq4ZMJMycfJQ2UaZ39gc4iRSLUeVR1m3KdSG97UbUmTb5kCcZfZiM1pTAXdNAfqt9mYAFf0EWYZCodCA4j/LUCgUGlBzuiPLW6qNX78mm1PzvFe4SLBvhPS6bcrx6zcPoCXKvGiguDjpa6/Ao6/TxmHjvPqbdjr5VR9kEhi9bs7ndr2ENWN7b2sGpHOweRoLvRqnaG1+/aZX5oYjI4+T3p/5NRttbihWiB08HErk/ElU74D0u08RVclBo8XSa/OkXc3aFb1eN15p6yHQ33JRzp8q6VxPuhyql8ZQX0vuc6rTH0Tp9TkN5qBqNkA+pjuGQqHQkJpB6auOmyWjfTr5hXq+A9sm1yeilPax+ZjrV6oTumTFFMfp3kUWeYeS46Ek6p1XdTxn0yhpS63REKKR0CEzdZDO9/BwIH1T5zNpIgOhRum8pLk6q7/WWtqJTOsz1aIYf1fUbOu2aRvJgZPIUc9TOjtqkEHptFBGDm4H9dVDWeOw/OdTtyFpDESgdFvIf2N9MSa9+OumRrxl3rqD7w2ioSDLUCgUGtClhA7lWhMXNcRnu+A2yXbCQ+Ox9OinldYjRw+du6E1Tn5zIQ2HKBPdbep0jzQ9gvRsmVWaQ5aHEmZqV+icHuNrD29v4Ys0tZAoDiTJtkxMf9woQYJAcT+x/ywvflF1xmKeg/jX6dg4c4R4u3qygTbyUhEKy4E9MH29mk82TBMSRGhlbJ/8d1q2AZL0AsIBaXQJs40V0lMiUUo35Rt5hoRdNF5n5t61yRRkGQqFQkMim+XUPDN0x0Dh2bCWzPJQtM0E6fTNtkrTXocK18qYCxwlKqd8z47YSusS4mC9TY9Ei+fig9pFXdtune2S5Nw48YLSOeicvdscdM42qB31g3I79oqLpBuT7JiOV5zLN6cIrsibNlnjXPXBmEMneL2R7pAm8onye0u+lWMZDWz3FtrIwFi343G6IVPpy992lxtxyNSj2kJBlqFQKDSg9kIaru2Jk9eepNb2sVanF1/J7dnl4RzaqRrxCLNHju4gl+PolMNWWpcYB8tvB9up0ohGhwmTnrHuD2dAvfjKPaWnJdmkPmfS3DFhUD6nV51NdE4EaeYaoppZL23sKI1ztI3rSF/Z8mHPQyBvd7YHom2QI1Mhmp+a5ZbLc6jduZyZc5z105g4B9zifl7qqh6FR69SlWqoAZhBlqFQKDSg9uK/SVPz1MRfNtI5ftLGTeK49njNBX2vNx+ZHlt1iJzshVAbHmm1x+rGUK7ljRKloUInf7syVlOG2mKCNMTpXC/E923NG+6RJXvHebZMQqupzt9R/CRsnSnd232sHH/PBgnPOuEd57Otk5td++k7Q4C9zy7RNlVDN97z9CZGBOrY8Frhp/ZPbdIx1OTJ1OquVeEkeAtylCc2BrNNpRN1nkNCV6i1rJCINRbSCIVCoSENxVl6D8Jces1W1W4rP0VwWhOk+zQzYxl5TNd92Kod8nRnrHTKN+dlX5QkHQpkgnTzi+ci2zdxvt3U6Z43vEeaxp5EN658mPfmgKcj2yaJKM9Bjhgb0tUdDnti2pZ2T8eiTFqCzbFVprHzdRFCmXhbIZFdtmyu87Nm73eeA14XNIsAp/I1eeXuUgeNwRCFEfr5WzsogdI89ZnG1iPOZuvO0IYLdAizrB1kGQqFQgNqrjpkHmoOcRo1AMq2NXHR1XL8lDa2S6+B6inNZR1i7BGlm++QZGv2zKFe7oNJslO+LOOVnbgtjN2zbTr3N53rcS1gzrNRJlvk5KQTUYJAz6mzHZEkU3RVRuqykCFJj0TJY29+m0Tczd8sHZnieE44NblxttLlVXhM1AmRZnP4ZFv0tqToE2OtDHlUvwGWtikHb537587wSc2wNz1WHQqFQqEhjW2FSwkZtDzELEo5kOHadVbtn60Gu4y60lcvnfMd4uRHjldvta0OMXI6E6OhRKLHbTGGbh2nLzTB9VwSF/rQMGoZ77emGxulzvWGDZK94xstDwKdyFtuxoryBT2mzdBo3rnd05bymdr4nMRL/IyQpfOzz7NqcF6XN3GVXI7U/Jt2vN0enfH6lYliab3KlOvRXtOe2CbANFQXHUdeb1bGNIXNMhQKhYZ0oThLQ5psF2lWaWMb20EYSP0tcfnoUU1DXcIcJKaezZLXuyzLuPGRDlF20/V4RPlHVK+sw17wLbXBtktDlNReap/Iiu/zEFmSTRLnaBvp50SQ/N2kyeEDXDCbD5RPa2Si2EzftzknQ9uG7w/ll5/5aGyXaGKi87pts6pQul019XG85VJW67Adz4urFP7gqIuWdbHVJum6R9e55P9P1ooHWYZCodCADoyzdIjMTc+JhjAd8nOJ8mDbZtnoIEl61+GR5KhXvLVK+fAMno5dsUeJfCzLHnEZpG/bbfYoN5FT5xncenx7cZU7WodyR7bGDZ2nMXDMI+W3CIJtlIkg+Qib5r59bsjRezNxvOLNsnTkqjQzx7ztpbbrCzc2znYxUk2U1k7IlDrpGcdZMpGCerXdxhgsMLa/UPMyQxSb2/Eu1LYbZBkKhUIDWrVZ5v+MiQ6RvwJ3657yBjF2SuZnFpXvxUK2eu3GaDrEaAxFBx7Lzx5B9vKNV9whS6bGo5IsKQ1tHm/r/F6b/XAAaarlit0i/hEJRIw7Is00Y2dXXwO0oT7WZhF5ad65IUodAxMok/ZMdDsUZ8mEXB/NnG/q2/OWe7s52tW8MkFyfKXZSZNvudTFUsrMOEuEybGU5WCYRu0HacmQZrNU2TDO81tCkGUoFAoNqLlSugde1qTXsLWwqLJX1MzMcWDOejtNR37jLhpzvle+d3Qot7WW5GicZaI7ojzPjmjskA2yPNq288yRbJd5Kg8de4S5ppmO+/o8ESfHVxJRntP5aVoivR5KgxjskMjzDoLcEFGl+exsw6S2eY58XhqIxlQNgupI++js4pgWlGeiJKMf/+S5+5aMKZbaNrZMY5ukS+jYPGutE2T3e3a3mEQDPpkGWYZCodCAmiuleymGKE3plRa6ZNjro0Mphu5a5R1M9YjyYNsk1eM9a1p5h84N53ncntcbVMi0WKVpmWOHJLFDYjIkbuhcKJ1J0/vOZuezSCbLHeVrn5vz5Xh1U5+n72BXV+vZKo9WPPPIgscd95aJco+VjXq/B4yB8xtxlvieCZCNuxo05xCTWZqTbJjpjS8NofZYV2105oJ7HumUa/4zcGydCfYwtlzAxHh661W66pAp21GLl4kgy1AoFBrQ2L7hnXQ//jInMjFaW0mbYu0QnKf2mjzQMdflXIdHxaOk2dqDxyNMb03Jrje8Y6s8KmiQSZLPXZL0zg8ly1KOrdIQJo5TfX6M++F4xb2ZHKmbIh2fcc/Y5jjTvU+rtXfiLtnGSXOmm79hzwtubG1MmKjueMEJ85Jnew24+M+iQ28pjpLJs2e7dGfdlH8/bRrNJevBzsa1zp16V2EVZBkKhUIDau8bbh50I4TAVUYJ0CnnnbtjWqNDz5bkHE15OrpD6BCmiD+HeXRGz+iMHSbK0mZ5rF87iHLLRMnkeOTkT5TfvbENeUSJ4zn1yedn7SGl5rQ8rnk+r4dcUgyv1r6FSxn3CW2St3zP36FDjN4bB3tqRVbsmtxH89QQZBpCyif7oik3V2f1ZdSEaOB3mNZo8N04zUZRx5udm/IQkume26f7H3vwhEKh0JiaM3hcqDNg5RdwmYLK5nITlW+f28EOkKebx8TokCc3wF7uUVqs6jhe7u5ujZt2/V7M5HFhs0xUyqToEaSX3rNlGuagYyn2fuOciXKifKnTcT+uoDlCLlBiWu2ouC9pXjqdJ8KkPvicZ/DwmptpBg8ZzlpvX0yUjD7eb5WBCRTIfwPptjho2ihrxd9r+9ysqM6eZlN7jTjrNs3QHC+543i3V+J2HSulh0Kh0JDiP8tQKBQaUB2UvvYqW5zx4hfe26pIEViaijivzY4t3M3ojLXt4PHHWad7r+VeH/zazc0U9Tac5ryyp4U1vNduev3ekrPGC1IXKV7J8fV7jpwj5+i9jvdew9O7sFjtKO+cjhyehHRHeHW+Qu9T/Ipd/gXgFZ23293RvU6v1xgSlR+drLCf2/ki4jp0BhevsNFJeD3lfHL0NKaBsjMo9TLuyakHZ66BB1uftts6bAx5+TdUq4Pv81JtTudTkGUoFAoNaSh0yEw/ouLWGVM8yVo+DimfgC5SUkEeuoOHzQBfp7HeAhseGK2FBjXzp0aenrvTHKd2vtlMzFlwIwWcN0KHug6cYzp6pMn5PUcPNDc+gxRBmEeUfua0tda25OmMvHgw7k8JubiXKLul454C39N3SAttGEcQO0888vTDdVaiy6tzJsbJIyUSl2v9dZkl2ogUJ3I+HbyghqFF6k8OgNBOOVvP+X+nqB9kGQqFQgPqbFgG0VOL0leNlm5ZzmU67RCEoTwuPjUKe8N08NdFS28Mjo2qRu720Vu6zV0E2Akd8oLTp3LxC48EQYqerZKJ0yPMXpB6iXPetEYOFUoYJ7V65ATbJKiPSLNcSAMLC2+p7IamNYIgDTl2vkO7XhqdNy5r7U+qbMOxPdoFNtAl/03X4Txlv4k6uQ+p+7DROkyrk545dOzRYvl3yTZKpw37t8r3ga5pAMCDLEOhUGhATW94BqP2Y403E+P6ZSYv22baNvBRP/HYaTw8bbI98HbZUaA0Y1i/Btuv2Asz6+c6pOku1dZZSGPD9Fh+9rzcTJB8RMS3R5w9r3gpJkmcw0bJ3u97erxK7Rh3d31MUQKwWZJ9UsTe03MiShDnOX0nhhQ7bztMlK37Q8Rn22RPel3MW/Zscrzp9k+gTHFsru6CFx0PdbdYe4zluGZDo5Q+LG8wdL9jumMoFAqNqW2z7MUT9tKleDLxE8+QZptSbScrtNYaS2vqmFeW6/hYS6eD9ZvT2JzxctujXvGUzov9MuWVn9kr7tker1D+VUpn0uQjP73XbJZMlHzD0MYJ1e+QpRBRnoMWi7EkooQXXPvcOfeevd6ujZJIyXz3bMMrrsdQqNTpDkiZn26CWG+OoUOu1UdqjMfgxIKCZmfK97fSdfpryVwfUa+5vnZ86hrNIj/IMhQKhQbUjrMUTtUngcmmdB8PG2XbJJWbcsjRtQeudd4gvLqzdbk06KTz2KZWmkMl7lHa5T3bZVrsg2e+iNiZO0ySnm0S5x5Z8hFj4PXTSrJkW+XpyrhFLEHinOMzHbJMW0TQVhHlZ5SZ+LzzFmDeYHrfqXFR27rWje30RcdeMUOmq9Nl9F8/BnNVLiA6GQNA6UYBDFS9aIUgy1AoFBrQ6txwzxvOFJiSG948u4lZu64ZhEeSbj2nfnOgTJqjdOcQBJOmd36RvhNJOvGVntfc3fKhHA/bFr24SyZGJstrVB75vLHZmmCDZAplGmWy9Iiys+UFx62K5Hu4de5t7/fQslGX+SzXK16keYTJbTuExV3xFBjzk23FKZIdzwfEupFkq+zt5UD/V8wHbSsxracfbAf1xxhkGQqFQgOqyDI7lLwn49Q6dehvah0apTzSNJjb7nPIc98dxKBGycIp3+rTux6PUpkgPRpaJUsvz5uR48VZXqdzEOZFBBr1nt9MlLB1Ysw8A4g9/Uhn225hP+2RZLrnZMM0vwtZz7cuXDpvyIuzzAXap6YrDw+pn9ZqPvxG6azU070ad9ZNKlDnl5fGk8M7XbiLCblec85PHQdZhkKh0IjacZYcLtVBsqZpzhTtUFhv5o7fMlVwh5k/dO2GPEaPTC9Q71C7V4I/ZwzeVrkWXctKnaO3KhHHWyL9QYiShbbZy80kyUeeS+7FaRKRVzGwTJA7Kus06b0NeG80nle8Kkd5LK/uChiutsNe8YrmqE4XiMfor1ferjW5VtXrszeW9fycG3GWoVAoNKSmzRJK/6vyqsKcn85baFk/Vlf4zymxTrVd2jugKW/Mtnynb9Puyn0xdMt9OEe2WdpO6djyhvfI0lt1COc8P/syxTR7RunswfdmLDnecI42KD+735GTbsqLkz5KOWKJ0v1Jckbby20ILP9xew37ciGOMtj+564MdIE4S7euh9YXI8zyLMgyFAqFBlSR5Y998raIiGz0CQtSPFJP63uefHjJ1/L8n/fc+kwmEbPaukyUXx+5nD310luJHVLw5HreO+nNdh0q3VC+W8/pq2urLOt59jwvxpFJlFcpeiXEfXGfDjEOXX/rXOz35m5xzG30fj/r2fm7nW2a+X33iBN/T05cpjuZHNkrb2QOrfGamT4QrtMdzxHPpaaqVLMpA6+D5Gna8fODLEOhUGhAFVme6Pp92039dDnTVVc+8vGXlkoao4ZSx7qSy1FR7z1PPiQi5f/G64+CjUOY+SFOKcZ7x+mF+Mno2VKMLaqLBNRPhwrXK9dF0xg2lO711aOcqfG5d2SvOKe/GuLnuVkA1DkKlXOOU+u+sPi35ZTrfjdeuRYFOpO7Wa6z3LPdOUMbCvmcKIsJ0AxicAyMhSuD8AIoZ2csblPrlNvKD7IMhUKhAVVkeXq+xJXhqbSl2MeNfjjXPUdAoLvkLc9tfeQTt6oyaBP0+ee+/Ka2KVpuOfLM3rQi4p7sIwksproi8svHgG9ApbpIJwKdqZ5p1zlP6Q1blFe355xs2ZSaGrGnDdrcTPnPhTzCHPAsV+Xomtfud8/M6dgL7bnT9yg9rvWRTuu2Dndy90jrkLpsN30VdGEvuNceqmV7cpBlKBQKDagiy/tKliDI5A1PdCh6nKpyG0oXyVS6VU86bJIwwX34116s2kAf8MR/01sW8pw1ntDdThsdJqIk0izlPcHxyOCFbdhLmUiU0vkck05mrKHY6hgXoqdntCf1jlb2Zhut+6A85Al66NSMUfx9JeStOsQ6kDQrM+FKeMfI+YOWa6pDRoMkZb85pT+qzy9VVdkLfu/WMz3aHv1dSeNyqWWu6sZ0MjkOjCXIMhQKhQZUkeWZesM35M071dMjIiQud1SsDZgo9LymT9TZUlwgqh7rhx/83y9U5dHelaNtVf+9b39M8wfsQEyQnlBuR8bMPe3bgqcS9pFO+Zqu1/70b9xJTb/50WWlnglG2us6Q+Wazo7BNOs3aJtnRKdnMPLu6z6xSyEm2QypR4447pzzV0PndM6E6ZEmpztUPLc+O7bttYgLkbx/uFGHWlI/jXJd4Kl/94YUuRmeb03nTJ5L2rjHeG3IbjABZXB/7fY8InTSu87vvrE3yDIUCoUGVNss1W7GcZagtjOiQ/wvDTvj6ZSf7myjLKlTpHRm17bK+wKPPOXrEWPE+ff+0rNL+0pqeEKenuexfNs731xfdc/7iIeLccCSr97AjRLX/aXcf1M6/uLX3UhNfOaFl6vxv+mRpc7Ry7r3zE1Fy/sLQf/sR39DRETe/MhCpG/5+rcu+diBkPeUwXUf8R405RPTs//xOR95BSBeCegy5fXF61b2rkXofIAsTTQE3hxm57zTlfmdDNj+Rs3FzoKN7tBS+lydr3Xfu5x8JMr1yJMq9u9GZVhu9j2qmejV1vdpOcgyFAqFBlTbLPfLU/l8X9PcLLUtM1kbYX80e21kT3o2tdU2JZDkhjAP3nM8fQzloj4RaYrnpPZFRL7n555u1oEN9q+/Q8kTnueebTN5wTl9OfzCx5cY01v3l5Vybt47S0UQk3rjynLrT5U0n3zTI0sBrfMf/8f/FRGR23r+7O37IiLy/Id+RUREfufWPRERuX68tPPI9cVY+c5/8Cdo8EyFInkGjkeSTG+gOl75Bzsx4l5f5swe9HVK5x5hMml2bJX6W8926TKvQ5AeKZp8oj5ER/B505g3il11W+aqUzNMVPW5vYSi487lcx0fitvk6dlLW7ZSjwS570MJ0v5KLGEGWYZCodCA4j/LUCgUGlC9kMZZvZAGe9PzDgZ45VXHjoatlIv/cqD6TK8kWwpCn/Ee4Dh2ODJoY5xQ9ViPt1OR1/bo7LXwP/7p3xSR7CR6SZ0tD11dbs+ZXt93vudt9SDw1pnerpZ+/t/zd0VE5I3qrHkBzhsRuXq81ctcXic3+jp+995S5sc/9mkREXnx5ZPq+hEydVWPD19dXrt/W1/HXz5d2vvJ7/gpEcmv+SiP13QRka/8e1+rnzgkCBfCr9tbSveWcuttOjaiEzqe0pFNAp4zqnNEqFX5Fo5Xcjc6iV7Ln9IxvlnvU3rnndv1XAcSlSvTuu/AbeeJbZpeN7u+KRs61B/C+qutd7R9e+332+hptHyr/SDLUCgUGlBFluf6ZN0nh00tTGHEUxlPnNaGZnCewKHBwejnnvNExaSI9nhMHBiP85MilpmdRdlBtRxx3c/dWUjh8YcWQgIRPqSU9u0//DEREXlYiRPXtlcieN8f+/0iIvLk6x/Wa1zaBbEu17F8vqskOM/L8Y46cl7Wgd/V45bKgyAR3A6C/OzdxQF0rH3dOK7J8tb9TLe3v+vHq+t8y9u/cMn42nfhzugRN7G3wC6EL9Xb+oEcHlUfIMUTOmcHDzt6cN4LKaIjO3HKNDh/cA4KBXkqUZ7o7+MqJgYY3xKTZscRVP64u2Xr/DR0vhQDuW3C5HplcLuhMY9KnSE71S98vtamPa4Hunv5Wfn/nSDLUCgUGtD6QhoEDiAzfrhh24mKF4gcOdwI4s3QWOhTgSovC0eBvSBPPDlLmybId0+Uizj5fB1LwvN3F3KAfRE2yEd1aiLshOjhmlLc+3/6V6t2OMxJROR9X/2WpY6GKcH2iGXvEG6E45bCnBBsD3vqFe3r0Wv12ECouAaEGIlkasViz2/R8CW7nSyoDfcaz9b7UottnnvfQDQAACAASURBVLBdcmiRULnyc48w2YbJweqDweugw3M6ihQEqUeEfP3q7arsXf19PKfHL93r9fIfxqjtc804xwRM6fhNJxNsusy5qm6PMx15qPk72yMsiS/LXOZcD3UF4uu+6BLTWFoB4l5IUDuY/FAZKk7NxhJtoVAoNCRa/Hd5RvB6AbwIMNsod7BxFo8OXr6N/7/n50AOgEdGXcMQKbVztrIFBAe242nKtMt2VUytvKoUeKLkfaLpN5TuXlJP9hUtlwhde8C2GyIi//I//9qShumZdB08BhAlCPFIpzd+Smn3Cx+9oWNb0h9Vr/fTLy2EeUXHev8oB6U/rIt2bDcLGT2rNPpGs0AGP0tBlNieVonq5z68HP/oN2g6L37BVzk38pgsR22ZTJReYL0eQZI7QimRjEC/+IJ2ufR1Rwnyk88uhIl7fPv+0ufP/MynRETkT371F9XtMFq56Rhiw37q0ChO8+XMel7ngzB3TJIcFDC367WG7x1neoPz7IgeLFtbJdNj3w7qBaPPs0ekUJtMS09/kGUoFAoNqCJLEBI8rNBOaee2elQfvbGQBe8WWdoJ8//ItU2S7aFsx2B6zcBY06CpILBHcoG8ri6KwiO9Rx08TfUccaO8+AfafkRtl/B2w5t+tqM4Va1Xki3o9HRT2zUxtq0SZ9p+S+ui7WMsUafTR596bqGdL3hkIcxrSqD31Mh7pu2dFdP6QB9v1SmWL2hMpyVL0JvDCD/yw8vxoeV+fOr93y0i+ffzmP5OtpjKiaiAd//Fog/P5ojxYgw7Ou/ZLslWCQTDJfyvZfFpuQtiFZHnlqX0sNgJpprChv24Xifsyb8Netc3hw/9h18XEZG/9O4ntS8PxaQ6/8n/s5DsriDLP/vWR5t152SjpKOxYbaJckckyvXYptlKm52yBpyNDbOmOvbAC92e1SABptJ0XveZ5Jg0PaplzRLe8FAoFBrS9NRTT80iIk888YR8zR/4ShEpLExEYnlGCxbcWErCpred8v+9+B8+zdSZYM+QKh2PgImIk+Mn04D1iHZ4phCPeemi7gNKO1CAkKlL2BVBjmW8pEiOy3z9w1e1nfpxd6+x5F22l9Y23Ylsld52GyDHbEeuPftf8rqHquv/rRdfrq6lbOMdT75BRET+1HfB1shxkZipc0z5C2Hd/8EfFRGRj336eRHJlILfCQgT8Zw4v1a+uTy2EPFOqW773r+gGRxX6S3q4cVb5rhSERFRu6Kcar4uTPLMMy+lIi9q3OQdjRZAbCqiB/A9w2b9knrL8R1+Ru8101oGzOUD7gfK4TvGLC2R/AaC3wNief/82x6r2sohoLBZ1p7rZLNk2yXbNok05xWyzDZKJkrOr+t5hGm86lxesry6M+Wn8p1yxk66QqhBlqFQKDSgyjh581od84enGmyZ8A6zvfH+Wf30K8uAcG5cwXYQsKEt+aDSHYwpCe/UMy81aSXbZJohtKSm//X1/HyX7W/JHkjUhutkhsV17eg+cLQACAHlsS3H7RMQh6XjbLvVMREhwrSG9HMsQTfVY0g0T9tz3FLauaaUgkWDP/XC3TQGvBnA9mbjKnkJN7YyLedPv7SQFOJQQRAgVxxBXI/fWO5XSblv1+Mnn1mWtTv7Z98nIvl3gznt2G7kDX/j67QGbI3OIsE/rST5/EKsd3QMLytZghrvnebfyd3T5frv0iwqEOWd+zVx8kLUj+jfz6f1Xp/vazoBveHviSnmzY/kRaJxL/Fd4X584JeeWe4HLXaNP71vUFsne6Z3VI694F5cZlmXCZmvi6+HiXOU8tZocaYPo21wfZ8ocaz/vwmbZSgUCg2qIkt4/eCRxZMS3l8vkjH9x18UwEfMr96fLIXwRAQhJRueVriu9ixQKsrjmFYpoicungAcU1mOZa+PU6a5tB+ZXscx7ERaD0/dRIVaAXYltI8ZHdnjz88vGw1w3rNd7tv5IA54YnF/QDWwXWIE8I6LiOyOtpR2D6PTIz9/20dQLOa147uEFxnz0jHGW0pUIE6RbN9ELOonfutWdZ3XUnypxpt+1w8t9fR3guvG/fyKJ98oIiLndxab5JH+dhFb+vHfWWyUp3r/Xi4WEYCNGfcW59dOtlU6CBOLZeONAjPZTlN0RG273JP9kGfR/LrStUiO5fys2sVh78VvDrSL3xPuww9+bNlm5abO6PozX3azuj/eDB4bb7lis8T4NZ9tjJ5NM3u7HZukYy+sbJZeWZNORypg07l9KidBlqFQKDSkiiyv09MaTxDQHMjgOsVhglBAoCL5f+TXIdYuzd1e0q8ctbfdRcwfbJVsF0JxEMdG4w2xKg+o8dFiLC/eQ5zcsr7ky7t6Zg5GAG/3vbN6bOl+6BzZZ+hpf1dtlBjclGI+a3It81qxqWWdnUOUPMOHbcNYx/OzSlZfoDbLN+lRROR1ajv8dLJj4tuC/Y6D0tprQsI2+5KSJLzEICxUx+8FY8Ubi4jI9eM71XXBvnlE3n9e13NDvwNQ7HN3Pq33QSMZlP5A2rCZ39TyJVmg7d9Uzzwo7rr2gbckREecUnztNbX14q0JBIn8dJeZLPdER5JnYD2SCLOej38HvzkVvn/87mFH/OAvL+3w+rBf/7bHRSR/0zuixdL/4E9AahOmP529xrjcBREotWffz3ybJOcPk6TJ1zfYgnKDLEOhUGhAFSLCO8pWPxDBYzfg/V3+t8WKOXiK7xrecBDf1SKGTCTPdcZTGk+81yv95bjM+ikMEntOn7Q8T31WO+Hzd/OTGKOCbe2EVleaiQRBbW94eBlLuRakSLbBwauZr7luJ9tj8xj56cRldAprmk3kbQkMrzmohQkc1wBv75Vifjq+p+/8AY1pPKvJWI5wxzZ0rMkScYknZ1hrc1ddE2gHa3Diu7tzP1MRYhWxqjzuKV8vaBVvDrB13r6/nCOSA+f4jjNxqvdcLxHrfT5zO/9OELGBI4jylO7xuUOK+C5Ad9hUDvfjPNksaRUfIs3yM+b843p8ooKXf7mfv09JGmPH3yx+Fx/+5cWrzmsy4Jd6s6B/vHF9zRffqMraNTD5nMmzTu/ZFVs7Bvs2SwrR4fJu/bZmKhA2y1AoFBpURZb71n/lkoHjedhN9Bw2HDyNSjshaAxpaBt2zWdu12tCvllXzwGtwMkNjyvoFfUzgbYHW8ZmwaP48mm9Gs6evdUEUJ9V6sDTmcMmmWo3GyLKVC73s0tmzNrmmM2boNP6etgOynPoU9wmzfjJ63/m5yLucZrNghhX0ATO8TawbZMlvN5Y+egXP/V8NZYUXbCtKbG0U4OckAI7MGYewa58lOIKl3KgPHi5YT+FBxr18LtjWyfObxeUq+Gi6d7ybBZ8rw/pGxXeblAOdsSr9KbVnVXT+LvredDZbgjh9BM6M+kxim3F3k7bZONWG+41/FdQ+wqWNq5U47dzwR1bJcpLXY5JskeazS1xje1xXk2XDnl6hFkWDLIMhUKhAdVkaZbqWMTkiGLlU1lE5PmX8wou8HjiiQhPOjyn24xGVd8v3gORLvW/SOcOwzuY9r/Rdu+d1XvVtDxosIcxOePsiPAUnsf66sQ8fjZEhSkek4izIlJtI3nFzapJSqdTu1zPlon7eDzVsZTn22wz3mzO6us5pdXK4c1G8B3snSDMaaGOb/mebxQRke/9a0vs41d8wbK60C9/ZllFB9/FyRnZHYv7Deq6TfZkXC+oHr+XKzRz6QWNbc22OaH7gyPGoGuOwnNfrCGQx7U08qabSwTBs/p7YFssfnNXjvRt5gTxl7UN05t3zbbK8s+PqRQEjes1s2McCntW344QlYIY0cmswK/2WMzvLyJe0nXsbxZ3xyfKFEfplaN0S5J1fimvbMp3bZbWBtnSGmEGWYZCodCAKrKEneuGegFv65MSXu8XX6aVXFTwnJUAhbJ4woNKkwdZ+7p5VddCfP6ulIKXFDbL1+k8bKxWjb54XyDMbKhElIGnB2bi5DUCl3R4wTdk/0zz0fURiad2uu70gWyWBVpy2Q0/TcmOOpHNkldXYgLdUAc77DNUtHl6ronYYyYBlZbKG8QvR5AmCBPpeqs/+ewy8+RNSvD39HezJ1p+8pGFTOANFsmzntA1r7YDSke8IcrBo36P1ivge842Xm737i7bsXn2F1YfglccbcLjDDJExAfOYRs/J3I0dshEhXX6co+WI/6OMIZzejvila4MtWnCOZGqhgyntZlA2seN9U/RZlpcftD2aEiSyzvlUCCNoLhkj0qpqimf89vs2LVZSpBlKBQKDam5b/it4qkiku2N3s6KyL/ZmMGDD3hCPpL2LznT9HrGDvmujCeenwDneNxpOUN7xQn6eFzpE7GYsOdkklSCONF9oTHbQx2Ex47Xm2espNi48n7VZrFEX1OyOdbXPdE5Hp28ChPbMCed2bRN3vI8hhQVAMqH15sXCYWNEudnGJSmK3l99/d/i4iIfNtf+TdL+2pHZk89PLTVuqJ0ffiNndEsqrPdMkZescdZ9tTM/88rTkmVXhJUflup1yEA8eH7pKEnoRzsp0yQ6Tvnedm0OtFStM7DW95NfcvDfWDPNDrhvz/QPLzjPCMItnDMiCopF/fIm4HjkSITIkOda8N0iLQsk8/bZYcJ0rN96rH8KwuyDIVCoQFVZOn8Z5zERMn/m9+6Z22a8OKBZmCLJMBKnxJROhTrkUT2Mgt9yHSGQtjNEI0hDpObRl+31S/ONMPnyQ6GlWw0/Voxe+mUvL1sp2Gi5LGk4lM7f0dEgnTEQoqIfPh7v6lu5Iy2+ks2yz2dU6cgz+N6v3WOnTQxodWe7mi6Jj+2D3+WZmzxHvAg9C3dKLZDsle8RZaTzobBGBBRkIG7jrxI8/n1nEnMzKWmueDsLa7T6jZeJKJkgvLWkHz+7lIPMZPe3xXoGX6K5X5Q22mM7b6sV5vPvfL4m2jnl2n5zaw+9wjR956LI4whjynIMhQKhQZUk6XrEyI3stSniRJLmtMjbJN4UqXYTCYjPWL3wlOyD6VyqZMa63Kq8wgp2yD7H2aNlKtmV+VYTH3EyZlQFiEWtKrTMooUfbIXnPP5ieiRJ9I/U6yULol807Lsy5EJklZhL5ZK0g/YNnMZDDyuZ7SiPNP+tMuDTUSJEE4thPUtzx17md39Uy+FvN1sy031aX0AEUvjxqOOutPOSV8+JY8z2fQsae6b+SKWiJB3PUWq1LGyZp+bVL9+5WIi5Z/hib5llEElKPPhX3paRES++Q99Yd2HoG2ct8fC7Xk2T6H8qu6KPbPVN9fjMfCbndfeJGGzDIVCoSHFf5ahUCg0oEEHDyE7v/KZD+XHpTBev1MbDk6XE/hzbZGrx/V2FDxofp2oF/WoJy6m8Bw9v3tiX5PLRr3X8RzuVL9+8/2Y6kp1G57TiC5oEk6vC/BTL79+NfLh0EFkMoLNNazrPe9bQoDgqMBiwT/0fbqkG5kr4ODBiNJraH0JRUA9/zry9hmYfneuUzB5OTTzOm1ehdFu/RpuFx6xr/GtJfVabWPLZxuuVVUzv1UbtF3/EZRmsNaruYgNZ7IOj7pN8+qv9TDJA4uBIFxus13y6+UW620zeq/b/rlTXtr56dIa/6/4r+P136SpVzfdD2IvygVZhkKh0IDIwUNiNHALrqlNfsSHhdOl3VUmzpokcgN1+RcbYUztkZkmzKAAYEx5TJQcUJ7bbaFpXTeDYu3Ysbdlqsvj/nKfGGsijkIgwzTwtJKwiOQppmgjTVG9pQulpAU1lsO73/shEcnUg4kClvLq9JbOKZh8R68B81xvkWwdYrU4dIi3Im6JY/OZHE/n2oG1oTGnGH4ly7TJHv3g9kSa5eQFS0BLSlqajoLTUf4xfaN6IYUY1e1gWUUsVMPB7FjirlzOEA7Q3ZbGS3Rnpy1qeodAhc699quyfOS/hx4xrrTt5QdZhkKh0IDIZun8P0u2tzGwZAwDATmP9F6jjiFwnpvJKahdxD5dPaiYqcDkPJ6Ykue5vtbZ3C9rdEk2ytRWXZlJO9nREtW0DcemnlC6iAioYUPTGbGQii6Dd4sCoL/u2z4iIiL//p9/Y11PdXLG4V5toixvK1NbWoJO89k+5m0FYkhdP5ynuHrPDpnTeak9yKPTZG+lazBUjI3/pBb/5FtLJPKyguf75R5jCTVkYzEbbM+br6EmLb6vPGU3LVRSbIiWba9XqjrDNsnuebs9qHVfLPkdRpSmvV5+2CxDoVBoTG1v+Io9Z1z1f/2pSXeCe/107ppLO0+I1lL9Ri5igl6c4kxIIKfOU00kUwfbQVE62Yf28AYv6XtGaKZlslFCgKJy+9l3/M1/KyIiP//+b6oKvfNvL+mYEocg87TVRzLaKUHqo/ZlLJNmrhZE2fZYi/hPcn4xSVMF071nsqTqZC/NY0F+bRsu8/i3g22JbZuLeDtjJs4d0Rv3l2RfQNxtI7Bty8O6HQRsl1gIA4tkIxLETot0KBDH4h6c6AoymAppl16rE+wGZVSeSJSvzSPOsgz/eY/8udd9ef8PtRNmCbIMhUKhIR21Etm+kdK9VlaMmUyKvtrExADmt+PjMI+BgNAfi9cFGzfTE7BNGFXLzhMNZe+enFG6ca1Xg2BbkyWy5fjC3RwdkGxwsDFqGRAVFsTgTtMyb5i+qdRrFmXAkQbXnqJIdZ17PDNZq2Dj9LZ0TfZSujHTyi+J2zhPfSCd2vLsoolU63NrLx346zCUtnzAIsho6r7SH7b6NfGYKnjFX/fQ8haRtgpW7YoKoHlESfzAR58SEZH3veNL67Yd4nRtlZ1ra3mkzVJ0DrV6wu/ImPw7b6oiQZahUCg0pNWFNDybnUnnIL+yjY5Nqte2NxZbboUUXFLuGGe7aN0elQegzcbpyWi7bFObNwJ8F/krsfayRNSYyaOZ2FKAF7kFhaVIBkWNr/o7P7Lke8Q1aFdtiSls37iOUkwlySbJ2JPar+2opbyZPOktZ2rnm60/qD3bd51ebZxH9lPv74jfvLKnmqmu/bdt6K1BcxgnL0FnCJHaTGOk896SbmsLbNgFVdqa6ZOxaTr/J9j6OSHIMhQKhQY0NDfcpb4ERwOoQG3xlJPxFg7taE09A8dY6Yk+MVG2SardmtsHbHL0RHxEZ2wgJvIh9YIiTg6L3N64khcgxuK1yWapdbD5l2tXRafadvLyEpa43u+Vp7mZ9USobbbwMHIo342vtNfIZRGR4G1tzGToecv52mBHZHrerbyhuW8Ujp0PJJUiGyiqAms1wJMPqM2L6eZrQ1uYp3//bF+lc5UHjrfENVB6S/lvrf2mwPZ0L+a6/2Ybi/+GQqHQkJrecJZLOw2bgilDH/ITsYOxXa0XLMHh0qiVSMDGpbZR1OG0qpDv9dZSvFSS6oWX6y0xEH8Hwb50616eHZ684YiXVKLEakFsQDWXp+UtIZHn2pC1pT1u287yqfswZEC/K3MfOzGOa+bkTLOD9k5NAIGkMbH9lb7KfA25H97SuGs+V92gzfKubJc3CkznR3zv47rqEMqLbv/c8p5jSw9e+2DURskebJdIiYrZFipiCZDfuMTJ5xlN9jto/27KZoMsQ6FQaECrZGnAyckfaWMY74YxsCYOQ3GNQfeb7lguUh91OcwN90ij3RwRE3t7feOJlqvto953xSsjiYhcP9KvHTZLisljmsmp+ul+vYFbHmr7GlzyLERT310bpjPxKY/ZcbUbsmx8OfzGwOOcLPbWY01jpLcFQ5ZE2I2XBva85+urh8B0eotWIbortFYrfWfP3K4T0A7WuxQReVzXM03XoYV4c7TUhUOGrs2SveN65DnoxRDyup5EpXkM7THtqFy2Wc7N9HKsQZahUCg0oCFvuHHSuUbMlTKOjcgpNqy1VUIO11ilyaCAfQL6zVEUwOg4DUG3bZjWjDrV5aXYNE7tmW//R/+O+gIxN7sWPGNbq8G0hsxDreaGO2X43mXblLV7LvXa9jDv99T0hqeuiUqQT0bqXtyol5+v2SHUMo1ukLGtqW7S+pZOF3YMlPL49YUiebWjsi3c6+//778hItkG/t53PFG17c6/Jhpk0kxe8JVxpzVTN/z3VP8t7mjzOJ4Tnxbc4r/LRr9BlqFQKDQgslk6lq8uMrGruyFj31ot5ssa0sY1WKfXJNNQr502p1DZdAud3r0lobo3zH8+p3g5sjVaoqz7fPs//LF6JB4FOv2WpGViELlNz6Pebtp4oFM//IGX6m/UyU2TDZI682zVU8PmVrdD/Zb3xRkcr7GKcmnL4M7yO14u0j+rc8TXYqePNU4X2xX/rXe9danjkKLpm96OXNvmyP8Zer07Isa8LfFMxZdzrAh/Va/BxJeScTjIMhQKhQZFZEleXlnLtTae9l4zkkq1WztQLWPCg7Yxmu3Qir0fFxjSKK56+TYArUoobV3/8+9/rYiI/MF/8hPNlu11oI3lLO1R43yHJs5y5QrWPORVvqFfx66Y8k1Dy2H2vrVcyY3+ONDT7tnuerOVRES2WuhhXYcUxIi9cR5SGyVmasFuiBXTeUdTj+rQ5WPq8QZ5YVWi5vXp2BCjadandIhwZFWh1pjr30vdFt6K8r5JS4k0+0rPEW/M+0Mh/nJrt0et+hEJsgyFQqEhra46xOpB3SFzxLn2qMN9XNY1v06+A/JsMN75Bbq78Ah5bCbOLJ//4X/6E83OmIhMF2Sj26e1ItfHlMHJeubZ7ue9tQild7o0ava9WsNvnO2feUy1nQvp/+Kb/0iVD3qDnfHv/ugviEhN6ld0xfMXaG1RjgrALo8nuk8OSBPX+4ju4shrbWbSBJn55M7f347q7Jy3Ao8kbX7d05rtc0/fF7eZiFLtqvtd7Q1H8X0iyjpe01xD8SHIMhQKhQY0NDf81dCDk2S/xdazMv9ry41SjFv/kIsaCCi4iFavwZDyeu/Gy+3YnDzvcLv9tn3cG6PZb95hUvOd+IuaGvn7QBGdzkIlansYhJXSsed5iiOcatLEilEido5/WmVe++D9wtElVqGCMnkus7WeubXM806rDMH2NxLwO9VEDHtfnnZdf5e934k3c8d+5/ZNhKnTxMYmoqzTYbvc0l7ueQz1mMpvNsgyFAqFBvSaIctXRw9mkz201VFCXW3koi72A0h11E6Kp/R/+vZ3i4jIn37/TzVbMn1e/mtDbtosfaVk4Lq0l4Nvw7Qe85moLhdEsZpaGdLOk2e1tsnxPO879/M8bhujuG4fxvVgJ87ravO8NZ1W6b01Jdtt05hApYqUH/r53xQRkW/+Kp3BQwVBhnZ1oiUB9tTkyZbazmi9D3YmjkfGoF8bb1kfvbeq8k0myDIUCoUG9HlGllCbHLIuikLtdlqzcoa93hcdSteQ2O+ia7M1fTD9eFNiiorsWu6Myba1nu552dmrWpdtv2N010ggak19kW0P1c7Pa7vaeXFfHqUV8FMXNAheCxPrVGKHzusmFnLRY9q+3cnTF68NiZ0ktxqk+PFn74hIXp0ftk3vW8CYrx4tFAx7Iurf05jS0pP/ZY/fEJGCDGlNVV6nEm1NugXn9WNdOV695jie6XdxtEF5GrIEWYZCodCQXvNkyfadS2q1c35Z7fZLPqjH3ZNpt1Wh07kHp7z7I1eYOWGokzYKeqsNud5to3Fi7Y62U4DJNBEkTXinZUMNDYms7OpINlr+fTynq5rndpbOMbMHtkuUs9+xvaG5j/o7wGwYfBeYNfQ6nQ2EvZ6Qj+tMq7YrJZ/qDQKpTrrOKojybJ8th7/6zO0qD+p583mVIeHfker0vI63+LLX30ifgyxDoVBoQPGfZSgUCg2oufjv5b7yttXr62KL9/7u04OGJ/XKN29vJ6zG9cvo8eT8lYwFotOVaZut8rY5p4CzRYRmtg5d8e3D+a/89i0RyYtjpEWByYvQGolJ86KXpJ2OV19Mm/TKpVCiVcfXoq0mnO6W1+Xd/kiP+joOp9TUrg95i0t7CzyXygto1Hc9O3r4d6Nj36AcOd3gZMNiwVrvE+q0im0lQqFQaFC1g8d52PZIs0WJo2R40XKvCv2ir1e+q1dXDwiG3/h9PyMir8538Ipp9YfHThS60A5xcsvf/19+TUREvvVdbxOR7BjZrSzUe5umO5rOHWF7CaY0r6e9y8ONPjUL476mG93BKYL0Uw3l3hBJm4VYyPHDC26wE6cULws5a5/eZAO0dV+3f8aiv+gLYU5wJvHSgWe7fZBlKBQKjWh66qmnZhGRJ554Qp78kifqTM+sc9EpeJcpE2JSZ7fAYZSEvMs9XJ879OKe//Vf/ePp81/+Vz/7YI0SjLyWANP7SV7uGNs/vtE+3CmLjYxHrmlwukuaaLMdIoXgdpAWb2hmKrQbb/aF8SKoHOFJX/7GmyKSA7xTF0S51l5K5UCYxaZkecuJesA8dRK2Rx4D0kHBaBnXcEcD4VtjCLIMhUKhAa0GpbtmndeCp9p4Tevzlv20Z/d8LVzWZWmmT/fOeXEzW3bNQlQ3Oq0mjwbaj8ibrnhoW5f3ttBozduYrDOV01xL42JeAlH2okecO/HSvcULDsIcvWFlMd72Ii9RtyRk2+NyxIIg13QxD6Qfbevpkv6UxdqmW9oucY+O0Zaen+V18JZ8JcV7p2dVm3nbCXxnyxGLJ2fbJcgyjy3IMhQKhQb0mp/ueFGNeNndIuZJWp1eMqW8OvrWD/7X9NnbPsJeZ23X6aoGDttwHoDfaafqzB8uePMvQrcH90GD5bjBkUvA4r13dCrhwfHHa+GkDbWKpXF2fvjoA9tM3Ndpi7ATIsYR3vMU86j1759jk7G63aPCZsl1eYm25PVOb1Ltu8z205MZ8ZU19ZYKsgyFQqEB/Z4lyyF5yOicj5pwX+uk2YOMHnF2W+jt1PYgxmEXNQf1OfxyLmJ3feDhEnl1iq2L/i5AYYgbhd3wtlLwhqjWjVhx4jAz9eXRTeTttoPjZeEWYfGOY9AtL5vHM36odZmDLEOhUGhI71BUAQAAA9JJREFUn99k6emC9jALpK8oMxymyr356nY9pEsLkHQ8073Xg26LVgfPYLrA72rveNp7cudjH9hOVZcqb+hCQJawVV45IhYjGPRJ2x+ltwkg5npzFAhsmCDHzWbxkl/X+Mu7Gldp7nPYLEOhUOhiCrIUeQWNjv5UJ8/TnJ+2lzWIi0+zubwxPICGvbiDBQ+4JLO+cCcut980YvfaNdqkerHv4DKJstsXrdhzrAbCHcVPurHREyWYyeT5Hmz458zefuor2Wq1Iug3WTjTTJ66YvKlFzgdZBkKhUIDCrJc0+jj2DWHjdubvBhH6sLv/EEDD1fG1B/Da18mVtCH/iSPiC5P5IFt9HP3pI6vvOhKTyCsh68uf/J3Ts7Xih/UJtbphIP6jo4Zl3f9yrZZ3yxNimskpJ9KulNChC0S8ZZMsSBFkGRe4ameqZP6pkHs6iEsfTavIhQKhUKVgixb6nlmLxHiHty2dPlE2esJuvDMlktog3WwffViuF+fd5q8jGu7ARK8j9Vw1jvx+ryrJIkZQZepFNmItR9147GHdRUi3obXvHHt6/ypLpboUUTkPNkY0Ua9KRpWDwI5Ji+3trWj+EweW7JlNjA/yDIUCoUGFGR5iHpTW9gGcwlo8cpZJA8Xj+XQMbXKP+h1+bF6tR7ovl3QZnmZ3xnmR+9ahs0VPaRkCrKETQ9rT969BNsl21FBf2c7xDrCnlgb93nL4Ex1dXstykNbOyLHZEfd1IPazbXtEi2a1dipnbLnIMtQKBQa0OcpWdKzrOf1HMW7V8B7art87fuke5ffyh8lQT+ecmqeMQX32n+tCasNHW8XW9xDukYkiIpXBj85a9vkblw50nJzdQ4b5qnaGVO94vOJzsgBpR5pHCVm6mDdSpzf031uAHcY4z7FY6rHmRAyxVCuLDR7T/tAfCRmCYEkz/fL+RUd4ymtZMQ2So/UYQPNQ5yDLEOhUGhE9b7hndi+Q57OF7XXjNqgemr1a8dv3HTtchd1WbebpzG0m37Q638Q+atxH5b+IDq0zeEZPKb9CzDmq/llqEB+TIC9H1CKeSTdddJbzaLJ2506pg9dpRxtXVFP9Ylew5bsjtgvByQKaixtlg8rEd87q22taSaOhnQijhSECRo+O69XVEc6yBwkCeq9fpzHHGQZCoVCA1rfg6dT+TIesBdto0deFwmj89o+VIdc04Pb0i7fT+45XHl2kbEtuQ2untZ99OzDgzd3/Du4fEw8dMit/FEz+ijuD/9K1hZnuuBPDdXuEw2e0w/tbFdTc8tR3yPi2/c7Y+l8GXzfXyry/j/P3yH8h5C16gAAAABJRU5ErkJggg==;" vertex="1" parent="FID3xfvM7FnyY_k4tjsk-16">
          <mxGeometry x="140" width="177.01" height="100" as="geometry" />
        </mxCell>
        <mxCell id="FID3xfvM7FnyY_k4tjsk-15" value="" style="shape=image;verticalLabelPosition=bottom;labelBackgroundColor=default;verticalAlign=top;aspect=fixed;imageAspect=0;image=data:image/png,iVBORw0KGgoAAAANSUhEUgAAAUkAAAC7CAYAAADop2wOAAAgAElEQVR4nO19S6xtSXJV7HPOve9T7736uH+2+1Pd1R+Xu9uftiljED1hhkAYbCwzcw9ghgQSIyQkBgybEQOQjISFDYIREiMYgWwktwur221jd9lN2/0vu36v6v3vveeczWDnisxYkbH3ue/dqq52xRrcc3fuzMjI3PucvXZEZOTw+c9/fvzsZz8r7xQ899xz8vzzz3+v1fgLgZzLi0PO5cXhoudy9dxzz12YsEQikfiLhs2v/dqvfa91eMvw4osviojIr/zKr3yPNfn+R87lxSHn8uLwZszlICLjP/vx99aj+iFD+W+U0RxrY3sYdtCrGzXlPlblcGR5B+jA44jqelnDbB9LOvAY2rrReKK5B5bmgTtC+dicWtE8jGNf/0j3nsweWMdefZzb00muO7r/htLO1sThKP1Prt9iz231eOzK9u369fak+l5sBVfPnBtNH3Ta6VDP93WJxlDl+DM8h9zYndcT4+z5SAdWYZw70kN7l4WyF/qK64+ymq+aSCQS72xsROaYRGGQRD0GatBrHjNFfNonAGRG7IN/zSP21hsLFw1DUM4yRlsvljPPPHtYUVueh5UpjZmom5cF1tzVwbFUOx4wIJRX3ax2UZeVUfjH95rmOnrA70YrfT1YRsljYPaDeR1HzzhWpMNeZdk+d0Q/0G7PF6kc67XR8qLzUHTmerWK/rOiSWUdapf9cj0mXZmhd+8Xuv+h20jltbo9MUQX04oPdZ47O/orfY7WtSBilO2lTCaZSCQSM9j0Cj0jssaruV/8yMYW1g8oj/v1HoJyRd9u2uoQ2xb7zFiZIrVbcf0Fm+VsHccoLdbBPC6x+TlGzbbmFVVmYrR2T/EJK5Uj3fP+rcArBWYzlAvr7IGlHm5U5g8rZYi2HbO7qovXGWwUTEmZMjHLNc0b+qistrQb7HlVBfJLR6g3a7SlcembhBsfzcNgbZMqlljeSB2NnbqRDIUSSDs/o78BzNAYc8yS30ZYh5jdziOSU3UYkkkmEonEHIxNMrYj9s+w7c6UORk4338ULtscF+R16i0zR/tU8uzOYsW0RMtbaY2drYPQ5kgshhn50jzxpVh1WD/bMQdiYctsHdUsY6i6kJ2QJmrf1FeWSm14vMog9Laxyu4dA6JrS7ruqFZbR2UpGyvniVGqzZFtdMzqVAdbb08Msr1P2VvtDIKB3c94yBsdBjYMBmPjOWiquu+5UzFinO6fh5NjRUT33rwO4bSGOtQzySQTiURiBhOTpEL2brKNSfh46JThOGBVbAdjxKyPmULcz0CfrNOhtkXW1dsoSdcO4YxY6hJjXinztE9QtcXhWJnDvLxuH+xCLeDrzt5cZqLoe6O6iTnPts22ztq1KXY91r3U26lnuM8oV8pQIc8yq1ZuHafVATJRd121EBGRLXnWmSFtiCWDiVabpB3rpLeVwXbRYezriHvQsV1mXsGXWuetiSJguzC3xSHmp/dm2dZkHVY0X465NqhT1H9LYVvlozPKOjHJJBOJRGIGhUny76l9zMRxhTHO2yYgM2o0YXarNroZJSpbs+OrNjnWwT6GDrZVagHp2mHYsazpv8ieWfvga8LzwvK5B1+HAR2UIQTnveC+vah30dkOyitCmDGqTGKtEQsc6RpW5tihGsSQ2Zs9kDd7pPNsxVOWR7quqD0z8qnMynDeaI2xtPe/1mf6HwQCctxkSAKl8/swf+jfMEjqEjPt6qAn+/eY18G2Z5N3f1Y8RskVN4lEIjELEyc50OOZn9Zaj487jKkeD926gWnE2fOi9eNLcYct2Jsbklaqp+2DvthWuSLdTRuwiQV27lfi2HK1HZFcnpc5HVT/gAlh/GtTWhnkjp7KzhbFcZedx/ZIuuz109qaqx3Ujm9LQtUmp6rYsQ3E8tr55Tp8wtvBp+Mtsdsas2knaKSVNuwdt7BMt9pYrSwJroWPo+xTKie3p8ro/plT1d9zpLObX6rH/c4zSlswtza/bRcxykAFGYa0SSYSicQsumu3Q+9tRME6WGKQKjtihFRvvcQCOwyMmQ7Ljla7RPXrWue+Lq7eATKdp/3AeqHNN2jfHkRe/WgFjbsWq/74q2PUPp9riJ9/2oP5sc2VV6usyNN8RK85sCOqXTFgjj6ustGB7Lvq3Q6Y4tqq0LDhUp90WwVrt1tPO7+lRAxppHo6lnMa32avNUVQhESwT1ab86Mpj1hcxOq6XRM1rGzP6nyo7dGJb/5LJplIJBIzMHGS5yCKpr5lTEO3jmsbMstHbe/rxqtUhm4bd0zPuohhAusO5V6ya0bMubI/ak/j92PwcqNVPmzP1LjGQOfI613bQ55lXsNQR+EYHZEVtU2SlxvYsRfYfVrtdqUmPNK75hzbK5l9QOudnrcsrzJFCLSsFbbdOm/2fLsoxnmd6Trz3HNOy/D7gvp0Xzim2gpgNn8gu3VvGCjn+4HOsw5LWYSKUCPzUK+303WGLCeTTCQSiRnkj2QikUjMoLsskRG9KurxAR6dyBnEMiNJ/hW4r0O3PTs9aAkTO0e802Q07aNXYF1C2FEier0eSNaSTvVVfjTyVAdqN6eDUN3aJ80lyToyGvjXdHY+4RWvfZXBay+nNKvbD9g2/IqqyxGp753Oi9UR76l4Xd00Y9oVITXI277rap/kiNFllpRqjScmer1cDVziXwNXFDztZUBnekd184qG9oXSJQ5uoWYEvhZ9XbldddTYGkuOwahev441y/D4FmXwPdt57U4mmUgkEjOgYHJ7MjQCu+DaTp2FY+4zYpJxqAsxqo7s2CHTZ3MD1Yu2ZeB6LL/P2GzYiG8zmD5W7jzr0GetzFTb83g6cgKKaDzMLCMuoaFDQ+9sPW63HuC0apXpWIYIaGgPsbnBLeMDe0P9omMZ3JbprohSxMqmLCthZj2ww4bGi8812K0G5/e9A3POgpqwAtfbhtNUR84BlEh6zheMbTlkxr1ZzEcGhQ6cJQdQT0BAkL0yC6KW2HA6bhKJROKc6AeTU6U4eNrzQ37aMEP0fQWyF1hblTt067eI7ICsG9uIvD2Q5AZ994PJLfNbahvpzts5cBJflUeM0/aNyiSL2Gn01Oa0ZvWsnT8+v24381KyBlZB5eVwR8HClWEO5byY9mybZMa6kZ7ulk3x/cCbbylTpPbogxOEcEowv8S0zgsHg9flllYIbzWxd8ZHo5pnlDwPM1SqhiXRSb7Pme2xSvSPs5uHbLFj7+VG+n2iN4tAJuuoICIukkwykUgkZhEk3bX/xefLsScI3sYYMkErY7GvhXZWlz6DZFne7rfAPAP2xuywfQJVhmdls+2RbZS87WvUB445kL1lplFiXjd+Gmd0vcNtPbpszR5zMlkXTK6sbDD1NaC7HLOXW5nnaFkgmBYn0ujpDUZZE/uW83Qzq72T5sNvRYGx2cFymrJWlrc52ou0CoLpQ0boKBTpBl0MfaMmMTXsIvJ+jzTPh5DfeHx8r/VlR8NfsIqKDMkkE4lEYhbFJhkxAvup5QEj65aFDJHY2kJf9fzQL+/0w+d4k63KlJgR9NsJMcil+i2LW2J+VYf++DjBR2We/XJu1x+Pr2Nl2OftoUtGgUOe2uxlrcsNLYOEV1qXFSLucWBWBsZo5cIrrKnFWvsoRUhsSW/EeW731uaorKXotqN5Q7n7LoChdiZwpHngaxUlsHDxjgFD53DC6Htn2rhyOy62awZ7j7nzIQtGu559tHz6jc+or6izQ9EITCaZSCQSM7BxkvSp5QvM0bC3oO6h6ci8vYsYVqAbp7lqDyK2uRQ3GbG0KImvtx9WQD+uw6xEvdcDHQvqkxzSmRlnez1Wrg87zlrPjmeFkoCJAiOzGio3dekcGBRiC2vb4pVWG+NUvi6uZTAntR/CBom4QrA8co+aexbsDbGsZL+EkpuVZXmQscN/NFCOL+WUa3tmmg14DoegLVPD2qW9QVw8qdHMM8yorK+/lRbsfqtw23sE8Fy/1YF0C5gz/wgszgP3NySTTCQSiVkctHYb4Hru11y8rdHJCNiIr89PKVsvYpytfTVOT2Z1iD3rVgfHNIN+wESMZ5nrBEyRbZIrKkd9tknymu7N4HVgG2xlpTH7bHVg1s5jq8zKtgNaOxLbIqs3FyxlOt6WRnVp8mjqbzHXNKazvX0DWZO8reca4rzbpL/zwHfeGFqBsJuy3TnackHEs00MNLLBcUwqX0O1bdJ3laMKugbFg+2bxKDpH+fsp3s1TMbboZIj1dHTATn1w7T3Ouvea5dMMpFIJGZgmSTbuagy18M/s9u6Rkwx6Cv0XgfymFH2VHEsLdLBMUzL3gDN9qPH3I/9bOvy1gfsSa5M0c7thp6+bJuMbZlVCZStVyurg44X9fo66vYF6g0mls/MoRz3MsyoHZCYkm4hS3GSNbnsdAxPs2bmUS+4HVRN1lvklcGsGu/22X5vxuvVtUwQc7xlgyFRJ946FuBrbte0GxGe3Qe2SfZuV43sNbMjalX29lE3D45sUsG5Hcn2ux6xurilCN2CB28dO9KbTK3vWySTTCQSiRl0124zoi01u4xzgY0emolHFsv77c0qFyej7ylnW9t5t5BluyF7sFvZKGImWBlhn70yw4Rstj3CHtrbrGupL9aN1yBXHeyz1V1rYkr7jl0ND3JdS61eaPQ5mHpge2qzW1tGGXmzIQ+sr2dvrF5rMQNW2+oAHaA7WC4GIxbEuPneVbZM950ZMA7pXuVtbP0WGVYn3op2T1mEqsqDKx+IIUI020cj3ubY3iLTtIy9rce/UeOirHkNebxjw71ZcjLJRCKRmEE3TpJtBbV0hkFS2SJDDM4vl88z0LYftlcurZDBk5Prh/GSZJuscYe2X5GeV9ra3JwdEO1Wtg+1UWo5sUFlmLa+7cuei9kry7YV0IeaAcE8nV1oMPVE6hN8R7ahalu0zHJd2CvqnyF2Ub3ZRQdlg2wIRMdlnjuGUh0dDWTHzNHzEntMLIdX4qyogtmUjO7RyuxgBy6qOcZoWbtt5cGMs7Je/61mjzK3rUJZZtB3ID8U1P7HDDjQjZlyyDgx35QBvkUyyUQikZiBWbsdsr2gvEclQ2822/sC713Y5wE2yLbenGxnc2T7YNDO5XIkefXYsr9WlmdnVsaa6h1aDkYFeUcddsh2zMpSidUG7HVuDx/TQTeljMjYsLfq+Z7+2RFz3Ljy6XNbKBRyU9ZM4/B22z7BLDWnY9GhNauCRZyRx5xpm9/w3t7MzEHUltt3ftd7omkTxVBinvRtxzEla/90q16UMZlihWZT6vG6AxlibRD0FTFQ6mduzTaPi6se7h+P5HhGmUwykUgkZjCbT5KfIN5GifIOe6NPxooqRMzR70jI9dDes2H2MnsGOBx0fs3lQawj2xVbFhetmPHM0B6D9W20z+liHFGs49HK1md5k4x+H5DFXnptynSXF2kzNXKuyFLcTojmfSyiykiO1Fs9lSPuETsaYpwnZTkLGCUk1+w5hR3C66tpwgsD9S5anQDM8RZ2KtiP6R47YzshsT3NWCR2rCNRpnY/nxXRLbbv8r2pGdiDXRWdnRiXshzzbpPG7kyGQLbAOmbcYWFt/ciEyd3V352hOUcy+RZzdvB+X45p0nffjyWZZCKRSMxiITN5OV5ge225Y5ABS3PlbHM8VAf2uDcVFj3kdN5l0CE5GkfJ5SSHbXiTbNsmsi0eEUtdD/xZmCWVq7c7YKBtmxX1teKJiOl6+VzRMV+VA8DbIbq9XaZ/jgtjBKnYMlNE/GM5f1ZT99h+oLKuBffWq0qQy9yJrVutn2CKwFR/TfRsJKbJ+9Ioc5oxpLmpJ2903ePG1mdbWy22FSI2Z3TAdyyMsRRTriyM6VlQn8HedB7BXFtXnYUGmJOXTDKRSCRmMLvipu6oZp9Hh8QmCp1jNsZw7A06RLoFsYuGSeIc6e12DXQ6sg59trqmMUXrrtv/OS7yUC83vNVq7yI2qPVgmyQPtanrN9SxYKV0IogDRUxyoH/mEkoCvLG2epiL7bW4fY9wLYtREfOx2vfvB70GJRhxWIEVVp15N0PogAzlmEv1jMMTTNnDlQENdAydaX20fhea6WPbG9sSYXtEnzu6FgPZUXlZeT129M+eb8oim6OKIPsukdlq56Rcjoy595E6DKvoOHePzfThbJbBi41IMslEIpGYxeyKG8AxqRmBfI69z1wvthtaOUt7Z/f654xC0a6I0W6B0Z7XzBQjG6VlkkP3nF9BY/tibzjYIOpviJGiHMxz08YDRqnTI2bJ3mod6MoPsIUr7jzt2fDEhjtlliSqlG/KwDbl+IwMewNl6BmLfLCesdEdDBE2WyHmWHM82mGgPlbUjGSLVIc6DdV5idssQPqJey+y51k2x97qKB7SM6mIWzVn9B/bJ7NcHg6Ke4EEPUSe5/ZkpHc9iscTl3bON/OYTDKRSCRmULzblnEBIWMMWNwkg1ioO2/bevZmO1lytEarXfoybZ1Qh2DFSayz1ZU91yKVdXC+R7eeWuuXcmWGtj4zyGO1N07HR6x0W7kO1HbqJjM4L0F9pTl03Ht+s+2Rj5HWW/vA+fJZkzmKiMgRia92M7A7MccqX5pYQWKQYIhHWl4alPnY0yY+LoyUWA0yG2GFk2OU0ntDKm0ok5JGaAR2PvZIKxPj6aRLZMIknRd7MOWRt5tRGamdoCUv96wsKhkdT+e+6ZjYbqjCkEwykUgkZmG828wMmSDUcmsv6a24YTgGGbAz0SegbR/FIlb5lh32EGbcDmR41tpnjOzt7i48Kf/XWEVikC7+cejWr97sqbwySHveGUp7ijoDqQTlwadQfX8xJ6i7t31eg46N/c8VnYdMpMyBsZUWO1dGOZ0/pUw+YINHzRiUU8IGSddAYxIHqxKmUUdFdsFqi7Ssj028+/buJw+4Y2FknON9i/ye1kwdxaB6yWNOtcS2HCNcpGekY39o51Kilw/zECUOIbHJJBOJRGIG+SOZSCQSMzDLEpX0B8bj+nrN5R7hSjd6e4qWFS45eJZCimZluzb2Nbq+fdry0GlEr8Q1jKcqw2VR8Li+hlPCChxzqE/9JKV6zhbubOn1m+OQnJ0iulh8scvxrnm50ddncsjs6FNft/FJeyswihwEnSPg+1J5fd+PWOZY5wUOmj0Nd0/LEfd4pRvIieLSmOG+6YcQ7clb0jKVkb9r6CP4jEJ8/Css7s1ifuB2PYtI0Ektxivu/Esri+EtJw5+Pz9HVV8t+AE6oMtkkolEIjEDk3S3BmZalsZhOZ6JecHehm8ZFLd1oUKuD2Kt1K4XtH7eZYZhLDW143prfUpTvWY8YIKQySE8vKyQWSwnrNCgcsfu+Li5OFGEumOOFPqjxwvMMqLqeFqbpQsFCMXRfRqISW6JQWqmCuV3JNCmfDjGBlhFiSOOeWm60qDwMg4wy8oE7ZsUrvuemGWUnoy3b2DWOP0f1B1tudCyw5pUou/AYQSrEum7b1vHsvqMMuqDnUpj1KCVtaBDXLHz4zRTvddPMslEIpGYAaVKs2yPETHHXvVzpz5jcnIg86zHXneXRJZ0cNEyxN6cbTKSq0Sq317EB5izHZOTZXCCXA4idwwyWhO5Nkr062zI4Mn1NgGTjLJzuFxg5bMlfRxHg2MN6UEONI3MtkJ3vOivzyiHYoM8pm7bfcB4OGNZ46cJgYk5qg2TgsixdQSYpW6JEIT1dL83wTn3PXCB3igHOxupvIyNgtCFpr+vTd8oGYYbUbB8CCd+7J7uylqiluH54MdrJvlGMslEIpGYwWyqNPfkY/bnasZmqaVg8h4TnG8/zJ7v1YnyOywnuqB2kTfckTjm6J45VnPfYI55Uy4me8NS5/0sG7ZTl9FXXer9epy11ymFwUZP66aMmSOOz2g5IhjjSWl3xM96zaJr+yCXMkydm0J/ds28bMkjvis64RrsyzC3Wl5UI/bGm3SF927gDZ/UtR5xXn4IsA0yyl7nlhaKqe7K2y9QdT5bHUKGqMKXaN68AOjO2+POdnnOnrwgnrDKyJNJJhKJxAy6qdLY282Jct2SwY7gZQZpWR7bJCPPcsRQVyS3KytgkFFfS1suOK8lMU1jH3XsE31QufNq277XbC+MbJFzTDKySUYMEcf4PKLzc3ZQkfp03nfKOC4S40ECCxJV92egu04ZZDkPFqy50UrxCGZZuQfsvLvBMsgdMUNci2pOLUyTbJD1vrBMkeOMBxqyiMi4sHWsJtEQyLCyK4nj76z1knMykuFQO6J4wri4dewC3fMxnWhWxzDSf8EwQ120/sIAXRIPSZtkIpFIzMLESboEnwGDdKan0dfh1PR1BQGxsUCxyhiHfjkxLO5/0kG6fYU2SGaAPBbSQbdtWFmW27NJVrMdM0pbl5lmbyuIbmdLzHJS1JYpYwyYY90jwpYfke2S5Wh/pHTrQgVT3NNxlERDmSKOEV8ZsOJxZ3UAGyzBj9t2WlTESMf20715BF5rdthX9leYZ8AwjSxmSLCROduk/Seyh/Lip0X219T17PMwCyDHT0bbOITi2jk40OgY2Vr3VLAUR9pS1WSSiUQiMQNau802FQt+YvJTrJXBtoAVPxoJ4SoY7jNgVlyvlRGxt0imT4nWH0uYaYztrU2bav4brN7oS1fSDKbvNVKH8QRFEzZnk2QvNe8ZwQwRzPF4bevx8RHpyAY0s31DaXsKG2Jw04X7jpKhkLd90GUvpf5gy1sn+dne2iLjDHJ973a9lsVzPtpy9tLy9PS2N3B2TG0LHUtfVH8UopJMFcNVMZ7VxuTN3t9u0zFqzytr2FQZqDbbt4e1947EFHk6IsaZcZKJRCJxTswm3QU8CbQFLVlx7NMxvj5bZSLE7aMVPJFnupXF3u1og7BobTb+80l1LRussY32uNd3ZYiDbavlNB6mH9EqlzmbJE9a5L3WPSAK2wNbY0ap5eX4yCk/fbInW8QzvjN351idOf4RfexITkQDyRjX3pe4BitaQcMZlxAn6ezqLvsPVIU8yzQ5C5CNyOgzPa0RxD3W+uXeJntp9QLb845pWVe70UG9zxFLPdBwGK319m8RbRs65ZoSk476pn+YcXK9cUgmmUgkErOgtdsTQtam5+2xbcxtLNty5wNZbl00yqldxEzbA45BjBgkNfMbeg22nHNARqx3tk2ppRuFiS1fM62NGGUcDNoocWB8I3+CObJX+3IJswUDPaZUR3PebWWAO6sDwMxxQ2x0vcAo2Y2r9I6uqVT2FsXBarywni/HZHtURinc3qri3mjaLWWJdY7MOh01tOx3t8DuguZdROwslHFO7zfHal7AuhnhH5jqxQ7iQF09j2SSiUQiMQOzpSyzPCByTPfiJKOYQmZ1fH55Ey6qHzBIwxCCGMqYOdrzTM44q3ic0bzUb5Sp+oFRctvCKGmttjfaLjBL5y43lKl/jtd0Oxslnb+0tuePqZzlod+zxo/LNknZlo9SfkTMcUtecLV7LtkkB1uP503qnJ/xRl3Bp3tjcPGS9l5WW2RUv6EqA7m6WSavOHGxiFpuqnfYH3SMvOGtDqWPYJ04sBhzuFDxULuikblU1c3D0B46AZi3vflNSyQSiUSIjYjI7uOfFhGRFRnfNuWpPX7ld0spPX2IzbWIvNdAuBabPlf0SIwYZy9npGOhVIcTcPusQWB9Vp6yQGrHTLRltRz3CL3BYnwMJ1Vkw2gU9MmeZWOTJAZZgzP7bdB0Q17tFTFH9nofkW1SF043umyJAuxLW074uNlbHcAsOVtQRP+crRZUoXa9ojXb4Y67NH1b2CaDaVM7Idke3XejWYBc7Zp9qlTZaRnGgg0S9+IuWB2k3mz2ZDeITIzco5fJ9Q4TxG+2kw79toeaQaMtZytLtjq2DD2ZZCKRSMxgIyJyUuw9rQ1NROSsLCkYnpmY5qYwDtQ6Kk/3tt3+D7402yGvxdZy//Cg8xHzjFp0bEdU3mol0jHr0adfFWTbsfzefjvMOpkJg1kOfqCoyAJtOXe46pRFMZb4ZJsk14+yBkUZzGF0W7eP8eLVHss5ZYZUN7LFOnuq0jZbz31CTtXFv61Y0QDfNmE+0tHqzlnA9b4gdtdD9PY2OtskNWTGxLGJjnh6JspOa077E212qKoQy+Nyzvoza2dcooyBDiN9Ltkyvc0ybZKJRCIxi42IyOl2evxWlmPZDJ60W6xxXZGdo3mKrT/+Y6bOQAxJXvhdowD/0kfMUCPjiZEB/Scq1VlklgPVo76IlTgGqfZFYoNSx8XebOcxR4MwDpKGtrTSxihBrGspg1CUwZzXh0d74lAGHgPI3tPxivJIamahXf/YMcTgU2kcMVQRd5/zmwTILW5Ctd3TxjARWa3HlhX2sm/1YidN3SCjjmvv8ktaLXlNuJCObR1d/u4YJVRY8JBzOy0f24/DclmSvTPyUrt2XGuBUTYdJpNMJBKJOWxERB4UJulWgZB9rNpeyAbTPJU5g7aucgFRKPZNtsHh6XxcmCbk4IfeeX0LmIm2D1a203AdeiCGGUJUnurCtI+ebrpPSVVgrzawYtcl5VY0XufhW/TeSv+4lwWIPefs5Wa40IQZD3o7CJ7I3sTyNn3MlMm+5zazZsNhhFnmQG9EPByOsSM2x6vJ/AoSfI/IljenErHMUelcV3Tn/avPNKPiWR3GJb2H5q+Pp4zBWrPttjmzYL/k70u9BOO8KoEK7elkkolEIjGDjYjIWfFu80qUUzUx9VmPClnV31olJ1vLNutugPZxjaZH5Z97H/6UqQ95x5u1aX/9q19upDToBHq5ooD4+IeKZXd4mO/oacNpE4/Xk66rn/2s1nnf41emPsDWrpSdoC8fmc/9r/8Xq3PE0hjsze6xPDaiugw5Qp8BTdE9a8onJmRD5zX4rMMsdCUNDWhPnzx+PuaLQTaruH1tF8UaKvdf2SYsMtrVz3uHcRzQOYmJDZtB2T4YxRGqXFxK0kFjF3tfAj5FHvJD38BYB2fCpH+q3J0VQ08AACAASURBVHh+eG77+4b35pqvcf8Vo22WTDKRSCRmMNkkzyabJMdJ4lcYqf5W9JSGHfG0WXDKNsiWZYp4ux5kPBB42Ol8+YSOOL7zgR+d5Bdmhqfb6bbq8syLL4iI393OKUOMkR9KYfuCHT2lvvGxz4iIyA/vqi7fuXnP6P+eG9N4NvdOpwrXL0/nf+HviojI/37+T0VE5H03Jgb60a/+duligSk5Othg1AvXr8OMihngjo/LJ++ZjdhHjF/lNDPLK2tw3Xgf7ug4ii50QXkop+PmPLMqZ0ol9fc892w/pdNhzkJHpfrsybZlu2hY0dRnduxseTM8EPOz56l3rJZ0JJmRiTrSYGwuUrSbI1+K0G664BV369Nrx8kkE4lEYg6TTbLsVbzVXHt4ElhbZTVVFfsi76sh9Re5Jpy2aU3AHDlbELzheBI4Vov2xEDdToVNu6++7xPdNrCxfuQ7f2jKIxsL2xzd7nHlzL2f+MsiInLr9gMREbl+/0x1Adu8ejwZ7k4Ls3z6PTemCg+muv/jC38iIiK3y/HLRdZrP/QTIiLy57fui4jIlaNJzo0rky3zuTt/KAbOBtMBD5QHqPZBOt6Sq5VsdiFa+yNYJmRhrxstJ9qmuyRSezYYRzRwhtapCPKEskj+xDVFO68C2wvtcW+6lq1wtnh5zbIUHcs9rpEXfV17GizpFM2P0O8Gs9/IY917GdgzZWZKfCBqRIv9vamwb5UiySQTiURiFvkjmUgkEjOYElyc2QQXTIc1jEdfS4vDhjZGauv6zX7s6zFkjXvLrdlhw0bhlXMuWV2PmnRcHLAN4PXolcc/IiLV+fNGcaI8dml6lT0r4/sbp99sVXABq3BOffO1uyIi8u7ihLkJp4yIXCqbZQ0lueyqvHbfvT/V+W+/920REXn93okZP0KfLpXPa5em1+s/K6/d904nef9984yIiFzdbEx9vI6LiDx7+oJVnN+w+NVWX31xUSk9mdASQn0dD5wnbZzGll6r8XlGDpozcujwazZ7VcJ35fi1TH1DReE9vUbuSKVP/eLfERGRL/7n/2rksONnp+X0ifuHhmJlLRwvOGjCoPHA+tBfOjjaU4FOrmnkPGGHTiS4Ux74xnwjcrycZ8ljpEIyyUQikZjBRkRkW57Oe3XEWGjoyw5PSs8gVSAlv+Ag8u3eNTHgJxzksU4c0I7jk20tYydQdTxNnxj3q3cm9vbUY5dEpDLAxwrb+/Wz94qIyLXCMNVgX+bjl392YnFPl+NtcYRtmmV+YJt3C/Mbx+nzTnHQ3CuK3y2fa6oPxoigdDiAXrk7OXaOSl9XjyyTvPWgstnbVyY9n9pM4/zoJ35wOvHHvzF9MoNEHBfYnIa8cGiP2Hq8bUPvMY4+0Oa08C5llAGD5Ih+ZozskVjyvki9nvjkHXBR9dlfmsKzToozbSd9hw3f4rEqlrmSWrNqj8TKXHmYUqxPMbthSvw2yNdTz5O2i1FFi3FLvhrTVi3nggNlo/aCA2yQZJKJRCIxi36CC/oxBhNj8w+2d2irM1PksCGAkwQw0GchUDU9G60/AtPUjeDN5lt0TkOBeBxTwWt3J0YJ+yFsjI+XJYSwA6KHy4W1/ev/+YKRw+FKIiK//Fc+OrUpacRgW0T6uVuFUeJzTeFKCJKHvfS49PX4ZasbGCnGgFAhkcpSkWT5oyUMSaG2RLrQOAbb0xuhbLkwUhqzLaxxhCa4Xh/wbJtURhnYLDm4nIPMmVFy9LCG7TRqac1pru8U/T/88z9ndLn7+jRfr5b7xJHWhWMORu+QWscuI9YZM0yL6LwLV+qwvzE4GXOzRQoZNLN0bugw7PPYL/uyhSou2EcblZJJJhKJxAxK0t3pucI/uj4hrGV9u87iek6jtvTDzynC/NIuYqAk5yxgoiI+IH2vTyorm+2mWAJ5qbC+k8IsTkr51cLm3iie6eNSTxl56eFoU59B//Y3/mgqwzJKGgfrAAYJRrgpyWi/VdjtDz5+teg2lT9evNgvvjExyuOi64NNZXXXShKN9WpiQi8X9vluTjIxEN9ATHxZbCDwmH+gJPD4k/81fW5IDht6elkIHGMkWyU+efki2yYXbZK27/aNo5iH5cmf+9vT58k04DtlLr/28m0RqXN8+8HU4P6nnxMRkfWXn59XgcynvLxv3+60S+pWxkc2RP2vb5sMTbFjv52X68tC1unYXF/2obbKc/LQruxApfqPP9E9FMmNwBKJRGIWG5HKiOAxBXaF3dwuHtLHr072L3Z2macyvfszW4u8ScxWK0G07M81ENgb/eDOdrYqPMywdWC/engpEffJSTkg+0axTcJ7De/42Y7iTEu7lsmCjZ6urN1S890WhqmZzkpbyD5CqrjiWf7GqxO7ee+NiVFeLozzfjHinhV5Z40dEPbPj5WlkDdLTOa71ZuNiuVzpKcumOT4yenzlUmHb73yQRGp988T5T5ZY8klbJUv/pbqovZJTZlGjBEMcsufY799ZADEcZk/+aVfmD6LXVFE5Nqrd0RE5DvfuSkidUkobNRPPTaNB/biPwNbL28K3/zglN7vvV//fdOlX/pXysvnjc/8zDSEJt3bzS89X+qMdhjMRnWYVA/lZI93OixMl5XVr7NU7rzjWh70GdO/RvZhPDM0UeL8QMeRaXLI7RsSiURiFoOIjH/1U8+KSPvrOX2CUdUVKEiEMdWEzW491N9a/NLryhpKs6TsirzbnCKtp2grh1f2sM5TF7YPIExgWgC7IZjihrY1QFzlD1y7VOTYR+L9Tuq5PXnuWH+eL97WAkyx2omtp/79Tz5mxv/d4ok9anSHjL/09LtEROSvX/4mBlyUpDjHzWCPSzTDg2vTZm+/9+3XRKRGHOA+AaNE3CmOL7dvKk9MDHhXWNz65pcwUdMnp05jxhkxS7av/q3ioYbXvMQ4vvTSG1rl9RIXe6d4/xFbimgAXGfYpN8oiUtwDb9T5hrzsCd2h2PMB+rhGmNVlUh948D9sC917/7fLxZZUz1n76QkG1F55GHvMU5nF9U2do4jb70zSVOkwRIjbeFYqqs7Hlhv/rgXL5lMMpFIJGawERG5ftnG7OEpBlslvL1sT3xwZp92bR0wmqvH2HYBNrLpPFjoTu1hyhWnQ7HMSm2PuqJnKtVfeRCNXfXmqr2PWBrGyZxVV1rQPLD3H4wA9bH9xe0TMAzPhnkDe2aEIEYo3yIV3GB1UPZO22DcKuzmcmElSNb7rZt3VQe8CcC2JteQHJcf+ZhMHJc53U31X3xjYk6IIwULAVPFJxjWU1en+WpZ7Y+Uz6+9dGvSbf9hEan3zY2r0z2JbT3e9UrZipi93apr+fybhTm+NjHUO197SURE7hUmCZZ4/7TeJ3dPp/m4S6uewCDvPLAMkxNA3yjfn2+Xucb9VVfuTP/g+8SM7H3FrjwNZyrDtcJ8jM9Mds8jSjKN+/7BV6btTHgDPYZjbzPebbc4jm2J52aEfU98xwRp5PTgmWB/3LGIvq22F1aZTDKRSCRmsBGpXjx4WPFkhDc3ikTs5XXFv1j/vD+ZKuEJCEakNjqE3hV7FVgp6uNTswbRExa/+RwT2eqCNdbM3jROrYzjCHag0g6Msm4dOn3CbgT5WIFRPfj++cXe/e2SbXLfPw+GAc8q5gcsBrZJaABvt4jIbmM94HK3MEq1OdJSJDBMZFZaFyZamBfWneNawiuMdePQ8VZhUGCYItV+iVjSr373lhnnZY0PnY4vHU3rzh+7vjHjxnx+/Ol3i4jI9luvTu3KvYvY0D/+88kGeVrm716zyB82ZMwtji+frE05GCWSVOMNAivPTjXawdomcU+zzRKf/6+waZEai/lKsXvDnot7DuwW95Paz5+e/ApXygqsuy/8nojMeJ71GPd8n1m1ZdX2eCAjjJhmsL76XDZJ5wkPEOgS/ar1YjuTSSYSicQMNiKVxeGphCcf2BuYwBWKowQjAeMUqb/UTyJWTtdWT+XHm/72tYjZgy2S7T6oDoaxKvGCyJIDlvh4o8vr9xHnNuV3vLezK2mgAbzX98+sbjofJfHfS/R0v1tskLyR/IqYansORZwXE212AYPkFTls+0UezVfuTN7b9xab5HvKp4jIk8U2CNYp7yrX86ywqpo2yehW7X9TH7fPpnG/UZgjvL5gVLgJcL9AV7yhiIhcObpjxgX75Ya8+ZxXc0X3AVjrq3e+XeahMKvC9sCsYRO/Xuq39i7I/nrxtIO1XSl94K0I0Q6nFB97WaZ6eEsCY8R5dOWY5N6zN6yYuqGM8oG0uHNyZo5x/XHfw/559v6PiUgnP+vXXzDt3QqcZmJi9snllq6FtkqSs3eszesQwdUIGSMdLzDQoWPbTCaZSCQSM9iIVG8nv6WDATxxFd7c6fcVGWzw1N51vNtgeJeaGDCRuhYZT2U84X6gsL0aV2mfumBer5YnK68jx1aQr92tT15oBdvZCWU7Gon5gaW969qkS5uLUaTa2OClrGO2cqq9terITyOugxUAWP3DcaPVMz+Vg6Uw48YY4L09btaP4zr9iw9OjEkekA0Sl2okvyZ50hFXeHKGXJc7MyawG+TAxLXDdRCpsYbI4o455fGCneJNAbbM2w+mY0Rm4BjXuDLMk1Z1zbf50u16nyACA59gkKc0x9uAGeJagM1hszbMx1ZtkrDHT+33xCzb/7EmH+OJ7XXw2k/z+YHCnKE7vrO4L45+aMpGxTkTcIWvN2xfM/a/YFcSAbzVbGSrZDAD9ayQXcwzMhfYZ+g575tFuzonk0wkEokZbERsnGML/KC/BrtIOYaNBj/GrR0Q7AtlkA275Uu3bU7G95VsNmAncFoj7g9sFe0r4+wr2z5R4CG813h4RUT27H3Go6IQqFcKy8DTmMMemcWu1O5q7Y5D81zaqZnS2hSr+RJs1I6H7Zy8xl3jLmmFTs2/WZ+DmOOa5bt8wuuMWEM0gS6UaQdebGQi+tK3XjO6aLTA2rLC1g4NpoQS2HmxUgh2443GBU71wOrgtUZsKjzKaIf7jm2ZOL7dsNoS7qlzu9M4R8v0HitvUHibQT3YCS/Rm9WWmOOOvNycG7XtK/KI8yoeAIdfLSuJnqDYVOydtFYbdrHRXoafwfoCJhklV8PB+SSlez6yTYb1uh3QmyPHdy7YJCPdDilPJplIJBIzmJhk8D7PTBHV2qewiMhr92pGFXgw8QSEZxye0HWlQtL2/fp9MNCp/Q+Vtb3w9un+MkXu/TO7F0xvw3fYu5gp42hDdBSeRDs6cY+ZFbFAjaekp51hoEWGerldFqPCRod+vSVbJebxaLCxkNt1tQmvVmVksBPz+mjAL5CfPstOhn//6ndFROTfvDKtAf/4e6dsP79fsujgWpyckV2xmW+wrNtkL8Z4weJxvxzTSqObJTa12t6sqiuaJzBSMKV2jX/VaxLynutTRMDL5X5gWyvuueOytn08QfyktVHq3jnMTAN22NbF/IAx3+Rs6C77j72GL5e3IUSZIMZzcBnvi70V6++bCBaM4zoKghRejhnqW50E6LdX9LvpVyIhPgYz6INZMeetHWu9ZJKJRCIxg41ItWNdLbap2+XJCC/26/dOe23VE9b+BqMufpjBQtUjXPq6fmkqR6ZtAF5P2CSfLOukkR0affG+O1iJYECsAg8HrJzB0xhECl7tFdk3db14edriKa3j1n/IJtk8nbjuamxbVO+8ViObJGc7Ysa5og52cFw3Mk+3pfBkbKt65qiiAkZZWN3XXp5WirynMPb75b7ZEzt++sbERXZNCm6sUsL14+w3YOWIF0Q9eMjvUz4BnnO24bLcu7tqp+bVWsgGBC83ZMKDrJl5ClvHMWzfW2KKzs6oLNCWT3M0feJ7BB229DbEmaeqPc8yzC0xUwQu4BsNZn3UyT8KmddINp8Xuga8Es/FTQYe6YhRGplhXVxf6itgo4uMs/k+JZNMJBKJGQwiMn7ymWdmK0U7FeLH9nrj3b4dxFze0P1BrMWPI9zJueszBfdG0MgZZs49Vdgm1qrDXlNzOGKva7sGGX1jbfdLzCQLrtA6W/O4Y5KGT7KFsPeaPeu8UoltlGAEGhfXrJ7B//+pJBbXPXjUm+1o2fxxuR/+0R9N1/ZlimFVu6CuEmqpgRXJ9xjGAw/rPd2v3LZj8Pr8mgFKTHnLmOrbic0TgDerE9r9kcnJXu3kO3O8IwrFzLLaKlvZdK6UI7sT3siqLKsVHer3DqPkFTwA3gpbVgt76IfuvWjHyyZs8eNodfF5JakeMU1uP9WxFz5ioZEZk++bRWbaIJlkIpFIzGAjsuRF8gySf7Vv3fc2SzyFwABga2Rm6Ox4EWsNmEP1Ggv9U01qqITdASEMcZQsGn3dLn7u6CnErA95CCHwcrPa6JS8t1U12BxZZ9uHVmdGWo53xEBQjlhGEZFffdZmWtfM7LoXEE0mf0Jryi4PZs6xjy6m0+yJDlF91olxvELslPdQB4tZ00SxnZG93D0mOZTVK9ABEQI1FtVGUuh6e8oBGcU08lrt0bFBH5sJGa8Tg2Qm5bzepfy1u1M7MPLoewW2DD/ENB8WbK/T7wHeBl0Dez8xy3X2v7nfIfcDgO8Rv2OO/fOqA7ez8nsrd5JJJhKJxAwmJhn+hPMjwB7qb3fL3sonbI94MqktMrDNYTfAU7L/aD0OqXferMCw0cog9xtWebRZqk09Bj986OnFxAuxnKZN8OCrK3AwrrF7nh90EdNE+XeazOS3ziab7OXRsjf0oSZK51kXWx82tx08p1PxGWVwZ3Y/7KqyyiBXqFJsqBu7vxDH8Ea2WvZes61W29P6fRHPvp2HHG2HXVA+/aceZGV1YsZQj/fd8yLejodzVzTy5MxUZNnMUjkemZkmxnBSMmC1QSKo8+L1HxYRkffd/q49E9yTtX3wRaLvYb1B+rbNORnKYh0tjY5LaRjL6esnk0wkEokZ5I9kIpFIzGDBcUPUnF/t3D/tv1NlvGarDH4tKJ/twvraWuTSkd32oXbUf22wyTZsuNHeviVURwuDXnEZNWzJvmbzfAy2kZUROYP4DUS43FbgpxyHSrTnx7L1773yKouQpitl2eDPf7EsryvnkaT3Vz9pHQwrDaux86CvmzTkGgjPd0fdpgLL5LanZdtiSkvmQ5/4lRdy7eu2TwjiX9d7qe16srF1Mr/K833C9yq/4vpA8OZ1u/MKLtIkUeFEvahP5hn3il/aYXEGknSMML2siwnFpD2021P4q9e/ifn3Ivx9CWxFnUxpTR1bym/Zzn0TWOHO83aeTDKRSCRmUBw3BKYCXH4Q+kyPA0kH/umnw8owLXOoAmz91zvhSH3NnAinlOaedU8pyyD39ECtcntUlJw89NjlbR746c1hTVFIEOq1831KLAShKw+KAwZLQSEDgcu3tpPzbYPkwkXAzz8/sRGwnO2OHCDK6mx5D1sKAt8R7R9Hu9Wwd3RZcAgQb+nbA6/OZKZ4OlrH1Ip0Rjs4sHTzOrrh9sS4xoa9OcaDa3RmQ3R0e9pS74nyBnVTQ4WsHKQ3RAIZDkJHqrk2rSAcm7u1vX61aXDzqe4op9HRm1bI8npgth8wxVqB+8L3i9jxjLcomWQikUjMoNgkQx++iMS/+H3wTzcYT/AIXxIaGPpUZdJxaKgCP00jEuHsGsGaJX4wjqMd6+jmyxtr+Wk8UGNm1monUxbTNwy7dkLlIvIAS/7K8Y4CrK+WdHS3KHD5c1+e2MW/+7GS8IEu2skZh231GWQ7rczSNBVcOV+3BBhNfT52zLz8A7Ogs2VqvVquOtANE7FRtafSGBwLpvkG+JbvpSrk9H7b/TTHSGWG01hOiG1u6xisTZLnlRNEawKRZqOxals9xgBNXR/KY+Gve//7UhsQy2sqhPbNxS81HwYNgvtkHJNJJhKJxCysd3vGXnM4+naH6Gkzin0aL5pD50lvNyW+Q/j0YS8eVeenGZ584VOrkRHYOVFb7T97eHen8j1TZmbHZIMEQILabVx/6QvT1gj/8WeuljZTo7/3hSkNHZauIb2WbqlROjnZXzHH95CuzI0WDNIyL5PfIrpM9CKiS/p07plJUnOyh1ZdcN7afttzfO9ge18vcwJvC8wMc0dsjftT+BeOcHsGbI9yrWy7ANsktthFcmpEdvjli5Zh0t1l7KMn43R9dTMynUOrEy+1dXbCyCbJNk52MDQT5cgolqXu7b020huZs0G6xQnUpRCGZJKJRCIxi017wPYLLY9azxgrZ2OdetKpIhOuWE5Mf1kHftKFukRd8ONMvZR9RmEkR3ab8nn3pJ9Czgvt25I8A5s+b96t3n7Y2E7o6QsGhUQV3OmqTNiDslEYYvKi1Hm8/LO/lJDaBnM8MpMugA0z2hp1IPtW/YjvJJax1T5QTrIiu6cyU3vs7aEHfDtG+ixtkHwYoh4Utoctc108ZQG83E8+Nr016Ja7Be1OHmDviHr4ymNPiYjIs+NNoz9vFBb/gPTfGpfDTUQn4Kd/6tPtYf1uk4zf+eK0De5qNTFsvKG5BDMLGCSZZCKRSMyim+Ai+mH3zqiYxS3ZnJZkR7r4ejPMIHywLRhfF6l0X6uIcHaF05PQd9lnaZEGuBb1knh7GBj0FpXKBCEZLyeXBetCZMKm2E1/8TenbUudrS6wj0Z20x6Yde0742jBDEttjgFNieIqReKVN/pWM/TPuy02SJ7v25abDenIPhp9j/hNq8ZeWgYZJqflF7jOCx305FRwLkkzK7/wA+LubWLWvUv3mc9MDJJXzTHQ5Kc+8ylT/0u/+wck237z4tVBuRFYIpFIzGJ27XbI8shzdAgqwbHPgMMlnLejOSz0Os4edroiO8csc+pLC/ug2DT0eaOssEBM42PFq4k4N419PK6Jf5E0tpgW5XJJS4ZtB0K7KWxTZVtS9drSIz/0Zs88/d0qJaLWHM/nEbD6MD7Sj5Hrqv2Kbc2BXTPyfvPYqifW6rSbeSML3yCIldU139OnRipQlARyKaxoWwtdmdXcA5CFdfQPSjq18XKgb/Tq5sZivy+V1Fkm+pM/+cm+IGm/a/03A7aX//iPT7K+/OU/NMo40kuCRsmNwBKJRGIWm7mTIbvp2C9cHfrH2wKiBkuYr9gShQtjqfTkD9ek0mHAy0yl2ItdagVGmJv37NYTiJ8DYD+6db+u3q7e7YllPDgpMZnY6pXGxcPDCh3PiMgT7Zi0Z3cs29uEbB9u9RTdV24eF2IU58zFlb0eaM8sBWAcTIyq3dAecyyfiN8aeNE8XnCVNqE7Xk9vENgHDvG5T5UsQKgvZRvlnjccW2e43AShkyKgZ3q+387NQ8cDzU2jpLl8nlcg8Q+Tm9/OdyCZZCKRSMygyyQdUQrOzyFwLh7Q4LCKbO9ie+D5RIfWV+qDvHDjPLPoiyOGxN7bSFl9EJI9h7qs1T2TurIpbKM8XcEm6jphO55aOv135xS2S1a1P4aQaTagpemhjTJYqFR1Dlzn3v/qLw6/IbhVGYHrk+/Bei0thaxMkhh15yWBPel1fFYFZqO3KCvQXaFcqXTNXrptCyAH+SZFRJ4q+UR1HEQl3XcOItmw7PYckS50s7c97Ki+iebV1GtlZThvPt6CiN4PQf1h5e/VZJKJRCIxg1nvtt8iMpAyzNQJbEBBtYMR6vxQhsjDGg3u0e/tOLE4O8KD9XSMuW+j9GbSwdaX6tncybQG+3O/eVMMaCMm5lyXLiEX4bzyjlGivNGZ3zQiJu3X5NqB45ocmvGp693WromF4HwQUxfFfUbn65gDRtqWzdhzW1yn/JJBF14HKnnqysQaOftQKwtz/cX9NRGpNu5PH91GhdKAmaa3MfYKcLhutmLmc5qzdMXfJ/td3NGmbJ7F9+cV7VclC/2YcZKJRCIxj2KTDCxbixRpwZvVnFsiTovEyhvKDseBbZZEHmpn7ZskA5uZTmHQe5SiaXHCehWmsjPYfMiW6Bmk7fNzv/ma1SRifUG/LbNyMYQs07Exb2Nt65PJqfbD/3Bq/E6bKppsjNRZZIseiNXU08SCOzeKlzkYmVxPt95dyH4VnUX5K2UN91zs81GJs8W2v3/tcdhB6XeA3h75e8O2TL7Df/RHPyEi/u3AANsaU1ajur3vSNVH88nbAkc/EYNknGQikUjMojBJ8tpSpejX1j9pe3hU62Mg5mFsjwttwtMBO/Hz8RAqHUpPo/NOGVvQ2lz+1XNPiIjIP/7t17uS/TggYzrSPWCCa+jiJGdGMOfxNucd2w3shnreCZo+xhnOsLCqZzyn5xy1vZec6ndUWZdK10oeUDBE7D3zWLFBYmUV7ILIUM47hHoWZ8f6RPFgg2EhS1B3fEU3REUMw9aOc4FB+lcQy+Y++ckfMbrY+6W0hI2RbNGaw5Oy/SBeGLbM1arPC8NrL+ndTiQSiVl0swAxlkjcedZwc+tDHeiHw7va55nuAQi8cOHxQ3T30Bqybi5OrB7/ky/c7Hbmdo7jLsgGtx8sG4l0qnzBe9rZrhe9pQiVL3Tp0O17tkUsnO2bVSfymJbSf/DRaWWTZtEesQ/NdP7f/2lZR91IOi4Zxm9Sbk/28mPXxJOyDw2YJcZ7o+yKyLkuK7uzNroeU+frt6M2rJvvAxX69B5inn3240ZuZeK1xV74vrYSlUEWprjfWe92rU4RCjKPQZJJJhKJxCxm126/FXh05rgssfdsrH99vUNZS9j+PIM6IEDgYTA7BseM53t3Xmv3dA761LH15Pft35GObr/2gIO6a3KOdPvxPkvERtk9S7ZbFrjXWhMn2RwVtjPaDE4ifg2+ZnUvffB+2+gSWaGAyjSnVVIv3Sp7pJN9eSnmdepkqgNP+q4aAjEwo1MExB5+5GPPGN2jHJGGPVIfnEdUqymDtOVnlCaemWR8L6d3O5FIJGbxPWeSbw0ezeZ6XqmHMtJZIQ/rMj8HMz3UDoqn8r987kkREfnn/4dW6kQ2zYt/TaiiXSqqwkzn3JQyhicCXAAACNJJREFUZ6P0HvCRWFytiGqWAnnPulVGbW5kL7vzoK6z9llt5u2/GA92trxSbJq3hlNTHu0JM3eJXMQAWGihfr9zZ/KM//Q1Wu0T6KjMmrJIbUrGot1o58V7F/xujxETBtvleEn1blMnK7ovWjtrMslEIpGYwTuESQJ9plDxsNSnL6e3iuZgL/bDqrJoKFzuImqCp7BnTMx2AgltQ3YVL+jkZc2XR15z9pLauv13isUcBsRSVR7v5LiysXtg6NtmXh6njPPaBSnBORiRJxI7Xl4psYzMGJ8o8v3OmDE4NyN2ZlyXZJX7p35QRGo2fNguI7vx11+/LyIil8oabcwH2t8vMaGtZ/7DT017xastldgo2zUhayhbWl45msZ95ZkPi4jIN/70G9OYdmUsK1w7a7MUSSaZSCQSs3jbMsm6FvNCpS4cX5Tc5ZqP6kGP4OT2Gix0HpHR013Qu7NvHTAf7Con0hFl/wm91Q6HM9RFbRcqMBNVu99gmTfI4HqNuEmvabhLItlg+f54tWQRr3ImBoWVOLBNol5oN2xQ+7DXAKtXcC2wyufJsnpnrW8coxmnZkkvE3FaYjzBTIey1xIY5Nm+xjS88NJtcw5Y8s7jtCYNwn10412m3v2tjZ+4cvfVqd16lUwykUgk5pA/kolEIjEDk3T3Yl9t+1jq6+GS5n7/4VHDjJbqd6d3ITwm9LeUz93wJj5TOfRlZnllr74XF1SId6EXXm94cIiUba3HJ09ODo01BzDjn698xdTvyYwKloKg8YqL5Y1RPTUNzDq0JhQrgZwWZ8duvymf5bUbzqaFQO0oqXOUWLlFTWxhZ706cPi+KbrDMTNYE4A6z5Ckt7TbXnlS2yeTTCQSiRkMIjI+/YEPTUf8tFoy8HdY4ZvNBN8Stou+HlnSW6DsRfZ8oDfprbgGbw8M3cPzDv8ffnZKIgvGhc//8FtffWhd+BpgGwfcu5vCnNrUZy3GkP+2Pfb7vHw0Mcjj4on51A9PrAtsbUXM2SVIIYeOOrzUyRLPMKdnjI4ByDotYUaXNtaZhnAlOIk4hd/Zbp9MMpFIJOYwMcn3f8gWhsusyuf30m7oQkXs6R6TPZT5nCMOewFvHwb5T3+6hjp8/ndeeTShRD7eToTyvIHxD4f+zXdoH1G93v1543IJKn/QZ4JVZj/UCUHpYFa8UZhr0Bfe7Qv6IhgcYUYfefd1ERHZUGJb3qTL20OpHhhls9lXtN0vb8cA2yLrgHKweEjGGO6c2gTCrQ7JJBOJRGIG3WDy0K74dvA8Oy+oPe7ZR+fqdER+X4MDusd1vF5g2fbKUeLDbPGhAfKHIFpWeF5ZF/d20JEWbfilnfRZnhtLZzBvgEEuRYMEM/HG/cmrDUZ56IS11Xh7iZoqDsHw1tOMRB2XS5INlG/WdlljvLTQ2mxb2yTm6AiyyrGmQCsVjgozvH96ZmTW7R1wzaZPJC2utkkwyapbMslEIpGYQdcm+Rce54wXXIpJO7yDtxKxt3LJfhen51oY1xLdGzrnzjtVFxd6sIiL6iKK+5uTj43A7tDGXod3On08XmyboU2y4BymSR3PcfEUI8Hve25cEZEaFwo7ILzeWIZYk0lMeLDF5l22n01jk+S2nCoNTJHfpBybZ/ZPHvbeNrbJJBOJRGIGb9sEF28qIjdbcHyoifbtwB/nsGSWcisjyucQ1uAGS4G1Cwqcp+15ZX0PL87D2FUfWV1iWgvV5kHfC7AuJLqAXfB2Yb26q8NSBEoQR4nTJ43uA7FTr9yejicgqcYR2CzZRaMtituCZJKJRCIxg3cmk4zwkPYuT0DfVI5wPhh35Vvb9UG4sADHwNO89DqwKNHj3CuOHuK+4u1VD0VkP38kEk+NVzQQMMkHJdUZbJUKIn8xs461jDbXw1pstkWqjRI2y9Xk9b5S4ifvlrhIN89pk0wkEonz4Z3NJN80o2K8NCnyHNen64X5VK0q52r5NqCcB8f1HVjxHENyeX0X4mqXRdtVHEvrsA+VGvcUH18kOIPOUTEA7ij+MYxtHqjALfauc7Di25lXBVJfaoulLTPUgqkrb2xD3f63oc/JJBOJRGIG72wmGeHQx29o7jrcnuQfhLbVcizmxQcOfr957eegsxNFMHQQMaCLA3lUO/3cPTkz5x428xIY1bVL01f9zsl2rvq5ZCIeEg7nO0VnDO/K8brb3qUGxRiJwg8tm6MMQ4iXZNYKZgjmuNPAR7uyRvsmJXZWhanP7igSiUQiISLJJC2Wl6LY4wvs6vyk5a1benJRzPLNcLSf2376cPTeHi+IvIixXQXze4DsNPOdRH3eLcwRq2IuEhqZiNyLZUMvrBbi7WzdG9benh9sNWWLIiJbtSFCht1sDNl8wBTVa11k7Si+knVTW2WH1ieTTCQSiRkkkzwES0tR2MZyAVTizbM4nh+sy3l16tV/1HHFsXYWjzRvD2mTvMhrhvXLu3Om/H+sMFEwSdjskPvx7gXYJtlOCrZ3tkOsIuyF1njPW+9WFmfl9VgdZO2IKaqddGWV2o3WNgmJLvs5yWl7TiaZSCQSM3iHMUl6di15MQ+lc2+CN9R3+fb3MS8Nv3f+UOYXx0MO3SNmvUvy325A9p+j9WRre6zkaASD4kzcJ2d9m9vV402pN5pj2ChPix1R2zX/n5QVNGClmxIHiZU1yBuJ4/unu6KbGB33Gk9ZPMhEGTUGcibR6/3SB+IbsaoHzHG7n46x784pZRZiG2TEzGHjrCqOySQTiURiDoOIjB96/wddYYvzPI0f1h5zqI1pCb1+D2crh9U7FHO6xytuDm1x8Xjn7IIo8pbM51sp/IIMoT278aPKOi6e55PCWtdkV8R+NCvKU9naJK+UHRrvn8HGOpg+wGqRaRyM8qjIOivlYIpgxWDiYI5guVeOqs7JJBOJRGIGXSZ5UYLncJiFaZndPcrT7qKf9G+uLm8SdTgAvBooyrTtwF7/uT6W7L8HTu6btkjmADzs21NPxqHfj0P7WGz3Zrwevo2wFBwwN+//H3aFQEwaYMx4AAAAAElFTkSuQmCC;" vertex="1" parent="FID3xfvM7FnyY_k4tjsk-16">
          <mxGeometry x="280" width="175.94" height="100" as="geometry" />
        </mxCell>
        <mxCell id="FID3xfvM7FnyY_k4tjsk-17" value="Compute Pass: Volumetric Lighting" style="text;html=1;align=center;verticalAlign=middle;resizable=0;points=[];autosize=1;strokeColor=none;fillColor=none;" vertex="1" parent="FID3xfvM7FnyY_k4tjsk-19">
          <mxGeometry x="122.97000000000003" width="210" height="30" as="geometry" />
        </mxCell>
        <mxCell id="FID3xfvM7FnyY_k4tjsk-18" value="160×90, 128 Slices" style="text;html=1;align=center;verticalAlign=middle;resizable=0;points=[];autosize=1;strokeColor=none;fillColor=none;" vertex="1" parent="FID3xfvM7FnyY_k4tjsk-19">
          <mxGeometry x="157.97000000000003" y="130" width="130" height="30" as="geometry" />
        </mxCell>
      </root>
    </mxGraphModel>
  </diagram>
</mxfile>
